<svg id="Layer_1" data-name="Layer 1" xmlns="http://www.w3.org/2000/svg" viewBox="0 0 1257.83 662.54"><defs><style>.cls-1,.cls-32,.cls-34{fill:#fff;}.cls-14,.cls-2,.cls-24{fill:#21252b;}.cls-12,.cls-13,.cls-16,.cls-17,.cls-19,.cls-2,.cls-20,.cls-21,.cls-23,.cls-24,.cls-25,.cls-26,.cls-31,.cls-32,.cls-34,.cls-7{isolation:isolate;}.cls-2{opacity:0.08;}.cls-3{fill:#e6e6e6;}.cls-4{fill:#f0f0f0;}.cls-5{fill:#e0e0e0;}.cls-6{fill:#f5f5f5;}.cls-7{opacity:0.05;}.cls-8{fill:#d9dcde;}.cls-9{fill:#afb3b8;}.cls-10{fill:#fc9d9d;}.cls-11{fill:#479e7a;}.cls-12{opacity:0.6;}.cls-13,.cls-21,.cls-22,.cls-23,.cls-25{opacity:0.15;}.cls-15,.cls-16,.cls-24,.cls-34{opacity:0.3;}.cls-17{opacity:0.4;}.cls-18{fill:#3f4249;}.cls-19{opacity:0.5;}.cls-20,.cls-26,.cls-32{opacity:0.2;}.cls-21,.cls-23,.cls-25,.cls-26,.cls-29,.cls-33{fill:none;}.cls-21,.cls-23,.cls-25,.cls-26,.cls-33{stroke:#000;}.cls-21,.cls-23,.cls-25,.cls-33{stroke-linecap:round;}.cls-21,.cls-23,.cls-25,.cls-26,.cls-29{stroke-miterlimit:10;}.cls-21{stroke-width:0.6px;}.cls-23,.cls-33{stroke-width:0.61px;}.cls-27{fill:#868a91;}.cls-28{fill:#b2b6bb;}.cls-29{stroke:#1656bd;stroke-width:1.42px;}.cls-30{fill:#dadddf;}.cls-31{opacity:0.1;}.cls-33{stroke-linejoin:round;}</style></defs><path class="cls-1" d="M733,552.82s9.27,1.27,51.84.39c11.52,7,61.44,2.55,81.12.69,22.75,4.22,34-6.8,23.89-12.75-3.11-1.84-8.26-3.19-15.73-3.47.49-23.68-58.08-31.45-74.4,3.1-8.63-7-26.65-6.35-27.84,3.12-16.66-3.06-29.82.39-35.85,4C732.83,549.8,731.64,551.75,733,552.82Z" transform="translate(-159.92 -310)"/><path class="cls-2" d="M733,552.82s9.27,1.27,51.84.39c11.52,7,61.44,2.55,81.12.69,22.75,4.22,34-6.8,23.89-12.75a5.66,5.66,0,0,1-1.4,4.05c-2.31,2.64-6.66,3.74-10.63,3.4a28.43,28.43,0,0,1-11-3.68,13.52,13.52,0,0,0-5.11-2c-3.37-.33-6.28,1.8-8.65,3.77-2-3.16-6.91-4.87-11.07-3.83s-7,4.73-6.45,8.23c-8.15-1.46-16.46,2.44-24.76,1.82-9.47-.72-18-7.21-27.3-5.56-2.35.41-4.52,1.34-6.88,1.73a39.65,39.65,0,0,1-7.06.19c-7.59-.14-15.18.83-22.75.45A44.22,44.22,0,0,1,736,547.91C732.83,549.8,731.64,551.75,733,552.82Z" transform="translate(-159.92 -310)"/><path class="cls-3" d="M412.44,904.44H623.7V492.17H412.44Z" transform="translate(-159.92 -310)"/><path class="cls-4" d="M450.85,904.44H623.7V492.17H450.85Z" transform="translate(-159.92 -310)"/><path class="cls-5" d="M410,498.9H628.24v-6.73H410Z" transform="translate(-159.92 -310)"/><path class="cls-5" d="M410,485.44H628.24v-6.73H410Z" transform="translate(-159.92 -310)"/><path class="cls-4" d="M414.56,492.17H623.71v-6.73H414.56Z" transform="translate(-159.92 -310)"/><path class="cls-3" d="M574.84,548.91H607.3V516.45H574.84Z" transform="translate(-159.92 -310)"/><path class="cls-6" d="M574.84,548.91h29.6V516.45h-29.6Z" transform="translate(-159.92 -310)"/><path class="cls-3" d="M525.66,548.91h32.47V516.45H525.66Z" transform="translate(-159.92 -310)"/><path class="cls-6" d="M525.67,548.91h29.6V516.45h-29.6Z" transform="translate(-159.92 -310)"/><path class="cls-3" d="M476.5,548.91H509V516.45H476.5Z" transform="translate(-159.92 -310)"/><path class="cls-6" d="M476.51,548.91h29.6V516.45h-29.6Z" transform="translate(-159.92 -310)"/><path class="cls-3" d="M574.84,596.71H607.3V564.25H574.84Z" transform="translate(-159.92 -310)"/><path class="cls-6" d="M574.84,596.71h29.6V564.25h-29.6Z" transform="translate(-159.92 -310)"/><path class="cls-3" d="M525.66,596.71h32.47V564.25H525.66Z" transform="translate(-159.92 -310)"/><path class="cls-6" d="M525.67,596.71h29.6V564.25h-29.6Z" transform="translate(-159.92 -310)"/><path class="cls-3" d="M476.5,596.71H509V564.25H476.5Z" transform="translate(-159.92 -310)"/><path class="cls-6" d="M476.51,596.71h29.6V564.25h-29.6Z" transform="translate(-159.92 -310)"/><path class="cls-3" d="M574.84,684.26H607.3V651.79H574.84Z" transform="translate(-159.92 -310)"/><path class="cls-6" d="M574.84,684.26h29.6V651.79h-29.6Z" transform="translate(-159.92 -310)"/><path class="cls-3" d="M525.66,684.26h32.47V651.79H525.66Z" transform="translate(-159.92 -310)"/><path class="cls-6" d="M525.67,684.26h29.6V651.79h-29.6Z" transform="translate(-159.92 -310)"/><path class="cls-3" d="M476.5,684.26H509V651.79H476.5Z" transform="translate(-159.92 -310)"/><path class="cls-6" d="M476.51,684.26h29.6V651.79h-29.6Z" transform="translate(-159.92 -310)"/><path class="cls-3" d="M574.84,732.06H607.3V699.59H574.84Z" transform="translate(-159.92 -310)"/><path class="cls-6" d="M574.84,732.06h29.6V699.59h-29.6Z" transform="translate(-159.92 -310)"/><path class="cls-3" d="M525.66,732.06h32.47V699.59H525.66Z" transform="translate(-159.92 -310)"/><path class="cls-6" d="M525.67,732.06h29.6V699.59h-29.6Z" transform="translate(-159.92 -310)"/><path class="cls-3" d="M476.5,732.06H509V699.59H476.5Z" transform="translate(-159.92 -310)"/><path class="cls-6" d="M476.51,732.06h29.6V699.59h-29.6Z" transform="translate(-159.92 -310)"/><path class="cls-3" d="M574.84,829.35H607.3V796.88H574.84Z" transform="translate(-159.92 -310)"/><path class="cls-6" d="M574.84,829.35h29.6V796.88h-29.6Z" transform="translate(-159.92 -310)"/><path class="cls-3" d="M525.66,829.35h32.47V796.88H525.66Z" transform="translate(-159.92 -310)"/><path class="cls-6" d="M525.67,829.35h29.6V796.88h-29.6Z" transform="translate(-159.92 -310)"/><path class="cls-3" d="M476.5,829.35H509V796.88H476.5Z" transform="translate(-159.92 -310)"/><path class="cls-6" d="M476.51,829.35h29.6V796.88h-29.6Z" transform="translate(-159.92 -310)"/><path class="cls-3" d="M574.84,877.16H607.3V844.69H574.84Z" transform="translate(-159.92 -310)"/><path class="cls-6" d="M574.84,877.16h29.6V844.69h-29.6Z" transform="translate(-159.92 -310)"/><path class="cls-3" d="M525.66,877.16h32.47V844.69H525.66Z" transform="translate(-159.92 -310)"/><path class="cls-6" d="M525.67,877.16h29.6V844.69h-29.6Z" transform="translate(-159.92 -310)"/><path class="cls-3" d="M476.5,877.16H509V844.69H476.5Z" transform="translate(-159.92 -310)"/><path class="cls-6" d="M476.51,877.16h29.6V844.69h-29.6Z" transform="translate(-159.92 -310)"/><path class="cls-5" d="M412.44,622.54H623.7v-3H412.44Z" transform="translate(-159.92 -310)"/><path class="cls-5" d="M412.44,772.18H623.7v-3H412.44Z" transform="translate(-159.92 -310)"/><path class="cls-5" d="M1015.65,613H869.54V968.55h146.11Z" transform="translate(-159.92 -310)"/><path class="cls-4" d="M974,613H869.54V968.55H974Z" transform="translate(-159.92 -310)"/><path class="cls-3" d="M919.2,642.23H880.31v18.88H919.2Z" transform="translate(-159.92 -310)"/><path class="cls-6" d="M919.2,642.23H882.9v18.88h36.3Z" transform="translate(-159.92 -310)"/><path class="cls-3" d="M964.18,642.23H925.29v18.88h38.89Z" transform="translate(-159.92 -310)"/><path class="cls-6" d="M964.18,642.23h-36.3v18.88h36.3Z" transform="translate(-159.92 -310)"/><path class="cls-3" d="M919.2,677.76H880.31v18.88H919.2Z" transform="translate(-159.92 -310)"/><path class="cls-6" d="M919.2,677.76H882.9v18.88h36.3Z" transform="translate(-159.92 -310)"/><path class="cls-3" d="M964.18,677.76H925.29v18.88h38.89Z" transform="translate(-159.92 -310)"/><path class="cls-6" d="M964.18,677.76h-36.3v18.88h36.3Z" transform="translate(-159.92 -310)"/><path class="cls-3" d="M919.2,723.18H880.31v18.88H919.2Z" transform="translate(-159.92 -310)"/><path class="cls-6" d="M919.2,723.18H882.9v18.88h36.3Z" transform="translate(-159.92 -310)"/><path class="cls-3" d="M964.18,723.18H925.29v18.88h38.89Z" transform="translate(-159.92 -310)"/><path class="cls-6" d="M964.18,723.18h-36.3v18.88h36.3Z" transform="translate(-159.92 -310)"/><path class="cls-3" d="M919.2,749.27H880.31v18.88H919.2Z" transform="translate(-159.92 -310)"/><path class="cls-6" d="M919.2,749.27H882.9v18.88h36.3Z" transform="translate(-159.92 -310)"/><path class="cls-3" d="M964.18,749.27H925.29v18.88h38.89Z" transform="translate(-159.92 -310)"/><path class="cls-6" d="M964.18,749.27h-36.3v18.88h36.3Z" transform="translate(-159.92 -310)"/><path class="cls-3" d="M919.2,792.14H880.31V811H919.2Z" transform="translate(-159.92 -310)"/><path class="cls-6" d="M919.2,792.14H882.9V811h36.3Z" transform="translate(-159.92 -310)"/><path class="cls-3" d="M964.18,792.14H925.29V811h38.89Z" transform="translate(-159.92 -310)"/><path class="cls-6" d="M964.18,792.14h-36.3V811h36.3Z" transform="translate(-159.92 -310)"/><path class="cls-3" d="M919.2,818.24H880.31v18.88H919.2Z" transform="translate(-159.92 -310)"/><path class="cls-6" d="M919.2,818.24H882.9v18.88h36.3Z" transform="translate(-159.92 -310)"/><path class="cls-3" d="M964.18,818.24H925.29v18.88h38.89Z" transform="translate(-159.92 -310)"/><path class="cls-6" d="M964.18,818.24h-36.3v18.88h36.3Z" transform="translate(-159.92 -310)"/><path class="cls-3" d="M919.2,864.89H880.31v18.88H919.2Z" transform="translate(-159.92 -310)"/><path class="cls-6" d="M919.2,864.89H882.9v18.88h36.3Z" transform="translate(-159.92 -310)"/><path class="cls-3" d="M964.18,864.89H925.29v18.88h38.89Z" transform="translate(-159.92 -310)"/><path class="cls-6" d="M964.18,864.89h-36.3v18.88h36.3Z" transform="translate(-159.92 -310)"/><path class="cls-3" d="M919.2,899.35H880.31v18.88H919.2Z" transform="translate(-159.92 -310)"/><path class="cls-6" d="M919.2,899.35H882.9v18.88h36.3Z" transform="translate(-159.92 -310)"/><path class="cls-3" d="M964.18,899.35H925.29v18.88h38.89Z" transform="translate(-159.92 -310)"/><path class="cls-6" d="M964.18,899.35h-36.3v18.88h36.3Z" transform="translate(-159.92 -310)"/><path class="cls-7" d="M1015.65,708.28H869.54v3.25h146.11Z" transform="translate(-159.92 -310)"/><path class="cls-7" d="M1015.65,778.52H869.54v3.25h146.11Z" transform="translate(-159.92 -310)"/><path class="cls-7" d="M1015.65,849.38H869.54v3.25h146.11Z" transform="translate(-159.92 -310)"/><path class="cls-5" d="M1015.65,602.49h-153v11.36h153Z" transform="translate(-159.92 -310)"/><path class="cls-7" d="M1015.65,602.49h-35v11.36h35Z" transform="translate(-159.92 -310)"/><path class="cls-3" d="M1238.58,506.68V896.31l-19.77,56.28H1067V506.68Z" transform="translate(-159.92 -310)"/><path class="cls-4" d="M1175.07,506.68H1003.49V952.6h171.58Z" transform="translate(-159.92 -310)"/><path class="cls-3" d="M1160.1,537H1018.46v22.71H1160.1Z" transform="translate(-159.92 -310)"/><path class="cls-6" d="M1160.1,537H1024v22.71H1160.1Z" transform="translate(-159.92 -310)"/><path class="cls-3" d="M1160.1,575.18H1018.46v22.71H1160.1Z" transform="translate(-159.92 -310)"/><path class="cls-6" d="M1160.1,575.18H1024v22.71H1160.1Z" transform="translate(-159.92 -310)"/><path class="cls-3" d="M1160.1,614.92H1018.46v22.71H1160.1Z" transform="translate(-159.92 -310)"/><path class="cls-6" d="M1160.1,614.92H1024v22.71H1160.1Z" transform="translate(-159.92 -310)"/><path class="cls-3" d="M1160.1,654.65H1018.46v22.71H1160.1Z" transform="translate(-159.92 -310)"/><path class="cls-6" d="M1160.1,654.65H1024v22.71H1160.1Z" transform="translate(-159.92 -310)"/><path class="cls-3" d="M1160.1,694.39H1018.46V717.1H1160.1Z" transform="translate(-159.92 -310)"/><path class="cls-6" d="M1160.1,694.39H1024V717.1H1160.1Z" transform="translate(-159.92 -310)"/><path class="cls-3" d="M1160.1,734.12H1018.46v22.71H1160.1Z" transform="translate(-159.92 -310)"/><path class="cls-6" d="M1160.1,734.12H1024v22.71H1160.1Z" transform="translate(-159.92 -310)"/><path class="cls-3" d="M1160.1,777.91H1018.46v22.71H1160.1Z" transform="translate(-159.92 -310)"/><path class="cls-6" d="M1160.1,777.91H1024v22.71H1160.1Z" transform="translate(-159.92 -310)"/><path class="cls-3" d="M1160.1,821.71H1018.46v22.71H1160.1Z" transform="translate(-159.92 -310)"/><path class="cls-6" d="M1160.1,821.71H1024v22.71H1160.1Z" transform="translate(-159.92 -310)"/><path class="cls-3" d="M1160.1,865.5H1018.46v22.71H1160.1Z" transform="translate(-159.92 -310)"/><path class="cls-6" d="M1160.1,865.5H1024v22.71H1160.1Z" transform="translate(-159.92 -310)"/><path class="cls-3" d="M1160.1,909.29H1018.46V932H1160.1Z" transform="translate(-159.92 -310)"/><path class="cls-6" d="M1160.1,909.29H1024V932H1160.1Z" transform="translate(-159.92 -310)"/><path class="cls-5" d="M1243,502.19H998.64v10.88H1243Z" transform="translate(-159.92 -310)"/><path class="cls-5" d="M1243,482.56H998.64v10.88H1243Z" transform="translate(-159.92 -310)"/><path class="cls-4" d="M1234.92,491.31H1003.49v10.88h231.43Z" transform="translate(-159.92 -310)"/><path class="cls-5" d="M1238.58,536.94h-47.81v22.72h47.81Z" transform="translate(-159.92 -310)"/><path class="cls-5" d="M1238.58,574.33h-47.81v22.72h47.81Z" transform="translate(-159.92 -310)"/><path class="cls-5" d="M1238.58,611.72h-47.81v22.72h47.81Z" transform="translate(-159.92 -310)"/><path class="cls-5" d="M1238.58,654.65h-47.81v22.72h47.81Z" transform="translate(-159.92 -310)"/><path class="cls-5" d="M1238.58,694.38h-47.81V717.1h47.81Z" transform="translate(-159.92 -310)"/><path class="cls-5" d="M1238.58,734.12h-47.81v22.72h47.81Z" transform="translate(-159.92 -310)"/><path class="cls-5" d="M1238.58,777.91h-47.81v22.72h47.81Z" transform="translate(-159.92 -310)"/><path class="cls-5" d="M1238.58,821.7h-47.81v22.72h47.81Z" transform="translate(-159.92 -310)"/><path class="cls-5" d="M1238.58,865.49h-47.81v22.72h47.81Z" transform="translate(-159.92 -310)"/><path class="cls-8" d="M1407.59,579.93l-1.2-1.09c-20.19,12.13-28.78,33.24-28.78,33.24-9.23-10.91-27.18-29.24-39.89-24-17.79,7.4,7.82,33.93,7.82,33.93-60.89,20.06-50.47,63.25-50.47,63.25-6.14-5.83-13.47-9.59-22-8.75-30.22,3-9,42.27-9,42.27-111.85-12.29-118.79,60.6-118.79,60.6s-12.82-46.33-28.37-43.58-7.1,52.49-7.1,52.49-10.09-29.85-28.93-23.93,0,49.77,0,49.77c-55,2.2-44.79,33-44.79,33a82.22,82.22,0,0,0-35.15-7.67c-41.13-.16-49.34,23.78-50.75,29.72l-.94-.87c-5.7-14.42-37.88-30-59.88-31.81a167.64,167.64,0,0,0-18.48-.48,138.37,138.37,0,0,0-16.79.48,77.1,77.1,0,0,0-22,5.91,137.62,137.62,0,0,0-36.67,17.76c-5-9.08-16.46-20.82-42.66-20.71a69,69,0,0,0-31.92,7.67s9.3-30.84-40.68-33c0,0,17.11-43.85,0-49.77s-26.17,24-26.17,24,7.69-49.74-6.44-52.49-25.77,43.58-25.77,43.58-6.3-72.89-107.9-60.6c0,0,19.3-39.29-8.14-42.27-7.72-.84-14.37,2.92-19.95,8.75,0,0,9.47-43.19-45.84-63.25,0,0,23.26-26.53,7.1-33.93-11.54-5.29-27.85,13-36.23,24,0,0-13.31-29.77-42.28-40.29C270,536,276,689,276,689c-98-11-124.27,57.75-114,75l95,103.1,95.5,103.4h929l134.28-356.86a30.81,30.81,0,0,0-8.19-33.71Z" transform="translate(-159.92 -310)"/><path class="cls-9" d="M1375.94,719.51c-17.57,9.13-21.56,22.64-21.56,22.64A60.07,60.07,0,0,0,1324,753.79c-23.78,18.11-7,41.89-7,41.89-7.43-5.83-19.7-10.7-37-2.49-20.7,9.8-15.14,33.75-15.14,33.75-82.85-19.79-99.62,43.16-99.62,43.16-35.15,5.16-26.12,24.88-26.12,24.88-98.87-9.75-93.64,49.55-93.64,49.55-1.5-8-6.74-16-15.48-16.25-17.33-.49-12.63,18-12.63,18S992.6,917.8,973,926.79c-17.67,8.11-10.89,38-9.42,43.71H1281.5Z" transform="translate(-159.92 -310)"/><path class="cls-9" d="M352.5,970.5H811.83c13.55-56-30.56-53-53.9-23.75,6.4-19.07-22.64-27.86-28.12-1.72,0,0,5.23-59.3-93.64-49.55,0,0,5.83-47.48-44.17-23.48,0,0,0-54-74-22,8-25.47-59.57-43.64-85-24,15.46-20.5,22-81-45-58,0,0-9.91-26.16-30-32-19-5.53-47.65,8.78-68,24-30.31-45.53-85.48-18.23-93,12-6.6,8.39-5.06,14.62-5.57,24.14Z" transform="translate(-159.92 -310)"/><path class="cls-10" d="M668.64,772.42c-3.57,59.11,1.28,121.67-1.75,180.85L688,956l.84-12.06.16.06c4-56,14.66-116.13,19.88-172.27Z" transform="translate(-159.92 -310)"/><path class="cls-1" d="M690.46,926.39h-22.7c-.15,9-.41,18-.87,26.88l9.83,1.27,11.45-1,.67-9.63.16.06c.42-5.82.93-11.69,1.48-17.59Z" transform="translate(-159.92 -310)"/><path class="cls-11" d="M666.46,945.36l-.07,2.08a15.82,15.82,0,0,1-.94,5.19l-2.59,7.27a19.64,19.64,0,0,0-1.08,6.4v.36a2.59,2.59,0,0,0,.24,1,2.74,2.74,0,0,0,.62.85,2.7,2.7,0,0,0,.9.55,2.51,2.51,0,0,0,1.05.16h25.84a2.73,2.73,0,0,0,2.81-2.59v-.93a18,18,0,0,0-.87-5.55l-2.23-7.41a14.85,14.85,0,0,1-.72-4.68v-2.73a6.71,6.71,0,0,0-1.87-4.61l-.36-.43a12.81,12.81,0,0,0-18.07-.22l-.64.65a7.24,7.24,0,0,0-2,4.61Z" transform="translate(-159.92 -310)"/><path class="cls-12" d="M661.78,964.65h31.39a5.6,5.6,0,0,1,.07,1.08v.93a2.59,2.59,0,0,1-.24,1,2.74,2.74,0,0,1-.62.85,2.64,2.64,0,0,1-.91.55,2.61,2.61,0,0,1-1,.16H664.59a2.73,2.73,0,0,1-2.81-2.59v-2Z" transform="translate(-159.92 -310)"/><path class="cls-1" d="M683.52,946.51a.75.75,0,0,0,0-.49.72.72,0,0,0-.31-.38,12.2,12.2,0,0,0-10.72,0,.62.62,0,0,0-.2.15.71.71,0,0,0-.13.22.57.57,0,0,0,0,.26.73.73,0,0,0,.07.24.62.62,0,0,0,.15.2.61.61,0,0,0,.22.13.69.69,0,0,0,.25,0,.67.67,0,0,0,.24-.07,11.08,11.08,0,0,1,9.5,0,.5.5,0,0,0,.29.07.69.69,0,0,0,.37-.1.77.77,0,0,0,.28-.26Z" transform="translate(-159.92 -310)"/><path class="cls-1" d="M683.52,949.82a.72.72,0,0,0,0-.48.73.73,0,0,0-.31-.38,12.12,12.12,0,0,0-10.72,0,.65.65,0,0,0-.32.37.6.6,0,0,0,0,.49.65.65,0,0,0,.37.32.6.6,0,0,0,.49,0,11,11,0,0,1,9.5,0,.5.5,0,0,0,.29.07.69.69,0,0,0,.37-.1.77.77,0,0,0,.28-.26Z" transform="translate(-159.92 -310)"/><path class="cls-1" d="M683.52,953.06a.75.75,0,0,0,0-.49.72.72,0,0,0-.31-.38,12.2,12.2,0,0,0-10.72,0,.62.62,0,0,0-.2.15.65.65,0,0,0-.13.23.52.52,0,0,0,0,.25.73.73,0,0,0,.07.24.62.62,0,0,0,.15.2.61.61,0,0,0,.22.13.52.52,0,0,0,.25,0,.67.67,0,0,0,.24-.07,11.08,11.08,0,0,1,9.5,0,.43.43,0,0,0,.29.07.69.69,0,0,0,.37-.1A.77.77,0,0,0,683.52,953.06Z" transform="translate(-159.92 -310)"/><path class="cls-10" d="M790,955.38l-17-12.77a12.15,12.15,0,0,1-4.68-8.79L771,814c0-.65,0-1.29-.06-1.94l-3-40.56-42,4.7,7.75,46.6v1a247.51,247.51,0,0,0,4.3,58.89l.64,3.32c2.21,11.59,4.79,27.08,6.52,41.35l2.23,26.95Z" transform="translate(-159.92 -310)"/><path class="cls-1" d="M745.21,927.33l2.23,26.95,42.56,1.1-17-12.77a12.15,12.15,0,0,1-4.68-8.79l.57-7.43-23.69.94" transform="translate(-159.92 -310)"/><path class="cls-13" d="M749,939c.41,4.77,7.09,7.82,11.58,9.62l6.42,2.55-19.55,2.14-2-23.76c-1.72-14.87-4.45-31.37-6.78-43.57l-.64-3.32a247.51,247.51,0,0,1-4.3-58.89v-1L729,790l8-1,4,33s-3,38,3.48,67.63c0,0,2.6,24,4,39.92.22,2.56.4,4.91.54,6.91Z" transform="translate(-159.92 -310)"/><path class="cls-11" d="M747.11,944.4l9.53,3a4.19,4.19,0,0,0,2.11.1,4.1,4.1,0,0,0,1.89-.93l7.53-6.42a4.69,4.69,0,0,1,5.94-.14l17,13.19,13.4,4.42a9.73,9.73,0,0,1,6.63,9.19A2.15,2.15,0,0,1,809,969H749.6a5.26,5.26,0,0,1-2-.38,5.2,5.2,0,0,1-1.66-1.11,5,5,0,0,1-1.11-1.66,5.08,5.08,0,0,1-.39-2v-17.5a2.19,2.19,0,0,1,.23-.91,2,2,0,0,1,.61-.71,2,2,0,0,1,.86-.37A2,2,0,0,1,747.11,944.4Z" transform="translate(-159.92 -310)"/><path class="cls-12" d="M744.55,964.64h66.31a7.08,7.08,0,0,1,.28,2.14,2.15,2.15,0,0,1-2.14,2.14H749.6a5.13,5.13,0,0,1-5.05-4.28Z" transform="translate(-159.92 -310)"/><path class="cls-1" d="M774.18,946.82l3.6-3.87a.56.56,0,0,0,0-.76.53.53,0,0,0-.76,0l-3.6,3.87a.56.56,0,0,0,0,.76.52.52,0,0,0,.35.14.84.84,0,0,0,.41-.14Z" transform="translate(-159.92 -310)"/><path class="cls-1" d="M777,949l3.59-3.87a.53.53,0,0,0,0-.76.56.56,0,0,0-.76,0l-3.59,3.87a.53.53,0,0,0,0,.76.48.48,0,0,0,.34.14A.91.91,0,0,0,777,949Z" transform="translate(-159.92 -310)"/><path class="cls-1" d="M779.85,951.24l3.59-3.87a.53.53,0,0,0,0-.76.56.56,0,0,0-.76,0l-3.59,3.87a.53.53,0,0,0,0,.76.48.48,0,0,0,.34.14.6.6,0,0,0,.42-.14Z" transform="translate(-159.92 -310)"/><path class="cls-14" d="M710.57,792l-45.6-.07,2.63-60.67a122.64,122.64,0,0,0-.59-18.48h0c-1.33-12.45-1-23.78-.31-37.3L668,669l90.34,9.64,12.35,106.83-45.37,4.7L716,729Z" transform="translate(-159.92 -310)"/><g class="cls-15"><path class="cls-16" d="M717,730l-1,0,.5-44.88h4.93v27.24l-3,5.88-.9-.46,2.88-5.66v-26H717.5Z" transform="translate(-159.92 -310)"/></g><path class="cls-16" d="M673.15,792l2.26-42.6a158.73,158.73,0,0,0,0-18.25A245.5,245.5,0,0,1,677,685h0l-11-8v14c-.45,6.75.18,11.38.55,18.14a197,197,0,0,1,1,32.67L665,792Z" transform="translate(-159.92 -310)"/><g class="cls-15"><path class="cls-16" d="M758.09,701.87c-9.49-8.7-12.13-21-12.16-21.07l1-.2c0,.12,2.61,12,11.86,20.53Z" transform="translate(-159.92 -310)"/></g><path class="cls-16" d="M725.32,790.17l6.57-1L723,735.62c-1.14-8.14-7-5.62-7-5.62Z" transform="translate(-159.92 -310)"/><path class="cls-11" d="M652.84,604.56l1-9.52,8.32,30.63,3,59.94,26.75,1.81a170.47,170.47,0,0,0,68.28-8.92h0c-1.88-40.41-9-94.45-9-94.45L748.7,567.4l32-16-13-30.2-14.36,3.28c-6.66.84-22.57,3.88-22.57,3.88l-26.46,1.17L671.05,528l-35.5,12.69c-11.65,5.82-11.65,22.47-11.65,22.47l-3.17,38Z" transform="translate(-159.92 -310)"/><path class="cls-10" d="M653.46,708.5,650,651l-.15.07-1.13-17.91,2.12-28.6-28.1-3.28-.4,29.82a19.22,19.22,0,0,0,.46,6l4.29,25.08,13,50Z" transform="translate(-159.92 -310)"/><path class="cls-10" d="M815.09,518.26c-11.94-18.34-66.31-45.12-66.31-45.12L738,482l42.73,36.26-13,3,13,30.2L806.3,538.7C820.53,531.6,815.09,518.26,815.09,518.26Z" transform="translate(-159.92 -310)"/><path class="cls-14" d="M666.79,728.37l-33.13-8a.87.87,0,0,0-1,.64l-3.82,15.81a.88.88,0,0,0,.64,1l33.15,8a.87.87,0,0,0,1-.64l3.82-15.81A.87.87,0,0,0,666.79,728.37Z" transform="translate(-159.92 -310)"/><path class="cls-16" d="M666.79,728.37l-33.13-8a.87.87,0,0,0-1,.64l-3.82,15.81a.88.88,0,0,0,.64,1l33.15,8a.87.87,0,0,0,1-.64l3.82-15.81A.87.87,0,0,0,666.79,728.37Z" transform="translate(-159.92 -310)"/><path class="cls-14" d="M665.66,728.08l-33.14-8a.88.88,0,0,0-1,.64l-3.81,15.81a.88.88,0,0,0,.64,1.05l33.14,8a.87.87,0,0,0,1-.64l3.81-15.81A.86.86,0,0,0,665.66,728.08Z" transform="translate(-159.92 -310)"/><path class="cls-17" d="M663.41,731.2a1.17,1.17,0,0,0,.37-.75,1.2,1.2,0,0,0-.21-.82,1.14,1.14,0,0,0-.31-.27,1,1,0,0,0-.39-.11.94.94,0,0,0-.41,0,1.13,1.13,0,0,0-.35.21,1.17,1.17,0,0,0-.15,1.57.86.86,0,0,0,.31.26,1,1,0,0,0,.39.12,1.1,1.1,0,0,0,.4-.05.94.94,0,0,0,.35-.2Z" transform="translate(-159.92 -310)"/><path class="cls-18" d="M663.61,731.3a1.12,1.12,0,0,0,.38-.75,1.19,1.19,0,0,0-.22-.82.86.86,0,0,0-.31-.26.89.89,0,0,0-.39-.12.92.92,0,0,0-.4,0,.94.94,0,0,0-.35.2,1.17,1.17,0,0,0-.37.75,1.2,1.2,0,0,0,.21.82.86.86,0,0,0,.31.26.89.89,0,0,0,.39.12,1.1,1.1,0,0,0,.4,0,.94.94,0,0,0,.35-.2Z" transform="translate(-159.92 -310)"/><path class="cls-19" d="M663.4,731a.8.8,0,0,0,.23-.48.85.85,0,0,0-.14-.52.55.55,0,0,0-.21-.19.62.62,0,0,0-.27-.09.55.55,0,0,0-.28,0,.61.61,0,0,0-.24.15.8.8,0,0,0-.23.48.79.79,0,0,0,.14.52.55.55,0,0,0,.21.19.62.62,0,0,0,.27.09.67.67,0,0,0,.28,0,.78.78,0,0,0,.24-.16Z" transform="translate(-159.92 -310)"/><path class="cls-17" d="M663.4,730.43a.67.67,0,0,0-.13-.44.73.73,0,0,0-.39-.26H663a.75.75,0,0,1,.26,0,.86.86,0,0,1,.22.15.79.79,0,0,1,.14.23.76.76,0,0,1-.16.76.76.76,0,0,1-.47.24h-.14a.7.7,0,0,0,.41-.26.72.72,0,0,0,.14-.47Z" transform="translate(-159.92 -310)"/><path class="cls-17" d="M663.41,731.2a1.17,1.17,0,0,0,.37-.75,1.2,1.2,0,0,0-.21-.82,1.14,1.14,0,0,0-.31-.27,1,1,0,0,0-.39-.11.94.94,0,0,0-.41,0,1.13,1.13,0,0,0-.35.21,1.17,1.17,0,0,0-.15,1.57.86.86,0,0,0,.31.26,1,1,0,0,0,.39.12,1.1,1.1,0,0,0,.4-.05.94.94,0,0,0,.35-.2Z" transform="translate(-159.92 -310)"/><path class="cls-18" d="M663.61,731.3a1.12,1.12,0,0,0,.38-.75,1.19,1.19,0,0,0-.22-.82.86.86,0,0,0-.31-.26.89.89,0,0,0-.39-.12.92.92,0,0,0-.4,0,.94.94,0,0,0-.35.2,1.17,1.17,0,0,0-.37.75,1.2,1.2,0,0,0,.21.82.86.86,0,0,0,.31.26.89.89,0,0,0,.39.12,1.1,1.1,0,0,0,.4,0,.94.94,0,0,0,.35-.2Z" transform="translate(-159.92 -310)"/><path class="cls-19" d="M663.4,731a.8.8,0,0,0,.23-.48.85.85,0,0,0-.14-.52.55.55,0,0,0-.21-.19.62.62,0,0,0-.27-.09.55.55,0,0,0-.28,0,.61.61,0,0,0-.24.15.8.8,0,0,0-.23.48.79.79,0,0,0,.14.52.55.55,0,0,0,.21.19.62.62,0,0,0,.27.09.67.67,0,0,0,.28,0,.78.78,0,0,0,.24-.16Z" transform="translate(-159.92 -310)"/><path class="cls-17" d="M663.4,730.43a.67.67,0,0,0-.13-.44.73.73,0,0,0-.39-.26H663a.75.75,0,0,1,.26,0,.86.86,0,0,1,.22.15.79.79,0,0,1,.14.23.76.76,0,0,1-.16.76.76.76,0,0,1-.47.24h-.14a.7.7,0,0,0,.41-.26.72.72,0,0,0,.14-.47Z" transform="translate(-159.92 -310)"/><g class="cls-15"><path class="cls-16" d="M651.73,571.68a.4.4,0,0,1-.28-.08.41.41,0,0,1-.15-.25,34,34,0,0,0-14.77-22,.32.32,0,0,1-.12-.11.27.27,0,0,1-.07-.14.44.44,0,0,1,0-.16.52.52,0,0,1,.06-.16.53.53,0,0,1,.1-.12.37.37,0,0,1,.14-.07.49.49,0,0,1,.17,0,.44.44,0,0,1,.15,0,34.82,34.82,0,0,1,15.17,22.52.43.43,0,0,1,0,.16.47.47,0,0,1-.06.15l-.11.11-.15.06Z" transform="translate(-159.92 -310)"/></g><path class="cls-20" d="M665.19,685.61l13.66,1.11v-2l-5.66-55.14a34.52,34.52,0,0,0-3.1-11.13L655,577.8l-3.33-7.49.75,2.63c1.62,7.06,2.62,17.06,2,22.28l.52,2.82,7.32,27.63Z" transform="translate(-159.92 -310)"/><path class="cls-10" d="M737.55,466.1,734,464.41l-9.12-4.59-8.72-.05a.88.88,0,0,0-.56.36.9.9,0,0,0-.16.64c.08,1,.52,2.49,2.42,2.16l-6.35-.62a1.2,1.2,0,0,0-.67.15,1.22,1.22,0,0,0-.46.52l-.24.55c-.39.88,1.72,2.16,2.66,2.32l.5.09-5.61-.74a1.07,1.07,0,0,0-.39.14,1,1,0,0,0-.3.28,1,1,0,0,0-.16.38,1.13,1.13,0,0,0,0,.41,4.27,4.27,0,0,0,.67,1.82c.36.2-4-.16-5.67-.29a.48.48,0,0,0-.24,0,.46.46,0,0,0-.2.13.61.61,0,0,0-.13.22.64.64,0,0,0,0,.24c.17,1,1.13,3,5.66,3.71,6.32,1,8.89.38,8.89.38l4.79,2.21-.72,2.95-6.82-1.28-.36,3.89c.93.65,8.59,2.87,8.59,2.87s10.54,2,13.64,1.11,5.37-1.64,5.37-1.64l9.63-8.84Z" transform="translate(-159.92 -310)"/><path class="cls-21" d="M721.66,473.86s6-2.23,9.07-5.75" transform="translate(-159.92 -310)"/><path class="cls-21" d="M713.43,476.84l9.59,1.84s5-3.89,9.32-2.07" transform="translate(-159.92 -310)"/><path class="cls-21" d="M708,468.76s6.62,1,9.49-.31c0,0,1.09,2,4.66,2.5" transform="translate(-159.92 -310)"/><path class="cls-21" d="M713.31,465.9a39.52,39.52,0,0,0,6.88,0,9.33,9.33,0,0,0,5,3.11" transform="translate(-159.92 -310)"/><path class="cls-21" d="M717.09,463.07a15.28,15.28,0,0,0,6.1.06l3.9,2.7" transform="translate(-159.92 -310)"/><path class="cls-13" d="M721,460.06a59,59,0,0,1-1.32,12l-.45,2.08-3.39-1.56.06-12.42Z" transform="translate(-159.92 -310)"/><path class="cls-13" d="M720,478v5l-5.15-1.76.75-4.28Z" transform="translate(-159.92 -310)"/><path class="cls-13" d="M815,518.32c1.18,11.18-21.92,20.36-21.92,20.36l-15.39,5.76,3,7,25.57-12.76C820,531.87,815.4,519.29,815,518.32Z" transform="translate(-159.92 -310)"/><path class="cls-20" d="M780.73,551.44l-32,16-3.42-10.84,32.36-12.12Z" transform="translate(-159.92 -310)"/><g class="cls-15"><path class="cls-16" d="M748.78,567.81a.44.44,0,0,1-.25-.08.45.45,0,0,1-.15-.21c0-.16-4.59-15.41-6.22-18.67a.4.4,0,0,1,0-.32.41.41,0,0,1,.21-.24.42.42,0,0,1,.16,0,.26.26,0,0,1,.15,0,.47.47,0,0,1,.14.08.41.41,0,0,1,.1.13c1.67,3.32,6.09,18.17,6.27,18.8a.41.41,0,0,1-.28.52Z" transform="translate(-159.92 -310)"/></g><g class="cls-15"><path class="cls-16" d="M706.07,648.25a.38.38,0,0,1-.25-.09.48.48,0,0,1-.15-.22.43.43,0,0,1,0-.16.3.3,0,0,1,.05-.16.43.43,0,0,1,.11-.12.41.41,0,0,1,.15-.07c.17,0,17.37-4.82,25.44-19.67a.31.31,0,0,1,.1-.15.38.38,0,0,1,.15-.09.32.32,0,0,1,.17,0,.48.48,0,0,1,.17,0,.41.41,0,0,1,.14.12.46.46,0,0,1,.07.16.54.54,0,0,1,0,.18.46.46,0,0,1-.07.16c-8.25,15.17-25.78,20-26,20.07Z" transform="translate(-159.92 -310)"/></g><g class="cls-22"><path class="cls-13" d="M644.21,633.58c-.08,0-.16-.1-.19-.26a.53.53,0,0,1,0-.28.57.57,0,0,1,.12-.26c1.51-1.28,4.57-.08,4.7,0a.51.51,0,0,1,.17.49c0,.22-.13.37-.25.33s-3.07-1.21-4.46,0A.11.11,0,0,1,644.21,633.58Z" transform="translate(-159.92 -310)"/></g><path class="cls-10" d="M653.15,708.13l6.14,10.48,3.83,9-5.79-1.45S657,737,653.88,738.35c-.94.41-3.76-.65-3.47-2.93a3.88,3.88,0,0,1-1.45.86,3.82,3.82,0,0,1-1.68.14c-1.74-.36-2.16-1.49-2-3.65,0,0-.82,1.64-3.24.62-1.46-.62-1.09-2.82-1.09-2.82s-2.64.23-3-1.14a22.94,22.94,0,0,1-.14-6.77l1.58-7.58.59-4.9Z" transform="translate(-159.92 -310)"/><path class="cls-23" d="M641,730.61a22.29,22.29,0,0,0,.86-4.65" transform="translate(-159.92 -310)"/><path class="cls-23" d="M645.23,732.69a25.52,25.52,0,0,0,1.1-5.47" transform="translate(-159.92 -310)"/><path class="cls-23" d="M650.41,735.43a40.86,40.86,0,0,0,1.3-6.84" transform="translate(-159.92 -310)"/><path class="cls-13" d="M632.19,661l-5.5-26.4.24-32.67-4.19-.63-.4,29.82a19.22,19.22,0,0,0,.46,6l4.29,25.08,12.74,49.36L638,722l-.32,2.07.11,3.94c.11,2.81,1.23,2.43,1.23,2.43v-7.12L641.84,711Z" transform="translate(-159.92 -310)"/><path class="cls-20" d="M620.74,601.28l3.17-38s0-16.65,11.65-22.47l1.38-.43c-6.53,5.81-6.79,15.83-6.79,15.83L626.93,602Z" transform="translate(-159.92 -310)"/><path class="cls-10" d="M668.3,477.14l4.88,26.51-.88,24.63,13.83,5.2a51.28,51.28,0,0,0,14.21,3.12h.73a4.58,4.58,0,0,0,3.66-1.45,4.58,4.58,0,0,0,1.21-3.75L704,515.32l8-.25a5.61,5.61,0,0,0,.82,0c5.15-.29,8-1.18,8.08-9.57l-.57-10.07,2.88-1.9a.61.61,0,0,0,.16-.12,1.85,1.85,0,0,0,.29-2.55l-5.91-7.15-.15-.53.14-1.21a28.26,28.26,0,0,0-2.44-14.87l-2.12-4.54Z" transform="translate(-159.92 -310)"/><path d="M713.54,469l-11.81,2.31c-5.6,4,3.13,10.05-10.41,12.94-.25,1.55,1.76,7.63-.84,8-2,.49-2.2-2.23-2.49-3.58l-7.48,2.48c1.16,9.39-2.2,11.92-7.29,14-7.52-12.56-23.85-40.17-1.75-44.94,2.15.12,2.9-2.3,3.5-3.11,2-5.33,11.37-8.83,17.76-6.49a15.92,15.92,0,0,0,14.89,1.19C719.74,447.18,726.4,465.2,713.54,469Z" transform="translate(-159.92 -310)"/><path class="cls-10" d="M690.75,501.53l-2.59-12.39a4.93,4.93,0,0,0-2.15-3.2,4.83,4.83,0,0,0-1.82-.74,5,5,0,0,0-2,0,5.1,5.1,0,0,0-3.86,6l.51,2.45a10,10,0,0,0,11.88,7.83Z" transform="translate(-159.92 -310)"/><g class="cls-15"><path class="cls-24" d="M686.85,492.16l-.43-2.06a3.34,3.34,0,0,0-3.92-2.59,3.2,3.2,0,0,0-1.32.58,3.29,3.29,0,0,0-.94,1.09v.09a.73.73,0,0,0-.07.29.58.58,0,0,0,.05.29.67.67,0,0,0,.16.25.81.81,0,0,0,.24.17.74.74,0,0,0,.29.08.79.79,0,0,0,.55-.21.82.82,0,0,0,.16-.25,1.68,1.68,0,0,1,1.25-1h0a2,2,0,0,1,.74,0,1.85,1.85,0,0,1,.68.28,1.9,1.9,0,0,1,.82,1.2l.43,2.07a.76.76,0,0,0,.34.46.78.78,0,0,0,.56.13.55.55,0,0,0,.24-.12.56.56,0,0,0,.17-.21.6.6,0,0,0,.06-.27.58.58,0,0,0-.06-.26Z" transform="translate(-159.92 -310)"/></g><path class="cls-13" d="M705.09,522.16l-7.94-5.32a1.14,1.14,0,0,1-.35-.49,1.23,1.23,0,0,1-.08-.6,1.22,1.22,0,0,1,.44-.81,1.24,1.24,0,0,1,.89-.26l5.91.56Z" transform="translate(-159.92 -310)"/><path d="M703.88,515.51l-5.83-.83c-10.12-.33-9.89-25.54-9.89-25.54l3.51-1.44c.61,10.73,4.34,15.38,4.34,15.38,4.5,6.11,9,4.77,11.89,2.68,1.73-1.26,3.05-3.94,3.91-5.92,2.58-6,8.55-3.45,8.55-3.45l.51,9.1c0,8.39-2.93,9.28-8.08,9.57-.27,0-.55,0-.82,0" transform="translate(-159.92 -310)"/><path class="cls-13" d="M677.18,503.09l6.83-2.46a16.33,16.33,0,0,1-3.2-2.84,8.26,8.26,0,0,1-3.63,5.3Z" transform="translate(-159.92 -310)"/><path d="M714,487a2.12,2.12,0,1,0-2.24-1.73A2,2,0,0,0,714,487Z" transform="translate(-159.92 -310)"/><path class="cls-1" d="M714.47,484.13a.29.29,0,1,0-.28-.29A.29.29,0,0,0,714.47,484.13Z" transform="translate(-159.92 -310)"/><path class="cls-1" d="M720.76,501.92a16.17,16.17,0,0,0-4.8.54.39.39,0,0,1-.26,0,.35.35,0,0,1-.19-.17.31.31,0,0,1,0-.25.4.4,0,0,1,.12-.23,10.46,10.46,0,0,1,5.08-2.84Z" transform="translate(-159.92 -310)"/><path d="M716.58,477.59c-.11.43-2,.59-4.23,1.21s-3.9,1.43-4.26,1.13c-.16-.15.08-.59.74-1.11a8.57,8.57,0,0,1,3-1.47,9.68,9.68,0,0,1,3.43-.32C716.16,477.14,716.63,477.38,716.58,477.59Z" transform="translate(-159.92 -310)"/><path class="cls-25" d="M780.73,518.26S786,523,790,525" transform="translate(-159.92 -310)"/><path class="cls-26" d="M683.58,818.92s6.9-.13,9.66-2.53" transform="translate(-159.92 -310)"/><path class="cls-26" d="M762.08,818.66s6.29.13,7.61-1.27" transform="translate(-159.92 -310)"/><path class="cls-13" d="M667.3,943.81l4.61-5.78.24-111.64,1-34.39-5.36-.75C666.12,841.53,669.18,893.73,667.3,943.81Z" transform="translate(-159.92 -310)"/><g class="cls-15"><path class="cls-16" d="M670.22,707.91l-.3-1c11.72-3.63,14.64-18.79,14.66-18.94l1,.18C685.54,688.35,682.52,704.09,670.22,707.91Z" transform="translate(-159.92 -310)"/></g><path class="cls-18" d="M1097.37,952.89s-.85-23.87,12.36-31.12,110-11.08,110-11.08L1267,943.52l-2.5,25.31H1097.35Z" transform="translate(-159.92 -310)"/><path class="cls-27" d="M1030.14,968.83s-.18-1,14.67-16.85S1123,940.3,1129,941s13.44,27.89,13.44,27.89Z" transform="translate(-159.92 -310)"/><path class="cls-28" d="M592.84,850.94h6.7V738.38h-6.7Z" transform="translate(-159.92 -310)"/><path class="cls-28" d="M540.57,850.94h6.7V738.38h-6.7Z" transform="translate(-159.92 -310)"/><path class="cls-20" d="M592.84,738.39h6.7V750l-6.7-.73Zm-52.26,9.26,6.7.73v-10h-6.7Z" transform="translate(-159.92 -310)"/><path class="cls-14" d="M540.75,730h58.61a3.33,3.33,0,0,1,3.28,3.35V738a3.33,3.33,0,0,1-3.28,3.35h-10A17.76,17.76,0,0,1,580.3,739a22.24,22.24,0,0,0-20.49,0,17.91,17.91,0,0,1-9.11,2.26h-10a3.24,3.24,0,0,1-1.26-.27,3.28,3.28,0,0,1-1.07-.73,3.35,3.35,0,0,1-.7-1.08,3.26,3.26,0,0,1-.24-1.27v-4.6a3.42,3.42,0,0,1,.25-1.27,3.32,3.32,0,0,1,3.07-2Z" transform="translate(-159.92 -310)"/><path class="cls-11" d="M530.29,956.94h76.4a5.58,5.58,0,0,0,5.58-5.58V813.48a5.58,5.58,0,0,0-5.58-5.58h-76.4a5.58,5.58,0,0,0-5.58,5.58V951.36A5.58,5.58,0,0,0,530.29,956.94Z" transform="translate(-159.92 -310)"/><path class="cls-20" d="M530.29,956.94h76.4a5.58,5.58,0,0,0,5.58-5.58V813.48a5.58,5.58,0,0,0-5.58-5.58h-76.4a5.58,5.58,0,0,0-5.58,5.58V951.36A5.58,5.58,0,0,0,530.29,956.94Z" transform="translate(-159.92 -310)"/><path class="cls-29" d="M598.1,807.9v149" transform="translate(-159.92 -310)"/><path class="cls-11" d="M499.17,956.94h76.4a5.58,5.58,0,0,0,5.58-5.58V813.48a5.58,5.58,0,0,0-5.58-5.58h-76.4a5.58,5.58,0,0,0-5.58,5.58V951.36A5.58,5.58,0,0,0,499.17,956.94Z" transform="translate(-159.92 -310)"/><path class="cls-14" d="M597.8,807.9h-1.42v149h1.42Z" transform="translate(-159.92 -310)"/><path class="cls-1" d="M591.36,853h11.45v-5.11H591.36Z" transform="translate(-159.92 -310)"/><path class="cls-1" d="M591.36,917h11.45v-5.11H591.36Z" transform="translate(-159.92 -310)"/><g class="cls-15"><path class="cls-16" d="M565.54,945.16a2.84,2.84,0,0,0,2-.85,2.88,2.88,0,0,0,.85-2V824.11a2.82,2.82,0,0,0-.22-1.11,2.86,2.86,0,0,0-1.56-1.57,3,3,0,0,0-1.11-.22h0a2.89,2.89,0,0,0-2,.85,2.93,2.93,0,0,0-.84,2.05V942.27a2.9,2.9,0,0,0,2.89,2.89Z" transform="translate(-159.92 -310)"/><path class="cls-16" d="M546.76,945.16a2.84,2.84,0,0,0,2-.85,2.88,2.88,0,0,0,.85-2V824.11a2.93,2.93,0,0,0-.84-2.05,2.89,2.89,0,0,0-2-.85h0a2.89,2.89,0,0,0-2,.85,2.93,2.93,0,0,0-.84,2.05V942.27a2.9,2.9,0,0,0,2.89,2.89Z" transform="translate(-159.92 -310)"/><path class="cls-16" d="M528,945.16a2.9,2.9,0,0,0,2.89-2.89V824.11a2.93,2.93,0,0,0-.84-2.05,2.89,2.89,0,0,0-2-.85h0a2.89,2.89,0,0,0-2,.85,2.93,2.93,0,0,0-.84,2.05V942.27a2.9,2.9,0,0,0,2.89,2.89Z" transform="translate(-159.92 -310)"/><path class="cls-16" d="M509.2,945.16a2.85,2.85,0,0,0,1.11-.22,2.69,2.69,0,0,0,.93-.63,2.84,2.84,0,0,0,.85-2V824.11a2.93,2.93,0,0,0-.84-2.05,2.89,2.89,0,0,0-2.05-.85h0a2.89,2.89,0,0,0-2.05.85,2.93,2.93,0,0,0-.84,2.05V942.27a2.9,2.9,0,0,0,2.89,2.89Z" transform="translate(-159.92 -310)"/></g><path class="cls-18" d="M534,969.48a6,6,0,1,0-5.95-6A5.95,5.95,0,0,0,534,969.48Z" transform="translate(-159.92 -310)"/><path class="cls-18" d="M498.72,963.53a5.93,5.93,0,0,0,7.11,5.83,5.81,5.81,0,0,0,3.05-1.63,6,6,0,1,0-10.16-4.2Z" transform="translate(-159.92 -310)"/><path class="cls-14" d="M504.67,960.59h96.25V956.7H504.67Z" transform="translate(-159.92 -310)"/><path class="cls-18" d="M594.91,963.53a5.95,5.95,0,0,0,3.66,5.49,5.95,5.95,0,0,0,7.8-7.73,6,6,0,0,0-5.46-3.71,5.8,5.8,0,0,0-2.29.44,6,6,0,0,0-3.71,5.51Z" transform="translate(-159.92 -310)"/><path class="cls-18" d="M571.49,969.48a6,6,0,1,0-6-6A5.95,5.95,0,0,0,571.49,969.48Z" transform="translate(-159.92 -310)"/><path class="cls-27" d="M571.49,965.84a2.31,2.31,0,1,0-2.31-2.31A2.3,2.3,0,0,0,571.49,965.84Z" transform="translate(-159.92 -310)"/><path class="cls-27" d="M598.55,963.53a2.3,2.3,0,0,0,3.94,1.63,2.31,2.31,0,0,0,.5-2.51,2.23,2.23,0,0,0-.85-1,2.32,2.32,0,0,0-1.28-.39,2.32,2.32,0,0,0-2.31,2.31Z" transform="translate(-159.92 -310)"/><path class="cls-28" d="M939.49,463H923V969.05h16.48Z" transform="translate(-159.92 -310)"/><path class="cls-20" d="M923,535.8l16.49-21.21V463H923Z" transform="translate(-159.92 -310)"/><path class="cls-11" d="M1055.51,363H817V472.75h238.5Z" transform="translate(-159.92 -310)"/><path class="cls-20" d="M1055.51,363H817V472.75h238.5Z" transform="translate(-159.92 -310)"/><path class="cls-11" d="M1050.5,363H817.72V466.08H1050.5Z" transform="translate(-159.92 -310)"/><path class="cls-1" d="M893.94,434.63h-7.66v13.18H873.15V434.63H846v-9.35l27.88-41.06h12.39v40h7.66ZM873.15,424.2V413.41q0-2.7.22-7.83c.14-3.42.26-5.41.34-6h-.34a48.72,48.72,0,0,1-3.88,7L857.84,424.2Z" transform="translate(-159.92 -310)"/><path class="cls-1" d="M951.91,416q0,16.65-5.46,24.66t-16.81,8q-11,0-16.59-8.26T907.46,416q0-16.83,5.43-24.81t16.75-8q11,0,16.64,8.36T951.91,416Zm-31.1,0q0,11.7,2,16.77t6.81,5.06q4.7,0,6.78-5.13t2.09-16.7q0-11.7-2.11-16.81c-1.4-3.41-3.66-5.11-6.76-5.11s-5.42,1.7-6.79,5.11S920.81,408.22,920.81,416Z" transform="translate(-159.92 -310)"/><path class="cls-1" d="M1013.44,434.63h-7.65v13.18H992.65V434.63H965.51v-9.35l27.88-41.06h12.4v40h7.65ZM992.65,424.2V413.41q0-2.7.22-7.83c.15-3.42.26-5.41.35-6h-.35a47.71,47.71,0,0,1-3.87,7L977.34,424.2Z" transform="translate(-159.92 -310)"/><path class="cls-14" d="M995,354.18l3.36,7.51a.77.77,0,0,0,.18.18.54.54,0,0,0,.25.06h4.56c1.59,0,3.57-.34,3.74,1.92a.5.5,0,0,0,1,0c-.3-4-5.3-2.9-8.06-2.9h-1c-.53,0,.27.46.09.05L998,358.48q-1.08-2.4-2.15-4.8C995.59,353.11,994.74,353.61,995,354.18Z" transform="translate(-159.92 -310)"/><path class="cls-14" d="M998.82,361c-2.58,0-6.79-.82-7,2.9a.5.5,0,0,0,1,0c.07-1.41,1-1.92,2.24-1.92h3.74a.5.5,0,0,0,0-1" transform="translate(-159.92 -310)"/><path class="cls-30" d="M969.73,341.48s17.79-16.27,23.72-22.81,13.54-10.19,21-8.06,12.31,10.34,9.73,20.68-14.54,25.54-30.72,24.78S972,344.52,969.73,341.48Z" transform="translate(-159.92 -310)"/><path class="cls-31" d="M969.73,341.48s17.79-16.27,23.72-22.81,13.54-10.19,21-8.06,12.31,10.34,9.73,20.68-14.54,25.54-30.72,24.78S972,344.52,969.73,341.48Z" transform="translate(-159.92 -310)"/><path class="cls-30" d="M975.2,348.56a8.5,8.5,0,0,0,7.81,1.06s-2.35,2.6,1.82,3.12,12.76-2.87,12.76-2.87-2,3.11,1.08,2.93,9.53-3.75,14.83-9.18,12.79-14.13,8.08-24.37c-3.78-8.21-15.78-13.55-32.89,5.61Z" transform="translate(-159.92 -310)"/><path class="cls-11" d="M1014.44,310.61c-7.45-2.13-15.06,1.52-21,8.06-2.11,2.33-5.74,5.9-9.52,9.53l4.08,4.1,7.56-5.69s0-6.07,5-6.57c7.32-.72,6.22,14.32,24.24,6.45.26-8-4.17-14.1-10.42-15.88" transform="translate(-159.92 -310)"/><path class="cls-20" d="M1014.44,310.61c-7.45-2.13-15.06,1.52-21,8.06-2.11,2.33-5.74,5.9-9.52,9.53l4.08,4.1,7.56-5.69s0-6.07,5-6.57c7.32-.72,6.22,14.32,24.24,6.45.26-8-4.17-14.1-10.42-15.88" transform="translate(-159.92 -310)"/><path d="M1017.48,323.08a2.44,2.44,0,0,1-.41,1.36,2.49,2.49,0,0,1-1.1.9,2.44,2.44,0,0,1-3.32-1.79,2.43,2.43,0,0,1,1-2.5,2.44,2.44,0,0,1,1.36-.41,2.28,2.28,0,0,1,.93.19,2.46,2.46,0,0,1,1.32,1.32A2.44,2.44,0,0,1,1017.48,323.08Z" transform="translate(-159.92 -310)"/><path class="cls-18" d="M1024.32,321.25s5.06,2.51,5.17,3.54-4.89,4.35-4.89,4.35-2.26-4.81-.28-7.89" transform="translate(-159.92 -310)"/><path class="cls-14" d="M992.72,355l3.36,7.5a.39.39,0,0,0,.18.18.45.45,0,0,0,.25.07h4.56c1.6,0,3.57-.34,3.74,1.92a.5.5,0,0,0,1,0c-.3-4-5.3-2.91-8-2.91h-1c-.54,0,.26.46.08.06l-1.13-2.52-2.15-4.8c-.26-.58-1.11-.08-.85.5" transform="translate(-159.92 -310)"/><path class="cls-14" d="M996.51,361.72c-2.58,0-6.78-.82-7,2.91a.5.5,0,0,0,1,0c.07-1.41,1-1.92,2.24-1.92h3.74a.5.5,0,0,0,0-1" transform="translate(-159.92 -310)"/><path class="cls-11" d="M960,346.49s21.07-17.84,26.43-20.7,14.09-2.09,16.3,5.5c2.43,8.36-5.9,23.26-29.41,15.2l-7.09,11.11Z" transform="translate(-159.92 -310)"/><path class="cls-32" d="M974.59,341s1.2,2,7.36-2.88c0,0-2.62,3.46-.49,4s7.86-3.54,7.86-3.54-2.92,2.9-.47,3.74,6.5-2.73,7.42-4.84,2.93-7.06-1.07-9.28-10.89.39-15.65,4.21-6.11,6.32-5,8.59" transform="translate(-159.92 -310)"/><path class="cls-1" d="M1016.23,322.89a.57.57,0,0,1-.08.29.55.55,0,0,1-.23.2.52.52,0,0,1-.3,0,.5.5,0,0,1-.27-.14.46.46,0,0,1-.15-.26.54.54,0,0,1,0-.31.53.53,0,0,1,.48-.32.48.48,0,0,1,.36.15.52.52,0,0,1,.16.36" transform="translate(-159.92 -310)"/><path class="cls-14" d="M1086.5,930.17c-1,2.56-1.93,5.13-2.9,7.7a.52.52,0,0,1-.17.19.49.49,0,0,1-.24.08l-4.55.28c-1.59.1-3.59-.12-3.62,2.15,0,.63-1,.7-1,.06,0-4,5.1-3.23,7.86-3.4l1-.06c.54,0-.23.47-.08.06l1-2.59q.92-2.46,1.85-4.92c.22-.59,1.1-.14.88.45" transform="translate(-159.92 -310)"/><path class="cls-14" d="M1083.13,937.15c2.57-.16,6.72-1.23,7.13,2.47.07.64-.91.69-1,.06-.16-1.4-1.12-1.85-2.36-1.77l-3.73.23a.52.52,0,0,1-.36-.12.53.53,0,0,1-.17-.35.52.52,0,0,1,.12-.36.53.53,0,0,1,.35-.17" transform="translate(-159.92 -310)"/><path class="cls-30" d="M1111,915.92s-18.77-15.14-25.09-21.3-14.14-9.33-21.44-6.74-11.7,11.12-8.47,21.24,16.1,24.59,32.19,22.84,20.69-12.86,22.78-16" transform="translate(-159.92 -310)"/><path class="cls-31" d="M1111,915.92s-18.77-15.14-25.09-21.3-14.14-9.33-21.44-6.74-11.7,11.12-8.47,21.24,16.1,24.59,32.19,22.84,20.69-12.86,22.78-16" transform="translate(-159.92 -310)"/><path class="cls-30" d="M1105.93,923.33a8.43,8.43,0,0,1-3.67,1.71,8.54,8.54,0,0,1-4-.17s2.5,2.45-1.63,3.23-12.91-2.07-12.91-2.07,2.22,3-.89,3-9.75-3.14-15.38-8.24-13.64-13.31-9.57-23.82c3.27-8.43,14.91-14.51,33.18,3.56Z" transform="translate(-159.92 -310)"/><path class="cls-11" d="M1064.43,887.88c7.3-2.59,15.11.59,21.44,6.74,2.25,2.2,6.09,5.54,10.1,8.93l-3.83,4.34-7.9-5.21s-.35-6-5.44-6.24c-7.35-.27-5.33,14.67-23.79,7.93-.76-8,3.28-14.32,9.42-16.49" transform="translate(-159.92 -310)"/><path class="cls-20" d="M1064.43,887.88c7.3-2.59,15.11.59,21.44,6.74,2.25,2.2,6.09,5.54,10.1,8.93l-3.83,4.34-7.9-5.21s-.35-6-5.44-6.24c-7.35-.27-5.33,14.67-23.79,7.93-.76-8,3.28-14.32,9.42-16.49" transform="translate(-159.92 -310)"/><path d="M1062.16,900.51a2.42,2.42,0,0,0,.49,1.32,2.42,2.42,0,0,0,4.34-1.15,2.41,2.41,0,0,0-1.18-2.42,2.43,2.43,0,0,0-1.37-.33,2.46,2.46,0,0,0-1.67.82,2.42,2.42,0,0,0-.61,1.76" transform="translate(-159.92 -310)"/><path class="cls-18" d="M1055.22,899.11s-4.89,2.82-4.94,3.85,5.15,4,5.15,4,2-5-.21-7.9" transform="translate(-159.92 -310)"/><path class="cls-14" d="M1088.85,930.8l-2.9,7.7a.39.39,0,0,1-.17.19.41.41,0,0,1-.24.08l-4.54.28c-1.6.1-3.59-.11-3.63,2.15,0,.63-1,.7-1,.06.06-4,5.11-3.23,7.86-3.4l1-.06c.53,0-.24.48-.08.06l1-2.58,1.85-4.92c.22-.6,1.1-.15.88.44" transform="translate(-159.92 -310)"/><path class="cls-14" d="M1085.48,937.78c2.58-.16,6.72-1.23,7.13,2.48.07.63-.91.69-1,.06-.16-1.41-1.12-1.86-2.36-1.78l-3.73.23a.52.52,0,0,1-.36-.12.53.53,0,0,1-.17-.35.51.51,0,0,1,.47-.53" transform="translate(-159.92 -310)"/><path class="cls-11" d="M1121,920.33s-22.14-16.51-27.66-19-14.19-1.21-15.93,6.5c-1.91,8.5,7.33,22.86,30.29,13.36l7.76,10.64Z" transform="translate(-159.92 -310)"/><path class="cls-32" d="M1106.08,915.76s-1.07,2.1-7.53-2.42c0,0,2.83,3.29.74,4s-8.07-3-8.07-3,3.1,2.71.7,3.7-6.65-2.32-7.7-4.38-3.36-6.86.5-9.32,10.89-.29,15.87,3.23,6.5,5.93,5.49,8.27" transform="translate(-159.92 -310)"/><path class="cls-1" d="M1063.4,900.25a.52.52,0,0,0,.2.26.48.48,0,0,0,.32.09.51.51,0,0,0,.31-.13.46.46,0,0,0,.17-.28.49.49,0,0,0,0-.24.61.61,0,0,0-.11-.21.56.56,0,0,0-.2-.14.59.59,0,0,0-.23,0,.62.62,0,0,0-.23.07.44.44,0,0,0-.17.16.58.58,0,0,0-.08.22.49.49,0,0,0,0,.24" transform="translate(-159.92 -310)"/><path class="cls-11" d="M905.05,927.51c-4.16-5-8.89-9.9-12.51-15.27-.8-1.19-4.95-8.81-1.52-7.88s6.45,6.69,7.9,9.49,3,5.59,4.33,8.45a23,23,0,0,1,1.69,3.83c0,.17.4,1.71.11,1.38C901.92,923.78,905.57,928.12,905.05,927.51Z" transform="translate(-159.92 -310)"/><path class="cls-11" d="M921.82,969a21.5,21.5,0,0,0-.8-5.23,31.84,31.84,0,0,0-4.67-9.65c-4.36-6.26-10.43-12.16-17.67-14.85a22.41,22.41,0,0,0-5.21-1.33c-.84-.09-3.44-.49-4.09.25s.17.58.81.85a26.69,26.69,0,0,1,3.68,2c11,6.76,24,14.66,26.91,28Z" transform="translate(-159.92 -310)"/><path class="cls-20" d="M921.82,969a21.5,21.5,0,0,0-.8-5.23,31.84,31.84,0,0,0-4.67-9.65c-4.36-6.26-10.43-12.16-17.67-14.85a22.41,22.41,0,0,0-5.21-1.33c-.84-.09-3.44-.49-4.09.25s.17.58.81.85a26.69,26.69,0,0,1,3.68,2c11,6.76,24,14.66,26.91,28Z" transform="translate(-159.92 -310)"/><path class="cls-11" d="M924.22,969c-.63-10.23-3.67-20.08-7-29.71-1.51-4.38-3-8.82-4.88-13.07-2.27-5.14-5.05-10.13-7.77-15-1.29-2.32-2.62-4.61-4.06-6.84-.65-1-1.32-2-2-3-.28-.37-1.62-1.62-1.63-2.06,0-.65.61-.11,1,.11a21.24,21.24,0,0,1,2.59,1.93,41.23,41.23,0,0,1,5.36,5.69,59.74,59.74,0,0,1,8.45,14.3,157.31,157.31,0,0,1,5.07,15.58,149.12,149.12,0,0,1,4.36,18.55,83.28,83.28,0,0,1,.94,8.48c.06,1.2.08,2.4.07,3.6a4.69,4.69,0,0,1,0,1.35C924.61,968.9,924.26,969.62,924.22,969Z" transform="translate(-159.92 -310)"/><path class="cls-20" d="M924.22,969c-.63-10.23-3.67-20.08-7-29.71-1.51-4.38-3-8.82-4.88-13.07-2.27-5.14-5.05-10.13-7.77-15-1.29-2.32-2.62-4.61-4.06-6.84-.65-1-1.32-2-2-3-.28-.37-1.62-1.62-1.63-2.06,0-.65.61-.11,1,.11a21.24,21.24,0,0,1,2.59,1.93,41.23,41.23,0,0,1,5.36,5.69,59.74,59.74,0,0,1,8.45,14.3,157.31,157.31,0,0,1,5.07,15.58,149.12,149.12,0,0,1,4.36,18.55,83.28,83.28,0,0,1,.94,8.48c.06,1.2.08,2.4.07,3.6a4.69,4.69,0,0,1,0,1.35C924.61,968.9,924.26,969.62,924.22,969Z" transform="translate(-159.92 -310)"/><path class="cls-11" d="M923.88,969h.84c0-.56-.11-1.15-.13-1.59a59.14,59.14,0,0,0-.77-7.39,58.35,58.35,0,0,0-4.75-15.43c-4.27-9-10.57-17.17-19.44-21.9-.84-.44-10.7-4.81-11-3.48-.17.64,3.24,2.5,3.78,2.89,1.75,1.27,3.48,2.59,5.16,4,7.39,6,14.49,12.62,19.15,21a67,67,0,0,1,7.16,21.9Z" transform="translate(-159.92 -310)"/><path class="cls-11" d="M928.53,969h.4v-1.93c0-1.81,0-3.62-.08-5.43-.1-4.07-.3-8.15-.68-12.2-.68-7.47-1.48-14.92-4.07-22a48.89,48.89,0,0,0-2-4.79c-.14-.27-1.17-2.64-1.49-2.17-.11.17.14,1.06.17,1.26.11.68.23,1.36.34,2,.28,1.65.57,3.29.88,4.93,1.37,7.35,3.17,14.61,4.31,22C927.23,956.78,927.92,962.88,928.53,969Z" transform="translate(-159.92 -310)"/><path class="cls-32" d="M928.53,969h.4v-1.93c0-1.81,0-3.62-.08-5.43-.1-4.07-.3-8.15-.68-12.2-.68-7.47-1.48-14.92-4.07-22a48.89,48.89,0,0,0-2-4.79c-.14-.27-1.17-2.64-1.49-2.17-.11.17.14,1.06.17,1.26.11.68.23,1.36.34,2,.28,1.65.57,3.29.88,4.93,1.37,7.35,3.17,14.61,4.31,22C927.23,956.78,927.92,962.88,928.53,969Z" transform="translate(-159.92 -310)"/><path class="cls-11" d="M934.94,947.92a41.21,41.21,0,0,1,.46-12.78,39.33,39.33,0,0,1,1.8-7.32,31.61,31.61,0,0,1,3.47-6.29c.54-.8,1.08-1.6,1.6-2.41.15-.24,1-2,1.21-2,.91-.1-.13,4-.31,4.63a32.25,32.25,0,0,1-2.93,6.44,29.73,29.73,0,0,0-2.77,6.91,73,73,0,0,0-1.76,7.61c-.19,1.15-.34,2.3-.42,3.46a6.27,6.27,0,0,1,0,1.37C935.31,947.35,935,948.63,934.94,947.92Z" transform="translate(-159.92 -310)"/><path class="cls-20" d="M934.94,947.92a41.21,41.21,0,0,1,.46-12.78,39.33,39.33,0,0,1,1.8-7.32,31.61,31.61,0,0,1,3.47-6.29c.54-.8,1.08-1.6,1.6-2.41.15-.24,1-2,1.21-2,.91-.1-.13,4-.31,4.63a32.25,32.25,0,0,1-2.93,6.44,29.73,29.73,0,0,0-2.77,6.91,73,73,0,0,0-1.76,7.61c-.19,1.15-.34,2.3-.42,3.46a6.27,6.27,0,0,1,0,1.37C935.31,947.35,935,948.63,934.94,947.92Z" transform="translate(-159.92 -310)"/><path class="cls-11" d="M932.53,914c.19,1.91.33,3.83.48,5.75.66,8.61,1,17.25.9,25.87-.1,7-.3,16.09-.09,23.41h.67v-3.49c.12-2.14.2-5.08.36-7.21.38-4.82.84-9.62,1.17-14.44.57-8.36,1.08-16.75-.73-25a44,44,0,0,0-1.51-5.42c-.3-.86-.64-1.7-1-2.53-.09-.2-.36-1.18-.65-.85s.06,1.09.09,1.34C932.34,912.26,932.45,913.11,932.53,914Z" transform="translate(-159.92 -310)"/><path class="cls-11" d="M939.28,970c.46-4,1-9.26,1.37-11.09,1.05-5.32,2.26-10.6,3.68-15.83,2.28-8.39,5.79-16.52,9.36-24.43.93-2.06,1.86-4.13,2.84-6.17.26-.52,2-3.39,1-3.34-.5,0-1.73,1.46-2.13,1.83a29.2,29.2,0,0,0-2.33,2.39,39.59,39.59,0,0,0-3.91,5.12c-4.92,7.65-6.86,16.5-8.52,25.32a232.65,232.65,0,0,0-2.87,26.2Z" transform="translate(-159.92 -310)"/><path class="cls-11" d="M980,902.52c-1-.08-2.73.85-3.6,1.21a37.59,37.59,0,0,0-3.52,1.65,44.15,44.15,0,0,0-6.23,4.07c-9.6,7.44-15.2,18.44-19.81,29.42-3.58,8.53-7.78,21-8,31.13h1.07v-1.16a31.76,31.76,0,0,1,.54-3.88,64.08,64.08,0,0,1,2.6-9.22,149.22,149.22,0,0,1,8.07-18.15,105.05,105.05,0,0,1,21.38-28A79.92,79.92,0,0,1,979,904C979.75,903.52,981.51,902.64,980,902.52Z" transform="translate(-159.92 -310)"/><path class="cls-32" d="M980,902.52c-1-.08-2.73.85-3.6,1.21a37.59,37.59,0,0,0-3.52,1.65,44.15,44.15,0,0,0-6.23,4.07c-9.6,7.44-15.2,18.44-19.81,29.42-3.58,8.53-7.78,21-8,31.13h1.07v-1.16a31.76,31.76,0,0,1,.54-3.88,64.08,64.08,0,0,1,2.6-9.22,149.22,149.22,0,0,1,8.07-18.15,105.05,105.05,0,0,1,21.38-28A79.92,79.92,0,0,1,979,904C979.75,903.52,981.51,902.64,980,902.52Z" transform="translate(-159.92 -310)"/><path class="cls-11" d="M980.27,932.24c-.63-.84-4.4-.41-5.28-.33a22.69,22.69,0,0,0-4.68,1c-8.47,2.69-14.83,9.4-20.21,16.19-4.28,5.4-8.91,13.61-10.81,20.91h1.29a25.93,25.93,0,0,1,.78-2.74,40.23,40.23,0,0,1,3.35-6.11,70.86,70.86,0,0,1,9-11,82.94,82.94,0,0,1,20.12-14.77,36.21,36.21,0,0,1,4.86-2.14C979.13,933.09,980.77,932.92,980.27,932.24Z" transform="translate(-159.92 -310)"/><path class="cls-20" d="M980.27,932.24c-.63-.84-4.4-.41-5.28-.33a22.69,22.69,0,0,0-4.68,1c-8.47,2.69-14.83,9.4-20.21,16.19-4.28,5.4-8.91,13.61-10.81,20.91h1.29a25.93,25.93,0,0,1,.78-2.74,40.23,40.23,0,0,1,3.35-6.11,70.86,70.86,0,0,1,9-11,82.94,82.94,0,0,1,20.12-14.77,36.21,36.21,0,0,1,4.86-2.14C979.13,933.09,980.77,932.92,980.27,932.24Z" transform="translate(-159.92 -310)"/><path class="cls-11" d="M1202.42,971s-9-2.92-9.93-19.63c-.76-13.33-10.68-8.63-17.88-18.25-8.21-11-1-15.85-6.46-28.4-3.37-7.75-13.44-3.42-14.33-21.43s-2.79-21.67-6.59-29c0,0,10.6,12.85,19,17.82,7.81,4.65,9.3,3.16,14.24,6.63,5.91,4.14,2,11.1,8,15.65s11.61,2.74,15.94,8.74c7.56,10.45,2.37,18,8.21,24.85s16.19,6.77,23.65,18.9a34,34,0,0,1,4.45,24.15Z" transform="translate(-159.92 -310)"/><path class="cls-33" d="M1224,971l-53.32-77.23" transform="translate(-159.92 -310)"/><path class="cls-33" d="M1181.76,920.69l15.61,11.7" transform="translate(-159.92 -310)"/><path class="cls-33" d="M1182.39,898.81l1.94,14.7" transform="translate(-159.92 -310)"/><path class="cls-33" d="M1213.83,941.27l2.68,18.84" transform="translate(-159.92 -310)"/><path class="cls-11" d="M1226.79,971s-11.39-27.34-10.28-45.86,6.7-22.9,3.71-36.44-14-16.91-9.38-34.44,11.3-20.3,10-58c0,0,4.77,27.28,17.19,43.15,10.61,13.56,14.93,17.14,11,41.94-3.59,22.84,2.42,26.17,8.59,35.5s9.86,33.58,2,54.1Z" transform="translate(-159.92 -310)"/><path class="cls-34" d="M1226.79,971s-11.39-27.34-10.28-45.86,6.7-22.9,3.71-36.44-14-16.91-9.38-34.44,11.3-20.3,10-58c0,0,4.77,27.28,17.19,43.15,10.61,13.56,14.93,17.14,11,41.94-3.59,22.84,2.42,26.17,8.59,35.5s9.86,33.58,2,54.1Z" transform="translate(-159.92 -310)"/><path class="cls-33" d="M1225.76,834.81s8,18.33,7.8,48.84c-.16,29,3.56,65,13.18,87.35" transform="translate(-159.92 -310)"/><path class="cls-33" d="M1218,856s9.74,8.55,15.38,18.74" transform="translate(-159.92 -310)"/><path class="cls-33" d="M1239.75,874.75s.14,9.61-5.92,24.4" transform="translate(-159.92 -310)"/><path class="cls-33" d="M1224,915.85a27.68,27.68,0,0,0,12.89,17" transform="translate(-159.92 -310)"/><path class="cls-11" d="M1262.12,892.42s-4.4-10.6,8-31.81,24.36-27.46,29-24.75C1305.64,839.62,1292.83,884.86,1262.12,892.42Z" transform="translate(-159.92 -310)"/><path class="cls-33" d="M1255.5,913.86c4.24-14.09,6.66-27.91,19.77-43.55" transform="translate(-159.92 -310)"/><path class="cls-11" d="M1275.89,952.92s-6.44-9.61-1.91-36.1,12.22-37.33,18-36.05C1298.22,882.17,1301.78,933.4,1275.89,952.92Z" transform="translate(-159.92 -310)"/><path class="cls-33" d="M1268.4,971s11.63-19.77,12.68-49.42" transform="translate(-159.92 -310)"/><path class="cls-18" d="M469.34,959.66s.56-15.86-8.22-20.68S388,931.62,388,931.62l-31.4,21.81,1.66,16.82H469.35Z" transform="translate(-159.92 -310)"/><path class="cls-11" d="M434.27,968c.28-2.35.6-5.49.81-6.57.63-3.15,1.35-6.29,2.19-9.39a98.65,98.65,0,0,1,5.54-14.48c.55-1.22,1.1-2.44,1.69-3.65.15-.31,1.17-2,.6-2-.3,0-1,.86-1.26,1.08a18.5,18.5,0,0,0-1.38,1.42,22.44,22.44,0,0,0-2.32,3c-2.91,4.54-4.07,9.78-5.05,15a137.3,137.3,0,0,0-1.7,15.53Z" transform="translate(-159.92 -310)"/><path class="cls-11" d="M458.42,928a6.39,6.39,0,0,0-2.13.72c-.71.3-1.41.63-2.09,1a25.7,25.7,0,0,0-3.69,2.41c-5.69,4.41-9,10.93-11.74,17.44-2.13,5-4.62,12.43-4.77,18.43h.63v-.69A17.92,17.92,0,0,1,435,965a38.15,38.15,0,0,1,1.54-5.46,88.3,88.3,0,0,1,4.78-10.76A62.37,62.37,0,0,1,454,932.22c1.24-1.17,2.54-2.26,3.88-3.3C458.26,928.59,459.3,928.07,458.42,928Z" transform="translate(-159.92 -310)"/><path class="cls-32" d="M458.42,928a6.39,6.39,0,0,0-2.13.72c-.71.3-1.41.63-2.09,1a25.7,25.7,0,0,0-3.69,2.41c-5.69,4.41-9,10.93-11.74,17.44-2.13,5-4.62,12.43-4.77,18.43h.63v-.69A17.92,17.92,0,0,1,435,965a38.15,38.15,0,0,1,1.54-5.46,88.3,88.3,0,0,1,4.78-10.76A62.37,62.37,0,0,1,454,932.22c1.24-1.17,2.54-2.26,3.88-3.3C458.26,928.59,459.3,928.07,458.42,928Z" transform="translate(-159.92 -310)"/><path class="cls-11" d="M458.57,945.62c-.37-.5-2.61-.25-3.13-.2a13.11,13.11,0,0,0-2.78.59c-5,1.59-8.79,5.57-12,9.6A36.7,36.7,0,0,0,434.28,968H435a15,15,0,0,1,.46-1.62,23.72,23.72,0,0,1,2-3.63,42,42,0,0,1,5.31-6.5,48.9,48.9,0,0,1,11.93-8.76,23.1,23.1,0,0,1,2.88-1.27C457.89,946.12,458.86,946,458.57,945.62Z" transform="translate(-159.92 -310)"/><path class="cls-20" d="M458.57,945.62c-.37-.5-2.61-.25-3.13-.2a13.11,13.11,0,0,0-2.78.59c-5,1.59-8.79,5.57-12,9.6A36.7,36.7,0,0,0,434.28,968H435a15,15,0,0,1,.46-1.62,23.72,23.72,0,0,1,2-3.63,42,42,0,0,1,5.31-6.5,48.9,48.9,0,0,1,11.93-8.76,23.1,23.1,0,0,1,2.88-1.27C457.89,946.12,458.86,946,458.57,945.62Z" transform="translate(-159.92 -310)"/><path class="cls-11" d="M404,941.18s10.59-5.21,18.92-25.38c6.87-16.61,4.82-26.41,1.15-27.87C418.94,885.91,394.44,920.09,404,941.18Z" transform="translate(-159.92 -310)"/><path class="cls-13" d="M404,941.18s10.59-5.21,18.92-25.38c6.87-16.61,4.82-26.41,1.15-27.87C418.94,885.91,394.44,920.09,404,941.18Z" transform="translate(-159.92 -310)"/><path class="cls-33" d="M398.84,948.26c6.25-7.76,14.51-21.79,17.6-36.39" transform="translate(-159.92 -310)"/><path class="cls-11" d="M385.26,902.79s11.5-2.67,24.19-20.42c10.46-14.62,10.69-24.63,7.45-26.88C412.4,852.37,380.78,880.09,385.26,902.79Z" transform="translate(-159.92 -310)"/><path class="cls-13" d="M385.26,902.79s11.5-2.67,24.19-20.42c10.46-14.62,10.69-24.63,7.45-26.88C412.4,852.37,380.78,880.09,385.26,902.79Z" transform="translate(-159.92 -310)"/><path class="cls-33" d="M382,914.51c.27-13.82,12.78-24.16,22.79-36.39" transform="translate(-159.92 -310)"/><path class="cls-11" d="M369,901s-11.8-.11-28.06-14.66c-13.39-12-15.79-21.72-13.12-24.62C331.5,857.66,368.39,877.84,369,901Z" transform="translate(-159.92 -310)"/><path class="cls-13" d="M369,901s-11.8-.11-28.06-14.66c-13.39-12-15.79-21.72-13.12-24.62C331.5,857.66,368.39,877.84,369,901Z" transform="translate(-159.92 -310)"/><path class="cls-33" d="M379.06,907.75S363.88,900,350.2,881.07" transform="translate(-159.92 -310)"/><path class="cls-11" d="M382.52,928.37s-9.65,6.79-31.34,4.44c-17.88-1.94-25.49-8.44-25-12.36C326.83,915,368.57,909.91,382.52,928.37Z" transform="translate(-159.92 -310)"/><path class="cls-13" d="M382.52,928.37s-9.65,6.79-31.34,4.44c-17.88-1.94-25.49-8.44-25-12.36C326.83,915,368.57,909.91,382.52,928.37Z" transform="translate(-159.92 -310)"/><path class="cls-33" d="M393.44,935.82c-8.77-8.05-17.6-11.45-37.77-12.68" transform="translate(-159.92 -310)"/><path class="cls-11" d="M373.09,872.76s-7.42-9.18-6.52-31c.74-18,6.71-26,10.66-25.78C382.69,816.3,390.58,857.61,373.09,872.76Z" transform="translate(-159.92 -310)"/><path class="cls-13" d="M373.09,872.76s-7.42-9.18-6.52-31c.74-18,6.71-26,10.66-25.78C382.69,816.3,390.58,857.61,373.09,872.76Z" transform="translate(-159.92 -310)"/><path class="cls-33" d="M398.84,959.63a27.48,27.48,0,0,0-1.8-16.71c-6.77-14.63-19-30.42-21.88-49.13-1.08-7.07-4.58-25.56,1.36-48.17" transform="translate(-159.92 -310)"/><path class="cls-27" d="M453,970s.1-.65-7.65-11.2-40.8-7.76-43.92-7.33-7,18.53-7,18.53Z" transform="translate(-159.92 -310)"/><path class="cls-1" d="M417.67,411.65s11.63,1.59,65.11.48c14.46,8.78,77.15,3.2,101.86.87,28.57,5.3,42.69-8.54,30-16-3.91-2.31-10.38-4-19.76-4.36.61-29.74-72.94-39.49-93.43,3.9-10.85-8.78-33.47-8-35,3.9-20.93-3.83-37.46.5-45,5C417.5,407.85,416,410.3,417.67,411.65Z" transform="translate(-159.92 -310)"/><path class="cls-2" d="M417.67,411.65s11.63,1.59,65.11.48c14.46,8.78,77.15,3.2,101.86.87,28.57,5.3,42.69-8.54,30-16a7.19,7.19,0,0,1-1.77,5.09c-2.9,3.31-8.35,4.68-13.34,4.27S590,404,585.79,401.72c-2-1.08-4-2.27-6.42-2.5-4.24-.41-7.89,2.26-10.87,4.73-2.45-4-8.67-6.11-13.9-4.8s-8.86,5.93-8.1,10.33c-10.23-1.83-20.66,3.06-31.09,2.28-11.9-.89-22.62-9.05-34.28-7-3,.53-5.69,1.68-8.65,2.18a48.67,48.67,0,0,1-8.87.23c-9.52-.17-19.05,1.05-28.56.57a55.78,55.78,0,0,1-13.57-2.29C417.5,407.85,416,410.3,417.67,411.65Z" transform="translate(-159.92 -310)"/><path class="cls-1" d="M1233,433.82s-9.27,1.27-51.85.39c-11.51,7-61.43,2.55-81.11.69-22.75,4.22-34-6.8-23.9-12.75,3.12-1.84,8.27-3.19,15.74-3.47-.49-23.68,58.08-31.45,74.4,3.1,8.63-7,26.65-6.35,27.84,3.12,16.66-3.06,29.82.39,35.84,4C1233.14,430.8,1234.33,432.75,1233,433.82Z" transform="translate(-159.92 -310)"/><path class="cls-2" d="M1233,433.82s-9.27,1.27-51.85.39c-11.51,7-61.43,2.55-81.11.69-22.75,4.22-34-6.8-23.9-12.75a5.73,5.73,0,0,0,1.41,4.05c2.31,2.64,6.65,3.74,10.63,3.4a28.44,28.44,0,0,0,11-3.68,13.52,13.52,0,0,1,5.11-2c3.37-.33,6.28,1.8,8.65,3.77,2-3.16,6.9-4.87,11.07-3.83s7,4.73,6.45,8.23c8.15-1.46,16.46,2.44,24.75,1.82,9.48-.72,18-7.21,27.31-5.56,2.35.41,4.52,1.34,6.88,1.73a39.65,39.65,0,0,0,7.06.19c7.58-.14,15.17.83,22.75.45a44.47,44.47,0,0,0,10.8-1.82C1233.14,430.8,1234.33,432.75,1233,433.82Z" transform="translate(-159.92 -310)"/><path class="cls-28" d="M1336.88,972.52H295.62a1.43,1.43,0,0,1-.65,0,1.46,1.46,0,0,1-.58-.3,1.51,1.51,0,0,1,0-2.32,1.63,1.63,0,0,1,.58-.31,1.58,1.58,0,0,1,.65,0H1336.88a1.58,1.58,0,0,1,.65,0,1.55,1.55,0,0,1,.58.31,1.51,1.51,0,0,1,0,2.32,1.4,1.4,0,0,1-.58.3,1.43,1.43,0,0,1-.65,0Z" transform="translate(-159.92 -310)"/><path class="cls-1" d="M646.67,473.59,632.23,466a26.52,26.52,0,1,0-1.9,9Z" transform="translate(-159.92 -310)"/><path class="cls-28" d="M605.77,492.16a27,27,0,1,1,27-26.47l15.67,8.25-17.73,1.55a26.93,26.93,0,0,1-24.91,16.67Zm0-53.06a26,26,0,1,0,24.15,35.73l.11-.28,15-1.31-13.21-6.95V466a26,26,0,0,0-20.61-26.3,25.54,25.54,0,0,0-5.44-.6Z" transform="translate(-159.92 -310)"/><path class="cls-11" d="M602,472l-.07-1.47a6.6,6.6,0,0,1,.66-3.36,10.49,10.49,0,0,1,2.83-3.14,12.57,12.57,0,0,0,2.64-2.56,3.53,3.53,0,0,0,.56-2.12,2.19,2.19,0,0,0-.26-1.09,2.27,2.27,0,0,0-.74-.83,4.54,4.54,0,0,0-2.7-.55,15.32,15.32,0,0,0-6.71,2.27l-2.37-4.24A19,19,0,0,1,605,452a10.11,10.11,0,0,1,6.61,1.65,6.42,6.42,0,0,1,2.66,5.13,7,7,0,0,1-.81,3.83,14.31,14.31,0,0,1-3.6,3.76,11.5,11.5,0,0,0-2.31,2.26,3.31,3.31,0,0,0-.42,1.95l.06,1.2Zm-.31,6.83a3.53,3.53,0,0,1,.12-1.37,3.44,3.44,0,0,1,.66-1.2,4.25,4.25,0,0,1,5.16-.25,3.88,3.88,0,0,1,.23,5,3.39,3.39,0,0,1-2.51,1,3.59,3.59,0,0,1-2.62-.76,3.35,3.35,0,0,1-1.09-2.44Z" transform="translate(-159.92 -310)"/></svg>