<svg id="Layer_1" data-name="Layer 1" xmlns="http://www.w3.org/2000/svg" viewBox="0 0 1222.82 724.72"><defs><style>.cls-1{fill:#b2b6bb;}.cls-2{fill:#dadddf;}.cls-3{fill:#479e7a;}.cls-14,.cls-16,.cls-21,.cls-22,.cls-4,.cls-6{isolation:isolate;}.cls-17,.cls-4{opacity:0.15;}.cls-5{fill:#3f4249;}.cls-11,.cls-22,.cls-6{fill:#fff;}.cls-14,.cls-6,.cls-7{opacity:0.2;}.cls-8{fill:#61656d;}.cls-9{fill:#21252b;}.cls-10{fill:#868a91;}.cls-12,.cls-18{fill:none;stroke-linecap:round;stroke-linejoin:round;stroke-width:5px;}.cls-12{stroke:#3f4249;}.cls-13{fill:#956363;}.cls-15,.cls-16{opacity:0.3;}.cls-18{stroke:#868a91;}.cls-19{fill:#b1b5ba;}.cls-20,.cls-21{fill:#2bb673;}.cls-21{font-size:32.67px;}.cls-21,.cls-22{font-family:HarlowSolid, Harlow Solid Italic;}.cls-22{font-size:10.21px;}</style></defs><path class="cls-1" d="M222.7,899.7h55.8V669H222.7Z" transform="translate(-152 -306.28)"/><path class="cls-2" d="M278.5,899.7H425.9V669H278.5Z" transform="translate(-152 -306.28)"/><path class="cls-1" d="M425.9,758.9V747.7H278.5v11.2Z" transform="translate(-152 -306.28)"/><path class="cls-1" d="M278.5,758.9V747.7H222.7v11.2Z" transform="translate(-152 -306.28)"/><path class="cls-1" d="M318.4,646.6s-45.2-20.5-76.7-12.7l6.3,4.2-3.2,7.4s35-9.1,74.5,2.3Z" transform="translate(-152 -306.28)"/><path class="cls-2" d="M326.1,645.8s5.9-.7,14.6-1.9c23.2-3.2,66.8-9.9,74.6-16.1,12.3-9.7-16.8-51-29.4-56.8S326.1,645.8,326.1,645.8Z" transform="translate(-152 -306.28)"/><path class="cls-2" d="M234,594.4c-2.1,10.2,93,54.4,93,54.4s-1.7-4.7-4.5-12c-10.3-26.8-35-88.8-43.2-88a9,9,0,0,0-2.8.8C263.9,555.2,235.9,585,234,594.4Z" transform="translate(-152 -306.28)"/><path class="cls-1" d="M277.2,558.8c5.8,10.1,44.6,77,45.2,78-10.3-26.8-35-88.8-43.2-88a5.38,5.38,0,0,0-2.8.8C274.9,550.8,274,553.2,277.2,558.8Z" transform="translate(-152 -306.28)"/><path class="cls-1" d="M340.7,643.9c23.2-3.2,66.8-9.9,74.6-16.1,3.5-9.9-5.6-10.8-12.3-11.5S340.7,643.9,340.7,643.9Z" transform="translate(-152 -306.28)"/><path class="cls-1" d="M343.8,649s-5.3-12.1-15.8-12.8c-11-.7-17.2,12.8-17.2,12.8Z" transform="translate(-152 -306.28)"/><path class="cls-1" d="M276.1,671.1H430.3V649H276.1Z" transform="translate(-152 -306.28)"/><path class="cls-1" d="M218,671.1h58.1V649H218Z" transform="translate(-152 -306.28)"/><path class="cls-1" d="M338.5,647.2s30.2-9.6,50.6-3.2c23.5,7.3,22.1,36.3,22.1,36.3l-5.5-2.2-7.4,3.5s-1.3-30.7-20.4-35C361.2,642.8,338.5,647.2,338.5,647.2Z" transform="translate(-152 -306.28)"/><path class="cls-1" d="M353.9,901.1h11.2V669H353.9Z" transform="translate(-152 -306.28)"/><path class="cls-1" d="M188.7,1030.4H421.5l1.4-151.7-232.8-2.8Z" transform="translate(-152 -306.28)"/><path class="cls-2" d="M269.4,1030.4H462.7l1.4-151.1-193.3-2.8Z" transform="translate(-152 -306.28)"/><path class="cls-1" d="M468.5,875.9H183.4v17.6H468.5Z" transform="translate(-152 -306.28)"/><path class="cls-1" d="M282.9,875.9H183.4v17.6h99.5Z" transform="translate(-152 -306.28)"/><path class="cls-1" d="M1108.2,1029.9H1297l1.2-163.6-188.9-2.2Z" transform="translate(-152 -306.28)"/><path class="cls-2" d="M1173.7,1029.9h156.8l1.2-163.2-156.8-2.2Z" transform="translate(-152 -306.28)"/><path class="cls-1" d="M1335.2,864.1H1103.9v14.3h231.3Z" transform="translate(-152 -306.28)"/><path class="cls-1" d="M1184.6,864.1h-80.7v14.3h80.7Z" transform="translate(-152 -306.28)"/><path class="cls-1" d="M1213.3,862.8s-36.7-16.6-62.2-10.3l5.1,3.4-2.6,6a124.76,124.76,0,0,1,60.4,1.9Z" transform="translate(-152 -306.28)"/><path class="cls-2" d="M1219.5,862.1s4.8-.6,11.9-1.6c18.8-2.6,54.2-8,60.5-13,10-7.9-13.6-41.4-23.9-46S1219.5,862.1,1219.5,862.1Z" transform="translate(-152 -306.28)"/><path class="cls-2" d="M1144.8,820.4c-1.7,8.3,75.4,44.2,75.4,44.2s-1.4-3.8-3.7-9.7c-8.3-21.7-28.4-72.1-35-71.4a6.15,6.15,0,0,0-2.3.7C1169.1,788.6,1146.4,812.8,1144.8,820.4Z" transform="translate(-152 -306.28)"/><path class="cls-1" d="M1179.9,791.5c4.7,8.2,36.2,62.5,36.7,63.3-8.3-21.7-28.4-72.1-35-71.4a3.89,3.89,0,0,0-2.3.7C1178,785,1177.3,787,1179.9,791.5Z" transform="translate(-152 -306.28)"/><path class="cls-1" d="M1231.4,860.6c18.8-2.6,54.2-8,60.5-13,2.9-8.1-4.6-8.7-10-9.3S1231.4,860.6,1231.4,860.6Z" transform="translate(-152 -306.28)"/><path class="cls-1" d="M1233.9,864.7s-4.3-9.8-12.8-10.4c-8.9-.6-13.9,10.4-13.9,10.4Z" transform="translate(-152 -306.28)"/><path class="cls-1" d="M1229.6,863.3s24.5-7.8,41-2.6c19.1,5.9,17.9,29.4,17.9,29.4l-4.5-1.8-6,2.8s-1-24.9-16.6-28.4C1248,859.7,1229.6,863.3,1229.6,863.3Z" transform="translate(-152 -306.28)"/><path class="cls-1" d="M1257.3,878.3h-10.2v152.1h10.2Z" transform="translate(-152 -306.28)"/><path class="cls-1" d="M1331,959.5V949.3H1173.4v10.2Z" transform="translate(-152 -306.28)"/><path class="cls-1" d="M381.9,893.5H369v136.3h12.9Z" transform="translate(-152 -306.28)"/><path class="cls-1" d="M464.1,968.1V955.2H270v12.9Z" transform="translate(-152 -306.28)"/><path class="cls-3" d="M1036.4,817.8H962.7v212.4h73.7Z" transform="translate(-152 -306.28)"/><path class="cls-3" d="M962.7,817.8H767.9v212.4H962.7Z" transform="translate(-152 -306.28)"/><path class="cls-4" d="M962.7,817.8H767.9v212.4H962.7Z" transform="translate(-152 -306.28)"/><path class="cls-5" d="M1042.7,817.8H965.9V847h76.8Z" transform="translate(-152 -306.28)"/><path class="cls-6" d="M1042.7,817.8H965.9V847h76.8Z" transform="translate(-152 -306.28)"/><path class="cls-5" d="M758.6,847H965.8V817.8H758.6Z" transform="translate(-152 -306.28)"/><path class="cls-6" d="M1036.4,848.2H962.7v181.9h73.7Z" transform="translate(-152 -306.28)"/><path class="cls-6" d="M962.7,848.2H767.9v181.9H962.7Z" transform="translate(-152 -306.28)"/><path class="cls-3" d="M644,817.8H762V479.6H644Z" transform="translate(-152 -306.28)"/><path class="cls-3" d="M973.1,479.6H762V817.8H973.1Z" transform="translate(-152 -306.28)"/><g class="cls-7"><path class="cls-6" d="M861.7,479.6H829.4L644,665v32.3Z" transform="translate(-152 -306.28)"/><path class="cls-6" d="M644,532.1v32.3l84.9-84.9H696.6Z" transform="translate(-152 -306.28)"/><path class="cls-6" d="M973.1,601.6,756.9,817.8h32.3L973,633.9V601.6Z" transform="translate(-152 -306.28)"/><path class="cls-6" d="M795.3,479.6H763L644,598.5v32.3Z" transform="translate(-152 -306.28)"/><path class="cls-6" d="M973.1,479.6H962.2L644,797.8v20h12.4L973.1,501Z" transform="translate(-152 -306.28)"/><path class="cls-6" d="M928.1,479.6H895.8L644,731.4v32.3Z" transform="translate(-152 -306.28)"/><path class="cls-6" d="M662.4,479.6H644V498Z" transform="translate(-152 -306.28)"/><path class="cls-6" d="M956.2,817.8h16.9V800.9Z" transform="translate(-152 -306.28)"/><path class="cls-6" d="M973.1,567.5V535.2L690.5,817.8h32.3Z" transform="translate(-152 -306.28)"/><path class="cls-6" d="M973.1,766.8V734.5l-83.3,83.3h32.3Z" transform="translate(-152 -306.28)"/><path class="cls-6" d="M973.1,700.3V668L823.3,817.8h32.3Z" transform="translate(-152 -306.28)"/></g><path class="cls-5" d="M880.4,479.6H849.6V817.8h30.8Z" transform="translate(-152 -306.28)"/><path class="cls-4" d="M644,817.8H762V479.6H644Z" transform="translate(-152 -306.28)"/><path class="cls-5" d="M834.3,470.3s72.3-46.3,128.2-40.7l-9.7,8.8,7.2,11.9s-62.3-7-127,22.3Z" transform="translate(-152 -306.28)"/><path class="cls-8" d="M829.3,474.1s-10.2-1.2-25.3-3.3c-40.2-5.5-115.5-17.1-129.1-27.8-21.2-16.8,29.1-88.3,50.9-98.2S829.3,474.1,829.3,474.1Z" transform="translate(-152 -306.28)"/><path class="cls-8" d="M988.6,385.1c3.6,17.7-160.9,94.2-160.9,94.2s3-8.1,7.9-20.8c17.8-46.3,60.6-153.7,74.7-152.2a14,14,0,0,1,4.9,1.5C936.9,317.3,985.3,368.8,988.6,385.1Z" transform="translate(-152 -306.28)"/><path class="cls-5" d="M913.9,323.5c-10,17.5-77.2,133.2-78.2,135,17.8-46.3,60.6-153.7,74.7-152.2a8.58,8.58,0,0,1,4.9,1.5C917.8,309.6,919.4,313.9,913.9,323.5Z" transform="translate(-152 -306.28)"/><path class="cls-5" d="M804,470.8c-40.2-5.5-115.5-17.1-129.1-27.8-6.1-17.2,9.7-18.6,21.3-19.8S804,470.8,804,470.8Z" transform="translate(-152 -306.28)"/><path class="cls-5" d="M798.6,479.6s9.2-21,27.4-22.1c19-1.2,29.7,22.1,29.7,22.1Z" transform="translate(-152 -306.28)"/><path class="cls-5" d="M807.9,476.5s-52.3-16.6-87.5-5.6c-40.6,12.6-38.2,62.8-38.2,62.8l9.6-3.9,12.9,6s2.2-53.1,35.3-60.5C768.6,468.8,807.9,476.5,807.9,476.5Z" transform="translate(-152 -306.28)"/><path class="cls-9" d="M694.5,687.6a4.92,4.92,0,0,1-2.1-.4,5.52,5.52,0,0,1-3-3,5.22,5.22,0,0,1-.4-2.1v-48a65.5,65.5,0,0,0-131,0v48a5.52,5.52,0,0,1-1.6,3.9,5.7,5.7,0,0,1-3.9,1.6,5.52,5.52,0,0,1-3.9-1.6,5.7,5.7,0,0,1-1.6-3.9v-48a77.31,77.31,0,0,1,5.8-29.3,78.71,78.71,0,0,1,16.6-24.9,76.65,76.65,0,0,1,54.2-22.4,77.31,77.31,0,0,1,29.3,5.8,78.71,78.71,0,0,1,24.9,16.6,76.65,76.65,0,0,1,22.4,54.2v48a6,6,0,0,1-1.6,4A6.88,6.88,0,0,1,694.5,687.6Z" transform="translate(-152 -306.28)"/><path class="cls-5" d="M712.2,659.4H446.6l-25.5,371H686.7Z" transform="translate(-152 -306.28)"/><path class="cls-8" d="M757.6,659.4H712.2l-25.5,371H787.6Z" transform="translate(-152 -306.28)"/><path class="cls-10" d="M686.8,1030.4,737.3,998l50.4,32.4Z" transform="translate(-152 -306.28)"/><path class="cls-5" d="M737.3,998V659.4h20.3l30.1,371Z" transform="translate(-152 -306.28)"/><path class="cls-9" d="M501.6,696.6a14.73,14.73,0,0,0,13.5-9.1,14.26,14.26,0,0,0,.8-8.4,15.68,15.68,0,0,0-4-7.5,14.83,14.83,0,0,0-7.5-4,14.19,14.19,0,0,0-8.4.8,14.73,14.73,0,0,0-9.1,13.5,15.51,15.51,0,0,0,1.1,5.6,13.94,13.94,0,0,0,3.2,4.8,16.33,16.33,0,0,0,4.7,3.2,14.44,14.44,0,0,0,5.7,1.1Zm0-20a5.29,5.29,0,0,1,3,.9,5.2,5.2,0,0,1,2,2.4,5.53,5.53,0,0,1,.3,3.1,4.87,4.87,0,0,1-1.5,2.7,5.22,5.22,0,0,1-5.8,1.2,5.2,5.2,0,0,1-2.4-2,5.29,5.29,0,0,1-.9-3,5.46,5.46,0,0,1,1.6-3.8,6.13,6.13,0,0,1,3.7-1.5Z" transform="translate(-152 -306.28)"/><path class="cls-9" d="M643.7,696.6a14.73,14.73,0,0,0,13.5-9.1,14.26,14.26,0,0,0,.8-8.4,15.68,15.68,0,0,0-4-7.5,14.83,14.83,0,0,0-7.5-4,14.19,14.19,0,0,0-8.4.8,14.73,14.73,0,0,0-9.1,13.5,15.51,15.51,0,0,0,1.1,5.6,13.94,13.94,0,0,0,3.2,4.8,16.33,16.33,0,0,0,4.7,3.2,14.44,14.44,0,0,0,5.7,1.1Zm0-20a5.29,5.29,0,0,1,3,.9,5.2,5.2,0,0,1,2,2.4,5.53,5.53,0,0,1,.3,3.1,5.62,5.62,0,0,1-4.2,4.2,5.53,5.53,0,0,1-3.1-.3,5.2,5.2,0,0,1-2.4-2,5.29,5.29,0,0,1-.9-3,5.46,5.46,0,0,1,1.6-3.8,6.13,6.13,0,0,1,3.7-1.5Z" transform="translate(-152 -306.28)"/><path class="cls-9" d="M643.7,687.6a4.92,4.92,0,0,1-2.1-.4,5.52,5.52,0,0,1-3-3,5.22,5.22,0,0,1-.4-2.1v-48a65.5,65.5,0,0,0-131,0v48a5.52,5.52,0,0,1-1.6,3.9,5.7,5.7,0,0,1-3.9,1.6,5.52,5.52,0,0,1-3.9-1.6,5.7,5.7,0,0,1-1.6-3.9v-48a76.6,76.6,0,1,1,153.2,0v48a6,6,0,0,1-1.6,4A6.88,6.88,0,0,1,643.7,687.6Z" transform="translate(-152 -306.28)"/><path class="cls-3" d="M433.6,639.2,398,609.8l-31,3.5-72.4,87.5,69,57.1L436,670.4Zm-27.8-2.6a3,3,0,0,1-.9-1.3,2.21,2.21,0,0,1,0-1.6,3,3,0,0,1,.9-1.3,2.53,2.53,0,0,1,1.5-.6,3,3,0,0,1,1.6.3,2.89,2.89,0,0,1,1.1,1.1,2.22,2.22,0,0,1,.3,1.6,4.71,4.71,0,0,1-.6,1.5,2.7,2.7,0,0,1-.8.7,1.93,1.93,0,0,1-1,.3,4.1,4.1,0,0,1-1.1-.1,2.07,2.07,0,0,1-1-.6Z" transform="translate(-152 -306.28)"/><path class="cls-1" d="M401.5,641.8a9.3,9.3,0,0,0,5.1,2.1,10.05,10.05,0,0,0,5.4-1,9.57,9.57,0,0,0,5-9.3,9.56,9.56,0,0,0-6.7-8.2,9.37,9.37,0,0,0-5.5,0,9.5,9.5,0,0,0-4.6,3,9.08,9.08,0,0,0-2.1,6.9,10.12,10.12,0,0,0,3.4,6.5Zm7.8-9.4a3,3,0,0,1,.9,1.3,2.21,2.21,0,0,1,0,1.6,3,3,0,0,1-.9,1.3,2.53,2.53,0,0,1-1.5.6,3,3,0,0,1-1.6-.3,2.35,2.35,0,0,1-1.1-1.1,2.88,2.88,0,0,1-.3-1.6,4,4,0,0,1,.6-1.5,2.74,2.74,0,0,1,1.8-1,3.14,3.14,0,0,1,2.1.7Z" transform="translate(-152 -306.28)"/><path class="cls-11" d="M398.2,663.2l6.6,5.4-67.2,33.9L331,697ZM369,639.3l11.8,9.7a5.24,5.24,0,0,1,1,1.1,3.26,3.26,0,0,1,.4,1.4,3.81,3.81,0,0,1-.1,1.5,3.29,3.29,0,0,1-.7,1.3l-17,20.7a5.24,5.24,0,0,1-1.1,1,3.26,3.26,0,0,1-1.4.4,3.81,3.81,0,0,1-1.5-.1,3.29,3.29,0,0,1-1.3-.7l-11.8-9.7a5.24,5.24,0,0,1-1-1.1,3.26,3.26,0,0,1-.4-1.4,3.81,3.81,0,0,1,.1-1.5,3.29,3.29,0,0,1,.7-1.3l16.9-20.7a5.24,5.24,0,0,1,1.1-1,3.26,3.26,0,0,1,1.4-.4,3.81,3.81,0,0,1,1.5.1,2.35,2.35,0,0,1,1.4.7Zm7.8,50.8,11.8,9.7a5.24,5.24,0,0,1,1,1.1,3.26,3.26,0,0,1,.4,1.4,7.57,7.57,0,0,1-.1,1.5,3.29,3.29,0,0,1-.7,1.3l-16.9,20.7a5.24,5.24,0,0,1-1.1,1,2.3,2.3,0,0,1-1.4.4,3.81,3.81,0,0,1-1.5-.1,3.29,3.29,0,0,1-1.3-.7l-11.8-9.7a5.24,5.24,0,0,1-1-1.1,3.26,3.26,0,0,1-.4-1.4,7.57,7.57,0,0,1,.1-1.5,3.29,3.29,0,0,1,.7-1.3l16.9-20.7a5.24,5.24,0,0,1,1.1-1,3.26,3.26,0,0,1,1.4-.4,7.57,7.57,0,0,1,1.5.1,4.15,4.15,0,0,1,1.3.7Zm-3.9-39-4.5-3.7c-.1-.1-.2-.2-.3-.2s-.2-.1-.4,0-.2.1-.4.1l-.3.3-12,14.8c-.1.1-.2.2-.2.3s-.1.2,0,.4.1.2.1.4l.3.3,4.4,3.6c.1.1.2.2.3.2a.85.85,0,0,0,.8,0l.3-.3,12.1-14.8c.1-.1.2-.2.2-.3s.1-.2.1-.4-.1-.2-.1-.4a1.38,1.38,0,0,1-.4-.3Zm7.8,50.9-4.5-3.7c-.1-.1-.2-.2-.3-.2s-.2-.1-.4,0-.2.1-.4.1l-.3.3-12.1,14.8c-.1.1-.2.2-.2.3s-.1.2,0,.4.1.2.1.4l.3.3,4.4,3.6c.1.1.2.2.3.2a.85.85,0,0,0,.8,0l.3-.3,12.1-14.8c.1-.1.2-.2.2-.3s.1-.2,0-.4-.1-.2-.1-.4-.1-.2-.2-.3Z" transform="translate(-152 -306.28)"/><path class="cls-5" d="M407.5,637.8l-1.6-.4c.1-.5,11.7-49.3,56-49.3h1.9l.6-2.4c3.6-11.6,13.4-16.8,26.9-14.4,26.9,4.8,32.7,31.4,32.7,31.7l-1.6.3c0-.3-5.6-25.8-31.4-30.4-17.2-3.1-23.1,7-25.1,13.3a11.7,11.7,0,0,0-.5,2c14.9,1,26.3,7.9,30.7,19,2.9,7.3,2.1,15-2.1,19-3.3,3.1-8,3.5-13.3,1.1-13.1-6-19.4-24-17.2-37.6h-1.6C418.9,589.7,407.6,637.3,407.5,637.8Zm57.6-48c-2.2,13,3.8,30.3,16.3,36,4.7,2.1,8.8,1.9,11.5-.8,3.7-3.5,4.4-10.6,1.8-17.2-4.3-10.5-15.2-17.1-29.6-18Z" transform="translate(-152 -306.28)"/><path class="cls-12" d="M1093.9,437.7l-18.3,156.6" transform="translate(-152 -306.28)"/><path class="cls-9" d="M1187.9,455.2c-13.1-4.4-20.7-7.8-25.3-12.7-5.7-6-6.8-14.2-8-29.1a20.9,20.9,0,0,1-.1-2.5v-1.3c.2-8.5,3.3-16.6,7.3-23.6l2.4-3.9c1.1-1.7,2.2-3.2,3.3-4.7a98.27,98.27,0,0,1,13.8-15c-.2,2.2-.4,4.4-.4,6.7,0,5.6.9,13.3,4.9,17,6.8,6.1,12.8,4.6,13,19.6s.6,8.7,13.9,22S1217,464.9,1187.9,455.2Z" transform="translate(-152 -306.28)"/><path class="cls-13" d="M973.2,475l-9.8-3.8-12.9.6a1.85,1.85,0,0,0-.7.2,1.21,1.21,0,0,0-.5.5,1.45,1.45,0,0,0-.2.7,1.7,1.7,0,0,0,.1.7h0a1.78,1.78,0,0,0,.7.8,2,2,0,0,0,1.1.3l12.1.6,6.6,4.1-6.6-4.1-10.7.4a1.27,1.27,0,0,0-.6.1.78.78,0,0,0-.4.4c-.1.2-.2.3-.3.5v.6h0a1.56,1.56,0,0,0,.6.8,1.69,1.69,0,0,0,1,.3l10.6.5L973,485l-9.7-5.8-7.9,1.2c-.1,0-.2.1-.4.1l-.3.3c-.1.1-.1.2-.1.4a.6.6,0,0,0,.1.4h0a1.21,1.21,0,0,0,.5.5.88.88,0,0,0,.7.1h8.9l9.3,4.8Z" transform="translate(-152 -306.28)"/><path class="cls-13" d="M973.2,475l-9.8-3.8-12.9.6a1.85,1.85,0,0,0-.7.2,1.21,1.21,0,0,0-.5.5,1.45,1.45,0,0,0-.2.7,1.7,1.7,0,0,0,.1.7h0a1.78,1.78,0,0,0,.7.8,2,2,0,0,0,1.1.3l12.1.6,6.6,4.1-6.6-4.1-10.7.4a1.27,1.27,0,0,0-.6.1.78.78,0,0,0-.4.4c-.1.2-.2.3-.3.5v.6h0a1.56,1.56,0,0,0,.6.8,1.69,1.69,0,0,0,1,.3l10.6.5L973,485l-9.7-5.8-7.9,1.2c-.1,0-.2.1-.4.1l-.3.3c-.1.1-.1.2-.1.4a.6.6,0,0,0,.1.4h0a1.21,1.21,0,0,0,.5.5.88.88,0,0,0,.7.1h8.9l9.3,4.8Z" transform="translate(-152 -306.28)"/><path class="cls-4" d="M973.2,475l-9.8-3.8-12.9.6a1.85,1.85,0,0,0-.7.2,1.21,1.21,0,0,0-.5.5,1.45,1.45,0,0,0-.2.7,1.7,1.7,0,0,0,.1.7h0a1.78,1.78,0,0,0,.7.8,2,2,0,0,0,1.1.3l12.1.6,6.6,4.1-6.6-4.1-10.7.4a1.27,1.27,0,0,0-.6.1.78.78,0,0,0-.4.4c-.1.2-.2.3-.3.5v.6h0a1.56,1.56,0,0,0,.6.8,1.69,1.69,0,0,0,1,.3l10.6.5L973,485l-9.7-5.8-7.9,1.2c-.1,0-.2.1-.4.1l-.3.3c-.1.1-.1.2-.1.4a.6.6,0,0,0,.1.4h0a1.21,1.21,0,0,0,.5.5.88.88,0,0,0,.7.1h8.9l9.3,4.8Z" transform="translate(-152 -306.28)"/><path class="cls-13" d="M973.3,471.6l12.9,12.2a7.64,7.64,0,0,0,2.6,1.5l29.4,8.5-7.8,17.4-22.7-10.4a5.33,5.33,0,0,0-2.4-.6l-1.4-.1a20.36,20.36,0,0,1-7.7-1.2,18.82,18.82,0,0,1-6.6-4.1h-.1a6.15,6.15,0,0,0-1.9-1.2l-8.7-3.1a.35.35,0,0,1-.2-.1l-.2-.2c0-.1-.1-.2-.1-.3v-.3a4.26,4.26,0,0,1,1.5-2,3.57,3.57,0,0,1,2.5-.5l4.6.5c2.4.2,4.3-1.6,3.7-3.7l-2.6-8.9a2,2,0,0,0-.4-.8,1.79,1.79,0,0,0-.7-.5l-14.7-7.9a1.58,1.58,0,0,1-.7-.7,1.39,1.39,0,0,1,0-.9h0a2.36,2.36,0,0,1,.9-.8,2,2,0,0,1,1.1,0c3.9,1.5,15.7,6.2,18.5,7.4A3.08,3.08,0,0,1,973.3,471.6Z" transform="translate(-152 -306.28)"/><path class="cls-4" d="M1016.8,493.3l-5.7,7.9c-2,2.6-4.6,3.9-7.6,2.6L989.4,498a8.57,8.57,0,0,0-3.6-.7c-3.2.3-10.4.4-16.4-2.8l.1.1h.2a18.82,18.82,0,0,0,6.6,4.1,20.06,20.06,0,0,0,7.7,1.2l1.4.1a5,5,0,0,1,2.4.6l22.6,10.6V511Z" transform="translate(-152 -306.28)"/><path class="cls-3" d="M1184.4,975.3a26.43,26.43,0,0,0-1.2,9.7l-.1,27.1a30,30,0,0,0,3.8,13.4l.6,1a7.52,7.52,0,0,0,2.8,2.8,7.65,7.65,0,0,0,3.9,1.1h7.8a7.81,7.81,0,0,0,4.8-1.7,8.47,8.47,0,0,0,2.8-4.2,30,30,0,0,0,.4-12.3l-6.6-29.1a27.74,27.74,0,0,0-2.4-7.9l-16.6.1Z" transform="translate(-152 -306.28)"/><path class="cls-13" d="M1079.1,911.5l-1.6,50.7c0,4.8-1.2,9.8-3,12.4l-22.6,39.4,5.2,7.2,20.5-10.2,18.3-33c0-5.6.5-9,1.5-16.6l9-55.9Z" transform="translate(-152 -306.28)"/><path class="cls-4" d="M1077.6,979.6a45.23,45.23,0,0,0,5.3-13.7l2.5-18.1a2.59,2.59,0,0,1,.9-1.7,3.1,3.1,0,0,1,1.8-.9l12.5-1.7.2-2.7h-22.5l-.7,21.5c-.1,3.5-.7,9-3,12.4l-22.6,39.4,3.2,5.3Z" transform="translate(-152 -306.28)"/><path class="cls-3" d="M1041,1020.6l10.8-6.5a23.24,23.24,0,0,0,11.4-1.1,22.92,22.92,0,0,0,9.3-6.7l23.3-28.3a51.37,51.37,0,0,1,4.3,28.9l-3.4,23.5H1094l-.7-24.1a1.5,1.5,0,0,0-.4-1.1,5.5,5.5,0,0,0-.9-.7,2,2,0,0,0-1.1,0,1.46,1.46,0,0,0-.9.6l-14.2,17.4a21.56,21.56,0,0,1-16.6,7.9H1037a2.66,2.66,0,0,1-1.2-.3,3.45,3.45,0,0,1-.9-.8,2.1,2.1,0,0,1-.4-1.1,2.54,2.54,0,0,1,.2-1.2,13.07,13.07,0,0,1,6.3-6.4Z" transform="translate(-152 -306.28)"/><path class="cls-13" d="M1183.3,963.1a206.87,206.87,0,0,1,1.5,29.4l-.2,11.7a9.56,9.56,0,0,0,9.5,9.3h1.6a9.34,9.34,0,0,0,4-.9,10.76,10.76,0,0,0,3.2-2.4,7.83,7.83,0,0,0,1.9-3.6,9.08,9.08,0,0,0,.3-4l-2.7-13.9a85.77,85.77,0,0,1-1.5-21.4l2.6-47.3-24.4.4Z" transform="translate(-152 -306.28)"/><path class="cls-5" d="M1092.1,590.9l-2.6,31.9-3.1,34.9c-1.7,18.6-2.7,37.3-3.2,56l-6.1,227h24.6l45.8-299.5a4.16,4.16,0,0,1,4.1-3.5h0a4.3,4.3,0,0,1,2.8,1.1,4.08,4.08,0,0,1,1.3,2.7l23.9,299.2,24.2-.2,12-215.8a523.14,523.14,0,0,0-10.4-137.3l-1.3-6.4Z" transform="translate(-152 -306.28)"/><path class="cls-4" d="M1181.3,940.7s2.9,30.4,3.1,34.4v.1c.4,5.7.5,11.4.4,17.2l-.2,11.7a10,10,0,0,0,2.7,6.4,9.4,9.4,0,0,0,6.3,2.8c-4.5-3.4-4.1-9.1-4.2-13.3l-.8-51.4a3.49,3.49,0,0,1,.8-2.2,3.22,3.22,0,0,1,2-1.2l10.9-2,.1-2.4Z" transform="translate(-152 -306.28)"/><path class="cls-14" d="M1151.6,637.8a4.3,4.3,0,0,1,2.8,1.1,4.08,4.08,0,0,1,1.3,2.7l23.9,299.2,8.7-.1-14.7-282a22.06,22.06,0,0,0-22-20.9Z" transform="translate(-152 -306.28)"/><path class="cls-3" d="M1209.3,481.5s2.6-12.9,5.7-26.8a18.86,18.86,0,0,0,.2-7.1,17.23,17.23,0,0,0-2.6-6.6,18.34,18.34,0,0,0-4.9-5.1,17.84,17.84,0,0,0-6.5-2.8l-21.7-4.7-7.9-1.7-44.9.4-5.2,1.5L1101,434a22.91,22.91,0,0,0-13.5,10.7h0l-.1.2c-.8,1.5-24.1,60.9-24.1,60.9l-46.6-12.6-6.5,17.9,56.1,25.9a13.33,13.33,0,0,0,10,.5,12.87,12.87,0,0,0,7.5-6.6l9.2-18.3,3.8,12c6.5,22.3-2.8,52.2-6.6,62.8a2.25,2.25,0,0,0-.1,1.4,3,3,0,0,0,.5,1.3,2.44,2.44,0,0,0,1.1.9,3.19,3.19,0,0,0,1.4.3h39l35.6-.1H1205a4,4,0,0,0,1.5-.3,2.73,2.73,0,0,0,1.2-.9,3.69,3.69,0,0,0,.7-1.4,3.81,3.81,0,0,0,.1-1.5,211.4,211.4,0,0,1-7.3-40.9,84.24,84.24,0,0,1,1.8-23.5Z" transform="translate(-152 -306.28)"/><path class="cls-14" d="M1092.1,591.3l-2.6,31.5-1.9,21.7q-3.6,41.1-4.7,82.5l-5.7,213.8h9.8l15.3-297.6,2.7-51.6h-12.5Z" transform="translate(-152 -306.28)"/><path class="cls-13" d="M1213.4,589.3h-11.8a1.7,1.7,0,0,0-.7.1l-10.6,2.1a6.6,6.6,0,0,0-2.6,1.1,6.06,6.06,0,0,0-1.9,2l-5.4,8.4a1.64,1.64,0,0,0-.2,1,1.38,1.38,0,0,0,.5.9h0a1.69,1.69,0,0,0,1,.3,1.05,1.05,0,0,0,.9-.5l6.2-7.3,7.8-2.1-7.1,3.3-5.7,9a1.23,1.23,0,0,0-.2,1,1.91,1.91,0,0,0,.5,1h0a2.09,2.09,0,0,0,.6.4,1.48,1.48,0,0,0,.7.1,2,2,0,0,0,.7-.1,2.09,2.09,0,0,0,.6-.4l6.7-7.1,5.3-2.2-4.7,3.5-5.5,6.9a1.43,1.43,0,0,0-.3,1.1,1.23,1.23,0,0,0,.5,1,1.78,1.78,0,0,0,1,.4,1.28,1.28,0,0,0,1-.4l6.5-6,6-2.9-7.3,6.6a1.39,1.39,0,0,0-.5,1,2,2,0,0,0,.3,1.1,1.37,1.37,0,0,0,.8.5,1.73,1.73,0,0,0,1-.1l10-5.4,7.2.4a11.37,11.37,0,0,0,7.4-2.2,12,12,0,0,0,4.4-6.4l.2-.7,41.2-58.4-21.8-15.5Z" transform="translate(-152 -306.28)"/><path class="cls-3" d="M1210.9,438.9l66.2,67.5a15.19,15.19,0,0,1,4.3,9.4,14.85,14.85,0,0,1-2.8,10l-35.9,49.7-16.3-13.1,22-42.6L1202,479.5Z" transform="translate(-152 -306.28)"/><path class="cls-4" d="M1214.7,482l-2.1-11.6a.76.76,0,0,0-.2-.4c-.1-.1-.2-.1-.4-.1s-.3.1-.4.1a.52.52,0,0,0-.2.4l-2.6,15.1,39.6,34.3,1.9-3.3a3.36,3.36,0,0,0,.4-2.2,2.87,2.87,0,0,0-1.1-1.9Z" transform="translate(-152 -306.28)"/><path class="cls-4" d="M1227,563l8.9,11.5a1.75,1.75,0,0,1,.4,1.2,2.38,2.38,0,0,1-.3,1.2l-13,19.7s-4.2,11.3-14.8,10.9l6.3.3a11.37,11.37,0,0,0,7.4-2.2,11.49,11.49,0,0,0,4.4-6.4l.2-.7,16.2-22.9Z" transform="translate(-152 -306.28)"/><path class="cls-13" d="M1167,387l.9,33.8a6.4,6.4,0,0,0,1.3,3.7,6.22,6.22,0,0,0,3.2,2.1l3.8,1-4.6,6.6a27,27,0,0,1-8.7,8.1,25.61,25.61,0,0,1-11.4,3.4c-.5,0-1,.1-1.6.1a26.58,26.58,0,0,1-21.9-11.6l-4.3-6.3,4.3-1.2a6.25,6.25,0,0,0,3.1-1.9,5.77,5.77,0,0,0,1.4-3.3l4.4-40.1Z" transform="translate(-152 -306.28)"/><path class="cls-13" d="M1143.5,412l1.6.1a21.22,21.22,0,0,0,15-5.4,20.38,20.38,0,0,0,6.7-14.4l1.3-29.2a7.18,7.18,0,0,0-1.8-5,6.39,6.39,0,0,0-4.8-2.2l-27.2-1.2a8.28,8.28,0,0,0-3.5.5,9.23,9.23,0,0,0-3,1.8,9.36,9.36,0,0,0-2.1,2.8,8.08,8.08,0,0,0-.8,3.4l-1.2,27.1a20.87,20.87,0,0,0,5.5,15A20.37,20.37,0,0,0,1143.5,412Z" transform="translate(-152 -306.28)"/><path class="cls-9" d="M1145,383.1a2.3,2.3,0,0,0,0-4.6,2.26,2.26,0,0,0-2.3,2.3A2.33,2.33,0,0,0,1145,383.1Z" transform="translate(-152 -306.28)"/><path class="cls-9" d="M1127.6,383.1a2.3,2.3,0,1,0,0-4.6,2.3,2.3,0,1,0,0,4.6Z" transform="translate(-152 -306.28)"/><g class="cls-15"><path class="cls-16" d="M1136.4,393.2l3,.2h.2a.35.35,0,0,0,.2-.1l.2-.2a.35.35,0,0,1,.1-.2v-.3a.35.35,0,0,0-.1-.2l-.2-.2a.35.35,0,0,1-.2-.1l-3-.2a1.19,1.19,0,0,1-.9-.5,1.69,1.69,0,0,1-.3-1,1.05,1.05,0,0,1,.5-.9,1.21,1.21,0,0,1,1-.3c.2,0,.4,0,.5-.2a.76.76,0,0,0,.2-.4.65.65,0,0,0-.2-.5.76.76,0,0,0-.4-.2,3,3,0,0,0-2,.6,2.62,2.62,0,0,0-.9,1.8,3,3,0,0,0,.6,2,2.07,2.07,0,0,0,1.7.9Z" transform="translate(-152 -306.28)"/></g><path class="cls-9" d="M1181.3,362.4c-.2,2.2-.4,4.4-.4,6.7l-.9.4a71.62,71.62,0,0,1-3,8.9c-1,2.5-2,4.9-2.7,7-.4,1.2-2-1.5-3.4-3.9a10.54,10.54,0,0,0-.7-1.1,5.39,5.39,0,0,0-1.4-1.6c-.1-.1-.7.7-1.3,1.6v.1c-.4.6-.9,1.2-1.2,1.7a.78.78,0,0,1-.4.4c-.2.1-.3.2-.5.2a1.27,1.27,0,0,1-.6-.1c-.2-.1-.3-.2-.5-.3a2.19,2.19,0,0,1-.3-.5h0a33.43,33.43,0,0,1-1.4-11.3l.1-3.5c-5.8-.8-8.8-5.3-10-7.3a4.67,4.67,0,0,1-.5-1,11.41,11.41,0,0,1-1.1,1.1c-7.6,7.1-19.2,6.2-24,5.5h-.8a1.61,1.61,0,0,0-.7.4,2.65,2.65,0,0,0-.5.6,1.88,1.88,0,0,0-.2.8v.1l-.3,6.9-.1,1.2-.2,5a26,26,0,0,1-2.6-3.2,8.79,8.79,0,0,1-.6-1c-.2-.4-.4-.5-.5-.9a30.4,30.4,0,0,1-2.3-5.2,41.73,41.73,0,0,1-1-6c-.1-7,3.6-9.6,5.6-10.6a3.11,3.11,0,0,0,.9-.7,3.58,3.58,0,0,0,.4-1.1c1.5-21.7,31.2-26.8,46.7-13.9C1179.9,345.5,1182.1,354.2,1181.3,362.4Z" transform="translate(-152 -306.28)"/><path class="cls-13" d="M1165.3,393.3s9.8,1.6,12.8-8-9.1-12.4-11.6-2.7l-2.2,10.6Z" transform="translate(-152 -306.28)"/><path class="cls-16" d="M1175.4,379.9a3.81,3.81,0,0,0-1.3-.9,4.14,4.14,0,0,0-1.6-.2,4.42,4.42,0,0,0-1.5.5,4.26,4.26,0,0,0-1.1,1.2,8.54,8.54,0,0,0-1.5,3.7l-.1,1.1c-.1.8,1.2,1.1,1.3.2l.2-1.1a8.21,8.21,0,0,1,1.1-3.1,2.7,2.7,0,0,1,.7-.8,1.78,1.78,0,0,1,1-.4,3,3,0,0,1,1,.2,2.36,2.36,0,0,1,.9.6.44.44,0,0,0,.5.1.52.52,0,0,0,.4-.2.76.76,0,0,0,.2-.5.52.52,0,0,0-.2-.4Z" transform="translate(-152 -306.28)"/><path class="cls-11" d="M1148.4,373.2a8.87,8.87,0,0,0-4.8,1,9,9,0,0,0-3.6,3.4,7.73,7.73,0,0,0-5.6,0,8.68,8.68,0,0,0-4.4-3.4,9.73,9.73,0,0,0-5.6-.2,8.63,8.63,0,0,0-4.6,3.1,8.32,8.32,0,0,0-1.9,5.2,9.09,9.09,0,0,0,5.9,8.9,11,11,0,0,0,2.6.6,9.22,9.22,0,0,0,8.2-4,8.94,8.94,0,0,0,1.5-4.5,8.18,8.18,0,0,0-1-4.6,6.94,6.94,0,0,1,4.5.1,7.27,7.27,0,0,0-.7,2.9,10,10,0,0,0,1.1,5.1,9.41,9.41,0,0,0,3.8,3.6,9.11,9.11,0,0,0,5.1.9,8.7,8.7,0,0,0,4.8-2.1,9.79,9.79,0,0,0,2.8-4.4,9.21,9.21,0,0,0-.1-5.2,9.58,9.58,0,0,0-8-6.4Zm-13.6,10a7.87,7.87,0,0,1-8.4,7.3,7.71,7.71,0,0,1-2.6-.7,9,9,0,0,1-3.6-3.1,8.26,8.26,0,0,1-1.1-4.6,7.67,7.67,0,0,1,2.4-5.1,6.83,6.83,0,0,1,2.8-1.7h0a6.91,6.91,0,0,1,3.2-.4,8.06,8.06,0,0,1,5.4,2.7,7.8,7.8,0,0,1,1.9,5.6Zm12.3,6.8a7.62,7.62,0,0,1-5.3-2.7,7.91,7.91,0,0,1-1.9-5.7v-.1a11.14,11.14,0,0,1,.8-3,8.76,8.76,0,0,1,1.9-2.4,7.2,7.2,0,0,1,2.7-1.5,10.55,10.55,0,0,1,3.1-.4,11.14,11.14,0,0,1,3,.8,7.49,7.49,0,0,1,2.4,1.9,7.2,7.2,0,0,1,1.5,2.7,10.55,10.55,0,0,1,.4,3.1,12.86,12.86,0,0,1-.4,1.9,8.5,8.5,0,0,1-3.1,4.1,8.67,8.67,0,0,1-5.1,1.3Z" transform="translate(-152 -306.28)"/><path class="cls-3" d="M1168.2,392a2,2,0,1,0-2-2A1.94,1.94,0,0,0,1168.2,392Z" transform="translate(-152 -306.28)"/><path class="cls-4" d="M1167.4,391.7a2,2,0,0,0,.8-.1,1.61,1.61,0,0,0,.7-.4,1.79,1.79,0,0,0,.5-.7,2.35,2.35,0,0,0,.2-.8,2.54,2.54,0,0,0-.2-1.2,2.07,2.07,0,0,1,.6,1,1.67,1.67,0,0,1-.1,1.2,1.76,1.76,0,0,1-.8.9,2.38,2.38,0,0,1-1.2.3,2.1,2.1,0,0,1-1.1-.4c.3.1.5.1.6.2Z" transform="translate(-152 -306.28)"/><path class="cls-4" d="M1167.2,393.4H1164l3.4,6.8Z" transform="translate(-152 -306.28)"/><path class="cls-4" d="M1133.2,408.5a22.59,22.59,0,0,0,10.7,2.9h2.5a3.4,3.4,0,0,0,1-.1h.2c.5-.1,1-.1,1.4-.2l.6-.1a22.88,22.88,0,0,0,7.3-2.7.75.75,0,0,1,.5-.1c.2,0,.3.1.4.3a.75.75,0,0,1,.1.5c0,.2-.1.3-.3.4a24.65,24.65,0,0,1-9.6,3.1,17.93,17.93,0,0,1-10.9,3.7,25,25,0,0,1-4.7-.5Z" transform="translate(-152 -306.28)"/><path class="cls-11" d="M1134.7,396.8c-.1,0-.1,0-.2.1s-.1.1-.2.1v.4a6.22,6.22,0,0,0,2.4,2.7,6.28,6.28,0,0,0,6.8,0,7.81,7.81,0,0,0,2.4-2.7V397c0-.1-.1-.1-.2-.1s-.1-.1-.2-.1Z" transform="translate(-152 -306.28)"/><path class="cls-4" d="M1096.4,473.2l-2.2,7.6-2.7,4.6a37.21,37.21,0,0,0-4.6,26.5h0l-8.8,18.3c-2.3,4.3-8.6,7.7-14.1,5.8l2.3,1.1a13.83,13.83,0,0,0,10,.5,12.87,12.87,0,0,0,7.5-6.6l9.2-18.3-.7-2.5a29.55,29.55,0,0,1-1.1-12.2,30.26,30.26,0,0,1,3.7-11.7l2.3-4.1v-9c0-.1-.1-.2-.1-.3a.5.5,0,0,0-.6,0c0,.1-.1.2-.1.3Z" transform="translate(-152 -306.28)"/><path d="M1054.4,531.6l1.2.6Z" transform="translate(-152 -306.28)"/><g class="cls-17"><path class="cls-4" d="M1277.2,506.4l-3.6-3.6a18.52,18.52,0,0,1,2.9,10.5,18.91,18.91,0,0,1-3.4,10.3l-34.2,49,3.8,3.1,35.5-49.1C1283.4,519.2,1282,511.5,1277.2,506.4Z" transform="translate(-152 -306.28)"/></g><path class="cls-5" d="M1090.2,589.5l-10.8-.9c-4.7-.4-9,5-9.6,11.9l-4,50c-.6,7,2.8,12.9,7.6,13.3l10.8.9c4.7.4,9-5,9.6-11.9l4-50C1098.4,595.9,1095,589.9,1090.2,589.5Z" transform="translate(-152 -306.28)"/><path class="cls-4" d="M1090.2,589.5l-10.8-.9c-4.7-.4-9,5-9.6,11.9l-4,50c-.6,7,2.8,12.9,7.6,13.3l10.8.9c4.7.4,9-5,9.6-11.9l4-50C1098.4,595.9,1095,589.9,1090.2,589.5Z" transform="translate(-152 -306.28)"/><path class="cls-5" d="M1101.3,601.3a8.63,8.63,0,0,0-17.2-1.4l-4.7,58.3a8.63,8.63,0,1,0,17.2,1.4Z" transform="translate(-152 -306.28)"/><path class="cls-6" d="M1101.3,601.3a8.63,8.63,0,0,0-17.2-1.4l-4.7,58.3a8.63,8.63,0,1,0,17.2,1.4Z" transform="translate(-152 -306.28)"/><path class="cls-5" d="M1091.7,585.9l-3.1-.2a2.24,2.24,0,0,0-2.4,2.1l-1.4,17a2.24,2.24,0,0,0,2.1,2.4l3.1.2a2.24,2.24,0,0,0,2.4-2.1l1.3-17A2.16,2.16,0,0,0,1091.7,585.9Z" transform="translate(-152 -306.28)"/><path class="cls-4" d="M1091.7,585.9l-3.1-.2a2.24,2.24,0,0,0-2.4,2.1l-1.4,17a2.24,2.24,0,0,0,2.1,2.4l3.1.2a2.24,2.24,0,0,0,2.4-2.1l1.3-17A2.16,2.16,0,0,0,1091.7,585.9Z" transform="translate(-152 -306.28)"/><path class="cls-4" d="M1078.7,626.5l-10.8-.9-.2,2.6,10.8.9Z" transform="translate(-152 -306.28)"/><path class="cls-4" d="M1093.2,597.4c.1-1.4-.6-2.6-1.5-2.7s-1.8,1-1.9,2.4.6,2.6,1.5,2.7S1093.1,598.8,1093.2,597.4Z" transform="translate(-152 -306.28)"/><path class="cls-6" d="M1075.4,608.1l-2-.2a1.48,1.48,0,0,0-1.6,1.4l-1,12a1.48,1.48,0,0,0,1.4,1.6l2,.2a1.48,1.48,0,0,0,1.6-1.4l1-12A1.47,1.47,0,0,0,1075.4,608.1Z" transform="translate(-152 -306.28)"/><path class="cls-18" d="M1089.3,596.5l11.4-157.4a3.44,3.44,0,0,0-.4-2,4,4,0,0,0-1.4-1.5,3.61,3.61,0,0,0-2-.6,4.55,4.55,0,0,0-2,.5c-.2.1-.4.3-.7.5" transform="translate(-152 -306.28)"/><path class="cls-4" d="M1209.3,481.5a16.43,16.43,0,0,1,.4-1.8c-4.9,11.3-9,21-9,21l-14.2,39.4a89,89,0,0,0-6.3,22.7,195.71,195.71,0,0,0-1.4,28.6h26.3a4,4,0,0,0,1.5-.3,2.73,2.73,0,0,0,1.2-.9,3.69,3.69,0,0,0,.7-1.4,3.81,3.81,0,0,0,.1-1.5,211.4,211.4,0,0,1-7.3-40.9,84.24,84.24,0,0,1,1.8-23.5Z" transform="translate(-152 -306.28)"/><path class="cls-9" d="M955.2,521.6l-47.7,5.9L888,553.4l14.4,117.3,92.4-11.4L980.4,542Zm-21.9,19.2a2.22,2.22,0,0,1-1.6-.3,4.26,4.26,0,0,1-1.2-1.1,3.17,3.17,0,0,1-.4-1.6,2,2,0,0,1,.6-1.5,3,3,0,0,1,1.4-1,2.48,2.48,0,0,1,1.7,0,4.19,4.19,0,0,1,1.4.9,3,3,0,0,1,.7,1.5,4.1,4.1,0,0,1-.1,1.1,3.13,3.13,0,0,1-.5,1,2.7,2.7,0,0,1-.8.7l-1.2.3Z" transform="translate(-152 -306.28)"/><path class="cls-8" d="M934.2,547.7a9.45,9.45,0,0,0,5.2-2.3,10.79,10.79,0,0,0,3.1-4.8,10,10,0,0,0-.1-5.7,10.37,10.37,0,0,0-3.3-4.7,10.26,10.26,0,0,0-5.3-2.1,10.07,10.07,0,0,0-5.6,1.3,9.62,9.62,0,0,0-3.9,4.1,9.86,9.86,0,0,0-1,5.6,12.34,12.34,0,0,0,1.2,3.7,9.89,9.89,0,0,0,2.5,2.9,9.08,9.08,0,0,0,3.4,1.7,8.1,8.1,0,0,0,3.8.3Zm-1.6-12.6a2.22,2.22,0,0,1,1.6.3,4.26,4.26,0,0,1,1.2,1.1,3.17,3.17,0,0,1,.4,1.6,2,2,0,0,1-.6,1.5,3,3,0,0,1-1.4,1,2.48,2.48,0,0,1-1.7,0,4.19,4.19,0,0,1-1.4-.9,3,3,0,0,1-.7-1.5,2.63,2.63,0,0,1,.6-2.1,4.21,4.21,0,0,1,2-1Z" transform="translate(-152 -306.28)"/><path class="cls-11" d="M948,565.5l8.8-1.1-22.4,75-8.8,1.1Zm-39,5,15.8-2a4.45,4.45,0,0,1,1.6.1,3.69,3.69,0,0,1,1.4.7,2.94,2.94,0,0,1,1,1.2,4.42,4.42,0,0,1,.5,1.5l3.5,27.6a4.28,4.28,0,0,1-.8,2.9,3.88,3.88,0,0,1-2.6,1.5l-15.8,2a4.45,4.45,0,0,1-1.6-.1,3.69,3.69,0,0,1-1.4-.7,2.94,2.94,0,0,1-1-1.2,4.42,4.42,0,0,1-.5-1.5l-3.5-27.6a4.45,4.45,0,0,1,.1-1.6,3.69,3.69,0,0,1,.7-1.4,2.94,2.94,0,0,1,1.2-1,7.37,7.37,0,0,1,1.4-.4ZM953,601l15.8-2a4.45,4.45,0,0,1,1.6.1,3.69,3.69,0,0,1,1.4.7,2.94,2.94,0,0,1,1,1.2,4.42,4.42,0,0,1,.5,1.5l3.6,27.6a4.45,4.45,0,0,1-.1,1.6,3.69,3.69,0,0,1-.7,1.4,2.94,2.94,0,0,1-1.2,1,4.42,4.42,0,0,1-1.5.5l-15.8,2a4.45,4.45,0,0,1-1.6-.1,3.69,3.69,0,0,1-1.4-.7,2.94,2.94,0,0,1-1-1.2,4.42,4.42,0,0,1-.5-1.5l-3.5-27.6a3.81,3.81,0,0,1,.1-1.5,3.69,3.69,0,0,1,.7-1.4,2.94,2.94,0,0,1,1.2-1,2.51,2.51,0,0,1,1.4-.6Zm-32.2-24.9-6,.8a.6.6,0,0,0-.4.1c-.1.1-.2.1-.3.2s-.1.2-.2.4v.4l2.5,19.7a.6.6,0,0,0,.1.4c.1.1.1.2.2.3s.2.1.4.2h.4l5.9-.8c.7-.1,1-.4.9-1.1L921.8,577a.6.6,0,0,0-.1-.4c-.1-.1-.1-.2-.2-.3s-.2-.1-.3-.2a.3.3,0,0,0-.4,0Zm44,30.4-6,.8a.6.6,0,0,0-.4.1c-.1.1-.2.1-.3.2s-.1.2-.2.4v.4l2.5,19.7a.6.6,0,0,0,.1.4c.1.1.1.2.2.3s.2.1.4.2h.4l5.9-.8c.7-.1,1-.5.9-1.1l-2.5-19.7a.6.6,0,0,0-.1-.4c-.1-.1-.1-.2-.2-.3s-.2-.1-.3-.2Z" transform="translate(-152 -306.28)"/><path class="cls-1" d="M932.4,540.9c0-.5-1-51.5-44.7-60.9l-1.7-.3c-.8,14.3-11.2,31.2-25.8,34.4-5.9,1.3-10.6-.1-13.3-4-3.4-5-2.6-12.9,2-19.7,7-10.3,20.1-14.9,35.5-12.6a16.2,16.2,0,0,0-.1-2.2c-.6-6.8-4.3-18.4-22.6-19.1-27.3-1-38.6,23.7-38.7,23.9l-1.5-.7c.1-.3,11.8-26,40.2-24.9,14.2.5,23,8,24.1,20.6a21.75,21.75,0,0,1,.1,2.6,14.16,14.16,0,0,1,2,.4c45,9.8,46,62,46,62.5Zm-48-61.6c-14.8-2.3-27.4,2-34.1,11.8-4.2,6.2-5,13.5-2,17.9,2.2,3.3,6.4,4.5,11.6,3.3,14-3,23.9-19.3,24.5-33Z" transform="translate(-152 -306.28)"/><path class="cls-19" d="M1374.1,1031H152.4a.35.35,0,0,1-.2-.1c-.1-.1-.1-.1-.1-.2a.35.35,0,0,0-.1-.2c0-.1,0-.2.1-.2s.1-.1.1-.2.1-.1.2-.1H1374.5a.35.35,0,0,1,.2.1c.1.1.1.1.1.2v.2C1374.9,1030.7,1374.5,1031,1374.1,1031Z" transform="translate(-152 -306.28)"/><path class="cls-20" d="M649.7,788.2l-46.8,84.7q-4.65,8.4-14.4,8.4h-8.3V822.5l-32.5,50.7c-3.5,5.4-8.6,8.1-15.4,8.1h-9.4l6.9-76.4H474l11.5-16.2,53-.4a17,17,0,0,1,9.2,2.4c3.4,2.2,5.2,5.8,5.2,10.5a17,17,0,0,1-.1,2.2L548,848.2l31.6-50.1a27.16,27.16,0,0,1,6-7.3c2.5-1.8,5.8-2.6,10.1-2.6h6.5v58.7l31.7-58.7Z" transform="translate(-152 -306.28)"/><circle class="cls-20" cx="378.9" cy="592.72" r="11.9"/><circle class="cls-20" cx="433.6" cy="592.72" r="11.9"/><text class="cls-21" transform="translate(341.77 629.86)">whodeysell</text><path class="cls-11" d="M1173,460.1l-16.1,26.5a5.26,5.26,0,0,1-4.9,2.6h-2.8V470.8L1138,486.6a6.07,6.07,0,0,1-5.3,2.5h-3.2l2.4-23.9h-19.2l3.9-5.1,18.3-.1a6.6,6.6,0,0,1,3.2.8,3.55,3.55,0,0,1,1.8,3.3v.7l-1.6,14,10.9-15.6a9.79,9.79,0,0,1,2.1-2.3,6.06,6.06,0,0,1,3.5-.8h2.2v18.3l10.9-18.3Z" transform="translate(-152 -306.28)"/><ellipse class="cls-11" cx="980.1" cy="188.52" rx="4.1" ry="3.7"/><ellipse class="cls-11" cx="998.9" cy="188.52" rx="4.1" ry="3.7"/><text class="cls-22" transform="translate(967.26 200.1) scale(1.1 1)">whodeysell</text></svg>