<svg id="Layer_1" data-name="Layer 1" xmlns="http://www.w3.org/2000/svg" viewBox="0 0 1075.99 703.38"><defs><style>.cls-1{fill:#b2b6bb;}.cls-12,.cls-14,.cls-17,.cls-18,.cls-19,.cls-2,.cls-22,.cls-23,.cls-24,.cls-25,.cls-26,.cls-27,.cls-29,.cls-3,.cls-30,.cls-32,.cls-9{isolation:isolate;}.cls-2{opacity:0.1;}.cls-23,.cls-26,.cls-28,.cls-29,.cls-3{opacity:0.2;}.cls-4{fill:#868a91;}.cls-5{fill:#afb3b8;}.cls-6{fill:#d7dadc;}.cls-7{fill:#479e7a;}.cls-19,.cls-8,.cls-9{opacity:0.15;}.cls-10{fill:#fc9d9d;}.cls-11{fill:#21252b;}.cls-12,.cls-18,.cls-22,.cls-24,.cls-25,.cls-30{opacity:0.3;}.cls-13{fill:#3f4249;}.cls-14{opacity:0.6;}.cls-15,.cls-17,.cls-19,.cls-29,.cls-30,.cls-32{fill:#fff;}.cls-16{fill:#61656d;}.cls-17{opacity:0.4;}.cls-18,.cls-24,.cls-25,.cls-26{fill:none;stroke:#000;stroke-miterlimit:10;}.cls-18{stroke-width:0.5px;}.cls-20{fill:#956363;}.cls-21{fill:#25282f;}.cls-22,.cls-23{fill:#231f20;}.cls-24,.cls-25{stroke-linecap:round;}.cls-24{stroke-width:1.5px;}.cls-25{stroke-width:1.47px;}.cls-27,.cls-31,.cls-32{opacity:0.5;}.cls-33{fill:#dadddf;}</style></defs><path class="cls-1" d="M1313.65,1048.38H240.38a1.73,1.73,0,0,1,0-3.38H1313.65a1.73,1.73,0,0,1,0,3.38Z" transform="translate(-239.02 -345)"/><path class="cls-1" d="M742,774.4H266.69v16.82H742Z" transform="translate(-239.02 -345)"/><path class="cls-1" d="M472.78,791.23H287.72v254H472.78Z" transform="translate(-239.02 -345)"/><path class="cls-1" d="M714.19,791.23H630.91v254h83.28Z" transform="translate(-239.02 -345)"/><path class="cls-2" d="M339,791.23H287.72V1046.1H339Z" transform="translate(-239.02 -345)"/><path class="cls-3" d="M472.78,791.23H287.72v8.41H472.78Z" transform="translate(-239.02 -345)"/><path class="cls-3" d="M714.19,791.23H630.91v8.41h83.28Z" transform="translate(-239.02 -345)"/><path class="cls-2" d="M700.73,791.23H630.91V1046.1h69.82Z" transform="translate(-239.02 -345)"/><path class="cls-4" d="M611.94,640H455.26a3.15,3.15,0,0,0-3.14,3.14v100.4a3.15,3.15,0,0,0,3.14,3.14H611.94a3.15,3.15,0,0,0,3.14-3.14V643.14A3.15,3.15,0,0,0,611.94,640Z" transform="translate(-239.02 -345)"/><path class="cls-3" d="M611.94,640H455.26a3.15,3.15,0,0,0-3.14,3.14v100.4a3.15,3.15,0,0,0,3.14,3.14H611.94a3.15,3.15,0,0,0,3.14-3.14V643.14A3.15,3.15,0,0,0,611.94,640Z" transform="translate(-239.02 -345)"/><path class="cls-4" d="M616.14,640H459.46a3.15,3.15,0,0,0-3.14,3.14v100.4a3.15,3.15,0,0,0,3.14,3.14H616.14a3.15,3.15,0,0,0,3.14-3.14V643.14A3.15,3.15,0,0,0,616.14,640Z" transform="translate(-239.02 -345)"/><path class="cls-4" d="M553.14,703.84H525a3.15,3.15,0,0,0-3.14,3.14v64.28A3.15,3.15,0,0,0,525,774.4h28.16a3.15,3.15,0,0,0,3.14-3.14V707A3.15,3.15,0,0,0,553.14,703.84Z" transform="translate(-239.02 -345)"/><path class="cls-3" d="M553.14,703.84H525a3.15,3.15,0,0,0-3.14,3.14v64.28A3.15,3.15,0,0,0,525,774.4h28.16a3.15,3.15,0,0,0,3.14-3.14V707A3.15,3.15,0,0,0,553.14,703.84Z" transform="translate(-239.02 -345)"/><path class="cls-4" d="M576.73,766H497.19a2.25,2.25,0,0,0-1.18.34,2.32,2.32,0,0,0-.82.91l-3.58,7.15h90.72l-3.58-7.15a2.35,2.35,0,0,0-.83-.91A2.28,2.28,0,0,0,576.73,766Z" transform="translate(-239.02 -345)"/><path class="cls-3" d="M576.73,766H497.19a2.25,2.25,0,0,0-1.18.34,2.32,2.32,0,0,0-.82.91l-3.58,7.15h90.72l-3.58-7.15a2.35,2.35,0,0,0-.83-.91A2.28,2.28,0,0,0,576.73,766Z" transform="translate(-239.02 -345)"/><path class="cls-1" d="M553.14,703.84h-24A3.15,3.15,0,0,0,526,707v64.28a3.15,3.15,0,0,0,3.14,3.14h24a3.15,3.15,0,0,0,3.14-3.14V707A3.15,3.15,0,0,0,553.14,703.84Z" transform="translate(-239.02 -345)"/><path class="cls-4" d="M580.93,766H501.39a2.25,2.25,0,0,0-1.18.34,2.32,2.32,0,0,0-.82.91l-3.58,7.15h90.72L583,767.25a2.35,2.35,0,0,0-.83-.91A2.28,2.28,0,0,0,580.93,766Z" transform="translate(-239.02 -345)"/><path class="cls-5" d="M358.36,771.4H314.68v3h43.68Z" transform="translate(-239.02 -345)"/><path class="cls-6" d="M358.36,756.33H314.68v18h43.68Z" transform="translate(-239.02 -345)"/><path class="cls-5" d="M358.36,756.33H314.67v3h43.69v15.06h60.52v-18Z" transform="translate(-239.02 -345)"/><path class="cls-7" d="M418.88,756.33H314.67v3h43.69V771.4H314.68v3h104.2Z" transform="translate(-239.02 -345)"/><path class="cls-6" d="M394,762.6H368.49v6.46H394Z" transform="translate(-239.02 -345)"/><path class="cls-6" d="M400.41,765.35a5.29,5.29,0,0,1,.9-3,5.35,5.35,0,0,1,2.39-2,5.34,5.34,0,0,1,7.27,3.89,5.33,5.33,0,0,1-.31,3.08,5.33,5.33,0,0,1-4.92,3.29,5.49,5.49,0,0,1-2-.4,5.38,5.38,0,0,1-2.89-2.89,5.49,5.49,0,0,1-.4-2Zm1.82,0a3.53,3.53,0,0,0,2.16,3.25A3.51,3.51,0,0,0,409,764a3.49,3.49,0,0,0-1.29-1.58,3.52,3.52,0,0,0-4.43.43,3.5,3.5,0,0,0-1,2.48" transform="translate(-239.02 -345)"/><path class="cls-6" d="M365.9,741.23H330.72v15.11H365.9Z" transform="translate(-239.02 -345)"/><path class="cls-5" d="M330.72,741.23h83.92v15.1H365.89V743.62H330.72Z" transform="translate(-239.02 -345)"/><path class="cls-5" d="M366.61,753.36H330.72v3h35.89Z" transform="translate(-239.02 -345)"/><path class="cls-7" d="M365.89,741.23H330.72v2.39h35.17v9.74H330.72v3h83.92v-15.1Z" transform="translate(-239.02 -345)"/><path class="cls-6" d="M394.63,746.27H374.06v5.2h20.57Z" transform="translate(-239.02 -345)"/><path class="cls-6" d="M399.77,748.49a4.29,4.29,0,1,1,8.25,1.63,4.29,4.29,0,0,1-8.25-1.63Zm1.46,0a2.82,2.82,0,0,0,.48,1.57,2.86,2.86,0,0,0,2.9,1.21,2.86,2.86,0,0,0,2.23-2.23,2.86,2.86,0,0,0-1.21-2.9,2.83,2.83,0,0,0-4.4,2.35" transform="translate(-239.02 -345)"/><g class="cls-8"><g class="cls-8"><path class="cls-9" d="M414.64,755.37H330.72v1h83.92Z" transform="translate(-239.02 -345)"/></g></g><path class="cls-10" d="M992.21,1034.43H969.15l-4.27-38.56,27.25.08Z" transform="translate(-239.02 -345)"/><path class="cls-10" d="M902.36,1007.42l-1.54,22.42-44.94,2.06,15-14.9c2.84-2,4.59-6.46,5.17-9.84Z" transform="translate(-239.02 -345)"/><path class="cls-9" d="M897.3,1019.25v-4.85a3.74,3.74,0,0,0-3.42-3.7l-18.32-1.58.44-2,26.36.26-.81,11.83Z" transform="translate(-239.02 -345)"/><path class="cls-11" d="M992.75,691.17,886.23,692.9l-12.39,314,30.12,1,29.87-258.29a3.29,3.29,0,0,1,1.07-2.08,3.26,3.26,0,0,1,2.18-.85h0a3.24,3.24,0,0,1,3.36,2.93l24.15,258.29H994.7Z" transform="translate(-239.02 -345)"/><path class="cls-12" d="M992.75,691.17l2,316.74h-5.35l-8.26-316.55Z" transform="translate(-239.02 -345)"/><path class="cls-12" d="M933.83,749.62,904,1007.91h-9.28L922.33,751.5c2-10,14.75-4.81,14.75-4.81a3.3,3.3,0,0,0-3.25,2.93Z" transform="translate(-239.02 -345)"/><path class="cls-13" d="M968.76,1020.25l-.08,2.18a16.6,16.6,0,0,1-1,5.4l-2.74,7.58a20.3,20.3,0,0,0-1.14,6.68v.38a2.73,2.73,0,0,0,.26,1.09,2.94,2.94,0,0,0,.67.9,2.82,2.82,0,0,0,1,.56,2.62,2.62,0,0,0,1.11.15H994a2.86,2.86,0,0,0,3-2.7v-1a18.92,18.92,0,0,0-.91-5.78l-2.35-7.73a15,15,0,0,1-.76-4.88v-2.85a7,7,0,0,0-2-4.8l-.38-.45a13.61,13.61,0,0,0-19-.23l-.69.68A7.44,7.44,0,0,0,968.76,1020.25Z" transform="translate(-239.02 -345)"/><path class="cls-10" d="M953.94,534c0,.48-11.81,26.39-20.48,26.77-7.53.38-12.29-24-12.2-24.48l.58-12.67V517c-.39-1.52-2.2-2.95-2.2-4.95-.57-9.24-1.61-17.62-1.61-17.62s30.19-20.2,32.1,3.33l1.76,3.43Z" transform="translate(-239.02 -345)"/><path class="cls-14" d="M963.82,1040.36h33.1a5.33,5.33,0,0,1,.08,1.13v1a2.73,2.73,0,0,1-.26,1.09,2.94,2.94,0,0,1-.67.9,2.82,2.82,0,0,1-1,.56,2.62,2.62,0,0,1-1.11.15H966.78a2.86,2.86,0,0,1-3-2.7v-2.11Z" transform="translate(-239.02 -345)"/><path class="cls-13" d="M901.27,1018l-10.73,3.3a4.79,4.79,0,0,1-4.52-.92l-8.48-7.15a5.34,5.34,0,0,0-6.68-.15l-19.14,14.68-15.09,4.93a10.86,10.86,0,0,0-7.47,10.22,2.41,2.41,0,0,0,2.41,2.39h66.9a5.74,5.74,0,0,0,2.2-.42,5.72,5.72,0,0,0,3.11-3.08,5.5,5.5,0,0,0,.45-2.19v-19.46a2.36,2.36,0,0,0-.26-1,2.32,2.32,0,0,0-.69-.8,2.26,2.26,0,0,0-1-.4,2.33,2.33,0,0,0-1.05.06Z" transform="translate(-239.02 -345)"/><path class="cls-14" d="M904.15,1040.56H829.47a8.32,8.32,0,0,0-.31,2.38,2.41,2.41,0,0,0,2.41,2.39h66.9a5.78,5.78,0,0,0,3.71-1.35A5.72,5.72,0,0,0,904.15,1040.56Z" transform="translate(-239.02 -345)"/><path class="cls-15" d="M871.79,1020.72l-4-4.31a.6.6,0,0,1,0-.84.63.63,0,0,1,.86,0l4,4.3a.5.5,0,0,1,.13.19.5.5,0,0,1,.05.23.52.52,0,0,1-.05.24.59.59,0,0,1-.13.19.54.54,0,0,1-.38.15,1,1,0,0,1-.48-.15Z" transform="translate(-239.02 -345)"/><path class="cls-15" d="M868.6,1023.18l-4-4.31a.5.5,0,0,1-.13-.19.55.55,0,0,1,0-.46.5.5,0,0,1,.13-.19.61.61,0,0,1,.43-.17.61.61,0,0,1,.42.17l4,4.3a.61.61,0,0,1,.17.42.61.61,0,0,1-.17.43.63.63,0,0,1-.39.15,1.16,1.16,0,0,1-.51-.15Z" transform="translate(-239.02 -345)"/><path class="cls-15" d="M904.83,541.18l14.28-2.64.49-1.92.38-4a.79.79,0,0,1,.08-.26.68.68,0,0,1,.17-.21.55.55,0,0,1,.24-.12.63.63,0,0,1,.27,0,141.9,141.9,0,0,0,33.65-.83.67.67,0,0,1,.51.12.71.71,0,0,1,.28.43l.79,5.1,10.25,1.37,2.56,154.18H901.3Z" transform="translate(-239.02 -345)"/><path class="cls-3" d="M958.35,536.74l-7.19,51A124,124,0,0,0,950,604.3l-.46,101,2.5-.3Z" transform="translate(-239.02 -345)"/><path class="cls-15" d="M865.41,1025.64l-4-4.31a.5.5,0,0,1-.13-.19.55.55,0,0,1,0-.46.5.5,0,0,1,.13-.19.61.61,0,0,1,.43-.17.61.61,0,0,1,.42.17l4,4.31a.57.57,0,0,1,.16.64.64.64,0,0,1-.22.27.63.63,0,0,1-.33.09.65.65,0,0,1-.46-.16Z" transform="translate(-239.02 -345)"/><path class="cls-15" d="M986.75,1021.45a.74.74,0,0,0,0-.51.77.77,0,0,0-.32-.39,13,13,0,0,0-11.31,0,.86.86,0,0,0-.22.15.76.76,0,0,0-.13.23.63.63,0,0,0,0,.27.59.59,0,0,0,.07.25.65.65,0,0,0,.16.21.79.79,0,0,0,.23.14l.26,0a.79.79,0,0,0,.26-.08,11.82,11.82,0,0,1,10,0,.48.48,0,0,0,.31.08.79.79,0,0,0,.4-.1.73.73,0,0,0,.3-.28Z" transform="translate(-239.02 -345)"/><path class="cls-15" d="M986.75,1024.9a.74.74,0,0,0,0-.51.77.77,0,0,0-.32-.39,13,13,0,0,0-11.31,0,.86.86,0,0,0-.22.15.76.76,0,0,0-.13.23.63.63,0,0,0,0,.27.59.59,0,0,0,.07.25.65.65,0,0,0,.16.21.79.79,0,0,0,.23.14l.26,0a.79.79,0,0,0,.26-.08,11.72,11.72,0,0,1,10,0,.48.48,0,0,0,.31.08.79.79,0,0,0,.4-.1.73.73,0,0,0,.3-.28Z" transform="translate(-239.02 -345)"/><path class="cls-15" d="M986.75,1028.28a.74.74,0,0,0,0-.51.77.77,0,0,0-.32-.39,13,13,0,0,0-11.31,0,.69.69,0,0,0-.22.16.61.61,0,0,0-.13.22.63.63,0,0,0,0,.27.59.59,0,0,0,.07.25.65.65,0,0,0,.16.21.79.79,0,0,0,.23.14l.26,0a.79.79,0,0,0,.26-.08,11.82,11.82,0,0,1,10,0,.48.48,0,0,0,.31.08.9.9,0,0,0,.4-.09.83.83,0,0,0,.3-.29Z" transform="translate(-239.02 -345)"/><path class="cls-3" d="M919.11,538.54,925,602l-1.9,122.93a1.88,1.88,0,0,1-.57,1.32,1.9,1.9,0,0,1-1.33.55H883.26L915.85,539Z" transform="translate(-239.02 -345)"/><path class="cls-9" d="M966.42,1009.74l17.58,1a6.28,6.28,0,0,1,5.41,3.78l1.4,3.31h1.72l-.32-10h-26Z" transform="translate(-239.02 -345)"/><path class="cls-7" d="M953.31,725.37h35.58a2,2,0,0,0,2-1.9l5.8-108.16-4.35-10.88-12.06-42.61-13.06-23.63-8.87-1.45-6.41,58.42-.64,128.2a2,2,0,0,0,.15.77,2.07,2.07,0,0,0,1.09,1.09,2,2,0,0,0,.77.15Z" transform="translate(-239.02 -345)"/><path class="cls-16" d="M1016.11,690.66l-65.4-15.79a2.79,2.79,0,0,0-3.37,2.06l-11.29,46.75a2.79,2.79,0,0,0,2.06,3.37l65.4,15.79a2.79,2.79,0,0,0,3.37-2.06L1018.17,694A2.78,2.78,0,0,0,1016.11,690.66Z" transform="translate(-239.02 -345)"/><path class="cls-12" d="M1016.11,690.66l-65.4-15.79a2.79,2.79,0,0,0-3.37,2.06l-11.29,46.75a2.79,2.79,0,0,0,2.06,3.37l65.4,15.79a2.79,2.79,0,0,0,3.37-2.06L1018.17,694A2.78,2.78,0,0,0,1016.11,690.66Z" transform="translate(-239.02 -345)"/><path class="cls-16" d="M1018,691.13l-65.4-15.79a2.78,2.78,0,0,0-3.36,2.06L938,724.16a2.78,2.78,0,0,0,2.06,3.36l65.4,15.79a2.78,2.78,0,0,0,3.36-2.06l11.29-46.76A2.79,2.79,0,0,0,1018,691.13Z" transform="translate(-239.02 -345)"/><path class="cls-17" d="M981.05,707.25a2.23,2.23,0,0,1-.35-.88,3.33,3.33,0,0,1,.55-2.43.93.93,0,0,0,.15-.45,1.08,1.08,0,0,0-.07-.47,1,1,0,0,0-.28-.38,1.15,1.15,0,0,0-.43-.21,5.47,5.47,0,0,0-3,.18,4,4,0,0,0-1.84,1.24,5,5,0,0,0-1.22,3.64,5,5,0,0,0,8.8,3,1,1,0,0,0,.21-.44.91.91,0,0,0,0-.49,1,1,0,0,0-.67-.67A3.6,3.6,0,0,1,981.05,707.25Z" transform="translate(-239.02 -345)"/><path class="cls-18" d="M949.5,678.5l70,17" transform="translate(-239.02 -345)"/><path class="cls-3" d="M997.34,604.43l-17.06-42.61c-6.56.12-9.55,4.93-8.66,11.44l9.6,60.28L967,705l-1,2.27a53.14,53.14,0,0,0-3.11,9.77L959,733l25,5,3.66-6.23L990,717l9-30-5-48Z" transform="translate(-239.02 -345)"/><path class="cls-10" d="M782.62,640.83l17.56,8.84L807,649l3.23,11.76-8.15,1.42-17.86,11.1-16.56-11.74,5.8-14.4Z" transform="translate(-239.02 -345)"/><path class="cls-7" d="M860.63,627.34,804.86,642.5,810,662l60.44-8.61a18.35,18.35,0,0,0,12.95-7.9l-2,77.75a2.19,2.19,0,0,0,.12.8,2.13,2.13,0,0,0,.42.69,2.22,2.22,0,0,0,.67.46,2.14,2.14,0,0,0,.79.16L919,725a2,2,0,0,0,2-2l2-123-5.5-61.3-29.91,5.39a25.89,25.89,0,0,0-9.27,4.28A20.38,20.38,0,0,0,870.27,562Z" transform="translate(-239.02 -345)"/><path class="cls-10" d="M988,701.7l-.32,9.52-1.24,14.14c-.25,2.6-.34,4.43-1.79,6.61l-4.87,6.35a2.31,2.31,0,0,1-1.06.68,2.34,2.34,0,0,1-1.26,0,2.06,2.06,0,0,1-.63-.31,2.13,2.13,0,0,1-.57-.59,2,2,0,0,1-.29-.77,2.06,2.06,0,0,1,0-.82,2.1,2.1,0,0,1,.33-.75l-.59.79a2.83,2.83,0,0,1-1.34,1,2.77,2.77,0,0,1-1.66,0,2.61,2.61,0,0,1-.74-.34,2.74,2.74,0,0,1-.78-3.78l-1,1.55a2.45,2.45,0,0,1-3.41.7,2.52,2.52,0,0,1-1.06-1.56,2.46,2.46,0,0,1,.36-1.85l1.3-2-2.21,3.29a2.41,2.41,0,0,1-2.65,1,1.94,1.94,0,0,1-.42-.17,2.35,2.35,0,0,1-1-3.16l1.62-4.2,1.63-5.48c1.25-4.18,1.9-7.23,4.24-11.27l.67-1.14a28.7,28.7,0,0,1,3.34-4.56c1.13-1.26,2.41-3,2.36-4.62Z" transform="translate(-239.02 -345)"/><path class="cls-9" d="M977.2,739.11a1.83,1.83,0,0,1-.63-.3,2.13,2.13,0,0,1-.57-.59,2,2,0,0,1-.29-.77,2.06,2.06,0,0,1,0-.82,2,2,0,0,1,.33-.75l-.58.78a2.83,2.83,0,0,1-3,1,2.92,2.92,0,0,1-.74-.34,2.71,2.71,0,0,1-.76-.75,2.66,2.66,0,0,1-.41-1,2.7,2.7,0,0,1,0-1.06,2.52,2.52,0,0,1,.4-1l-1,1.55a2.46,2.46,0,0,1-4.1-2.71l1.29-2-2.2,3.29a2.43,2.43,0,0,1-2.66,1,3.69,3.69,0,0,1-.42-.17,2.35,2.35,0,0,1-1-3.16l2.42-4.89.17-.56.87.87a2.45,2.45,0,0,0,.9.66,2.33,2.33,0,0,0,1.1.21l.71-.06a2.85,2.85,0,0,1,1.75.62l1.06.84a2.37,2.37,0,0,0,1.39.55l.82.09a2.35,2.35,0,0,1,1.43.55l.92.71a2.79,2.79,0,0,0,1.58.52h1.6a2.52,2.52,0,0,1,1.69.58,2.52,2.52,0,0,0,2.4.46l2.5-.13-4.55,5.91a2.23,2.23,0,0,1-2.44.84Z" transform="translate(-239.02 -345)"/><g class="cls-8"><path class="cls-9" d="M968.1,730.44a.41.41,0,0,0,.08-.32.46.46,0,0,0-.17-.28.47.47,0,0,0-.33-.06.48.48,0,0,0-.27.19l-1.81,2.53.72.56Z" transform="translate(-239.02 -345)"/></g><g class="cls-8"><path class="cls-19" d="M971.34,734.11l1.63-2.24v0a0,0,0,0,0,0,0l0,0h-.14L971.17,734Z" transform="translate(-239.02 -345)"/><path class="cls-9" d="M973,731.43l.09,0a.24.24,0,0,1,.06.08.55.55,0,0,1,.16.3.54.54,0,0,1,0,.33l-1.81,2.53-.71-.57,1.8-2.52a.41.41,0,0,1,.22-.19.45.45,0,0,1,.28,0Z" transform="translate(-239.02 -345)"/></g><g class="cls-8"><path class="cls-19" d="M975.68,736.2l1.65-2.31v-.11h-.11L975.57,736Z" transform="translate(-239.02 -345)"/><path class="cls-9" d="M977.39,733.35c.08,0,.08,0,.14.13a.51.51,0,0,1,.17.3.48.48,0,0,1-.06.33l-1.8,2.52-.71-.56,1.8-2.52a.41.41,0,0,1,.22-.19.45.45,0,0,1,.28,0Z" transform="translate(-239.02 -345)"/></g><path class="cls-15" d="M971,704l-2,5,19,6,2-7Z" transform="translate(-239.02 -345)"/><path class="cls-3" d="M883,645c0,3-5.35,7.49-12.56,8.39l-60.25,9-.72-2.8,58-9.24c7.21-.9,11.57-5.67,12.36-12.89,1.67-15.34,3.25-39.22,3.9-49.51.17-2.81.5-5,3.32-5Z" transform="translate(-239.02 -345)"/><path class="cls-3" d="M793.67,652.66s2.63,0,4-3.22a.53.53,0,0,1,.27-.27.41.41,0,0,1,.19,0,.42.42,0,0,1,.19,0,.53.53,0,0,1,.27.27.59.59,0,0,1,0,.19.65.65,0,0,1,0,.19,6.72,6.72,0,0,1-1.47,2.28,6.59,6.59,0,0,1-2.27,1.49Z" transform="translate(-239.02 -345)"/><path class="cls-7" d="M1014.76,629.07l.24-.07-5.89-65.75c-.21-.94-.43-1.83-.65-2.69v-.07c-4-15.63-9.22-17-18.58-19.84a24.88,24.88,0,0,0-3.82-.78l-27.69-3.13-.37,4.49L973,562l6.86,39.45L985,632.18,970,706l19,6.26,21.11-62.72c.9-2.7,2-5.35,3-8,1.5-3.8,2.32-8.59,1.65-12.23Z" transform="translate(-239.02 -345)"/><path class="cls-20" d="M634.42,1033.43h22.8l4.21-38.56L634.5,995Z" transform="translate(-239.02 -345)"/><path class="cls-3" d="M636.77,1018.81l.93-5.7a4.19,4.19,0,0,1,3.9-3.51l18.34-1,.18-1.65H634.48v15.52Z" transform="translate(-239.02 -345)"/><path class="cls-21" d="M636.77,1018.81l.69-.6c5.17-4.48,14.07-4.43,19.09.2l.38.39a5.84,5.84,0,0,1,2,4.22v2.51a12.08,12.08,0,0,0,.75,4.29l2.36,6.8a14.71,14.71,0,0,1,.91,5.08v.85c0,1.33-1.37,2.38-3,2.38h-27.3a2.86,2.86,0,0,1-1-.08,2.49,2.49,0,0,1-.94-.49,2.65,2.65,0,0,1-.69-.8,2.78,2.78,0,0,1-.32-1v-.33a15.77,15.77,0,0,1,1.14-5.87l2.74-6.66a12.91,12.91,0,0,0,1-4.75l.08-1.91a6.24,6.24,0,0,1,2.16-4.22Z" transform="translate(-239.02 -345)"/><path class="cls-20" d="M692.36,549.32l-23.12-12.57a3.7,3.7,0,0,1-.86-2.42l2.19-32L671,496c1.25-24.44,33.1-4.45,33.1-4.45s-.86,8.66-1.17,18.26a24.3,24.3,0,0,1-.63,5.63l2,19a3.65,3.65,0,0,1-.21,1.76,3.61,3.61,0,0,1-1,1.44Z" transform="translate(-239.02 -345)"/><path d="M705.7,493a11.87,11.87,0,1,0-11.87-11.87A11.86,11.86,0,0,0,705.7,493Z" transform="translate(-239.02 -345)"/><path class="cls-20" d="M707.73,474.29s11.32,47.47-13,50.67c-21.08,2.81-23.42-30.06-23.42-30.06l1-21.31Z" transform="translate(-239.02 -345)"/><path d="M699.44,454.47c-6.56,0-12.31,2.75-15.53,6.87a7.27,7.27,0,0,1-6.85,2.57,19.8,19.8,0,0,0-2.31.06c-21.11,1.48-18.11,33,1,30.46,4-.55,7.64-3.39,9.67-7.93a6.81,6.81,0,0,1,8.06-3.83,22.08,22.08,0,0,0,6,.8c10.1,0,18.28-6.49,18.28-14.5S709.54,454.47,699.44,454.47Z" transform="translate(-239.02 -345)"/><path class="cls-3" d="M670.44,503.91a5.36,5.36,0,0,0,3.13-.71l-3.44,5.31Z" transform="translate(-239.02 -345)"/><path class="cls-20" d="M671.74,491.23a4.57,4.57,0,0,0-1-1.62,4.31,4.31,0,0,0-1.58-1,4.38,4.38,0,0,0-1.86-.29,4.31,4.31,0,0,0-1.82.53c-5.31,2.35-4.22,14.37,4.76,15.07,4.68.39,3.74-2.34,3-6Z" transform="translate(-239.02 -345)"/><path class="cls-12" d="M665.26,491.94a3.5,3.5,0,0,1,1.22-.61,3.28,3.28,0,0,1,1.36-.1,3.16,3.16,0,0,1,2,1.64,6.51,6.51,0,0,1,.86,3.28l.07,1a.52.52,0,0,1,0,.21.63.63,0,0,1-.12.18.62.62,0,0,1-.17.11.57.57,0,0,1-.42,0,.42.42,0,0,1-.18-.11.57.57,0,0,1-.12-.18.52.52,0,0,1,0-.21l-.08-1a6.5,6.5,0,0,0-.7-2.73,2.71,2.71,0,0,0-1.33-1.17,2.6,2.6,0,0,0-1.71.47.64.64,0,0,1-.43.07.61.61,0,0,1-.36-.23A.53.53,0,0,1,665.26,491.94Z" transform="translate(-239.02 -345)"/><path class="cls-12" d="M703.91,528.79l-.78-7.66c-2,2.11-7.89,5.16-14.53,3.6a16.24,16.24,0,0,1-8.51-5.31.47.47,0,0,0-.15-.13.39.39,0,0,0-.18-.06.44.44,0,0,0-.2,0,.59.59,0,0,0-.17.1.48.48,0,0,0-.18.33.49.49,0,0,0,.1.37,17.56,17.56,0,0,0,11.25,6,17.49,17.49,0,0,0,13.35,2.75Z" transform="translate(-239.02 -345)"/><path class="cls-12" d="M696.49,515.28c0,.08-.08.08,0,0l-3,.23a.64.64,0,0,1-.47-.17.68.68,0,0,1-.23-.45.57.57,0,0,1,0-.26.72.72,0,0,1,.12-.23.66.66,0,0,1,.22-.15.51.51,0,0,1,.25-.06l2.89-.24a.65.65,0,0,1,.47.13.62.62,0,0,1,.24.42C697,515,696.8,515.28,696.49,515.28Z" transform="translate(-239.02 -345)"/><path class="cls-12" d="M697.58,512.47c-5.31.78-7.73-2.11-8.59-3.51a.67.67,0,0,1,0-.48.69.69,0,0,1,.29-.38.62.62,0,0,1,.48-.05.66.66,0,0,1,.38.28c.78,1.41,3.43,4.45,9.83,2.34a.66.66,0,0,1,.46.06.68.68,0,0,1,.32.33.67.67,0,0,1-.05.46.63.63,0,0,1-.34.32,14.23,14.23,0,0,1-2.73.63Z" transform="translate(-239.02 -345)"/><path d="M690.24,498.41a1.95,1.95,0,1,0-2-2A1.95,1.95,0,0,0,690.24,498.41Z" transform="translate(-239.02 -345)"/><path class="cls-15" d="M691.1,496.23a.38.38,0,0,0,.39-.39.39.39,0,0,0-.39-.39.4.4,0,0,0-.39.39A.39.39,0,0,0,691.1,496.23Z" transform="translate(-239.02 -345)"/><path d="M705.7,498.49a2,2,0,1,0-2-1.95A1.95,1.95,0,0,0,705.7,498.49Z" transform="translate(-239.02 -345)"/><path class="cls-15" d="M706.56,496.31a.39.39,0,1,0-.39-.39A.38.38,0,0,0,706.56,496.31Z" transform="translate(-239.02 -345)"/><path class="cls-12" d="M699,507.71l-2.58.15a.64.64,0,0,1-.41-.16.68.68,0,0,1-.21-.38.62.62,0,0,1,.16-.41.7.7,0,0,1,.38-.22l2.58-.15a1.19,1.19,0,0,0,.76-.42,1.14,1.14,0,0,0,.26-.83,1.15,1.15,0,0,0-.37-.78,1.17,1.17,0,0,0-.81-.32.67.67,0,0,1-.62-.54c-.08-.32.23-.55.55-.63a2.39,2.39,0,0,1,1.66.56,2.27,2.27,0,0,1,.26,3.28,2.4,2.4,0,0,1-1.61.85Z" transform="translate(-239.02 -345)"/><path d="M713.56,492.31H683.72a3.28,3.28,0,0,0-1.2.23,3.2,3.2,0,0,0-1,.68,3,3,0,0,0-.68,1,3.1,3.1,0,0,0-.24,1.2v2.44a8.53,8.53,0,0,0,17.06,0v-2.44a3,3,0,0,0-.7-1.91h3.31a2.93,2.93,0,0,0-.61,1.91v2.44a8.53,8.53,0,0,0,17.06,0v-2.44a3.1,3.1,0,0,0-.24-1.2,2.9,2.9,0,0,0-.68-1,3.2,3.2,0,0,0-1-.68,3.28,3.28,0,0,0-1.2-.23Zm-17.14,3.13v2.44a7.27,7.27,0,0,1-14.53.09v-2.44a1.93,1.93,0,0,1,1.91-1.91h10.79a1.83,1.83,0,0,1,1.83,1.82Zm19.06,2.44A7.27,7.27,0,0,1,701,498v-2.44a2,2,0,0,1,.57-1.35,1.92,1.92,0,0,1,1.34-.56H713.7a1.9,1.9,0,0,1,1.35.56,2,2,0,0,1,.57,1.35Z" transform="translate(-239.02 -345)"/><path class="cls-20" d="M723.25,1006.42l1.52,22.42,44.43,2.06L754.42,1016c-2.81-2-4.54-6.46-5.12-9.84Z" transform="translate(-239.02 -345)"/><path class="cls-3" d="M727,1020.83v-5.92a4.06,4.06,0,0,1,3.6-4l19.31-2.18-.61-2.54-26,.26,1,14.41Z" transform="translate(-239.02 -345)"/><path class="cls-21" d="M723.86,1019.36s10.07,6.28,21.37.85a6.72,6.72,0,0,1,.27-3.5,6.59,6.59,0,0,1,2-2.87c1.87-1.47,5.68-2,6.71-.6s2.65,3.62,5.35,6.9c3.75,4.52,8.82,9.74,12.75,10.56,7.2,1.51,21.74-5.84,22.74,9.54,0,0-14.2,5.34-27.42,4a109.38,109.38,0,0,1-25.23-6v6.17H721.84S717.18,1027.06,723.86,1019.36Z" transform="translate(-239.02 -345)"/><path d="M720.34,1034.58a53.8,53.8,0,0,0,1.51,9.85h20.57v-6.18a109.38,109.38,0,0,0,25.23,6c13.22,1.34,27.41-4,27.41-4a18.17,18.17,0,0,0-.55-3.52,45.28,45.28,0,0,1-33.4,3c-7.55-2.19-13.64-3.71-19-5.23C742.14,1034.53,724.46,1034.15,720.34,1034.58Z" transform="translate(-239.02 -345)"/><path d="M759.57,1020.14c-2.7-3.28-4.33-5.54-5.35-6.9s-4.32-.93-6.29.31a7.6,7.6,0,0,0-2.16,2.52.81.81,0,0,1-.11.26l-.16.4a7.59,7.59,0,0,0-.27,3.48l-.22.1c.44,2.85,3.1,5,7.14,8.15,6.55,5,16,2.74,18.92,1.84C767.36,1028.8,762.93,1024.19,759.57,1020.14Z" transform="translate(-239.02 -345)"/><path class="cls-15" d="M673.07,713c10.93-96.73-8.75-155.83-15.69-176.2l11-3L692,549l12.76-14.83,4.61,1.64c.94,18.11,13.9,99.31,26.39,177.14H673.07Z" transform="translate(-239.02 -345)"/><path class="cls-7" d="M634.89,690.17l107.3,1.73,10.25,315H722.67L693.14,748.62a3.27,3.27,0,0,0-1-2.08,3.3,3.3,0,0,0-2.17-.85h0a3.2,3.2,0,0,0-3.32,2.93l-23.87,258.29H633Z" transform="translate(-239.02 -345)"/><path class="cls-3" d="M682.27,734.08s-7-170.93-12.95-190.78l3.53,2.93C676.2,556.75,682.7,568.65,687,614c2.75,29,1.54,105.32,1.31,118.22a1.92,1.92,0,0,1-.57,1.32,1.89,1.89,0,0,1-1.33.54Z" transform="translate(-239.02 -345)"/><path class="cls-7" d="M632.27,1000.47h32.22l-.59,6.44H632.17Z" transform="translate(-239.02 -345)"/><path class="cls-3" d="M634.89,690.17,633,1006.91h5.29l8.17-316.55Z" transform="translate(-239.02 -345)"/><path class="cls-7" d="M749.22,1000.4H721l.73,6.51h27.84Z" transform="translate(-239.02 -345)"/><path class="cls-7" d="M752.92,1000.4h-3.69l.39,6.51h3.56Z" transform="translate(-239.02 -345)"/><path class="cls-11" d="M682.6,734a2.46,2.46,0,0,0,2.46-2.4c.35-13.42,1.94-79.8-.06-106.6-3.65-49.39-13.54-79.87-17.09-91l-30.49,8.71c-11.83,3.38-17.93,15.46-15.14,27.44l1.83,12.13,12.34,70.59-3.3,78.75a2.55,2.55,0,0,0,.16,1,2.5,2.5,0,0,0,.53.83,2.55,2.55,0,0,0,.82.56,2.51,2.51,0,0,0,1,.2Z" transform="translate(-239.02 -345)"/><path class="cls-20" d="M827,607s10.3-3.53,12.94-5c2.06-1,10.71-7.31,10.71-7.31l12.47-7.19c1.77-1.35.08-3.38-1.36-2.4,0,0-11.71,4.83-11.79,4.71l14.54-9.43a1.55,1.55,0,0,0,.46-.46,1.77,1.77,0,0,0,.23-.59,1.58,1.58,0,0,0,0-.65,1.54,1.54,0,0,0-.27-.58,3.59,3.59,0,0,0-1.83-1.28l1-.58a1.72,1.72,0,0,0,.51-.46,1.83,1.83,0,0,0,.28-.62,1.74,1.74,0,0,0,0-.68,1.62,1.62,0,0,0-.25-.64h0a1.66,1.66,0,0,0-2.18-.53c-3.29,1.87-11.74,6.64-14.47,8.18a1.09,1.09,0,0,1-.36.12,1.16,1.16,0,0,1-.37,0,1,1,0,0,1-.34-.18,1.14,1.14,0,0,1-.23-.3h0a.94.94,0,0,1-.05-.68.88.88,0,0,1,.43-.53l10.89-6a1.9,1.9,0,0,0,.53-.45,1.77,1.77,0,0,0,.34-1.31,1.89,1.89,0,0,0-.24-.65h0a1.61,1.61,0,0,0-.94-.72,1.63,1.63,0,0,0-1.19.09c-3.74,1.81-14.14,6.81-17,7.69a5.25,5.25,0,0,1-1.3.25,3.54,3.54,0,0,1-.92,0l4.73-7.88a3.12,3.12,0,0,0-1.54-3.45,1.08,1.08,0,0,0-.69-.08,1,1,0,0,0-.59.35l-6.76,7.65c-.7,1.28-3.2,3.57-4.34,5.83l-5,9-12.32,6.46L818,612Z" transform="translate(-239.02 -345)"/><path class="cls-22" d="M849,585a.2.2,0,0,1-.11,0l-.08-.08a.25.25,0,0,1,0-.17.26.26,0,0,1,.11-.14l14.08-7.8a.2.2,0,0,1,.17,0,.21.21,0,0,1,.14.1l0,.08a.28.28,0,0,1,0,.09s0,.05,0,.08a.18.18,0,0,1-.07,0L849.08,585Z" transform="translate(-239.02 -345)"/><path class="cls-22" d="M835.16,591.1a.46.46,0,0,1-.23.06.44.44,0,0,1-.27-.09.43.43,0,0,1-.15-.24.39.39,0,0,1,0-.28.41.41,0,0,1,.18-.21c5.74-3.32,2.54-11.47,2.51-11.55a.38.38,0,0,1,0-.21,3.54,3.54,0,0,0,.92,0C838.55,579.83,841.08,587.67,835.16,591.1Z" transform="translate(-239.02 -345)"/><path class="cls-11" d="M825,609.79l-66.46,38.5a14,14,0,0,1-16.77-7.35l-30.54-76.57L742,550l20.91,64,53.68-22.39Z" transform="translate(-239.02 -345)"/><path class="cls-11" d="M743.79,733.64a2.38,2.38,0,0,0,1-.2,2.68,2.68,0,0,0,.79-.55,2.46,2.46,0,0,0,.53-.82,2.54,2.54,0,0,0,.17-1l-2.9-151.93C743.26,577,743,564.25,743,556c0-10-6.42-12.76-15.94-15.42L707.12,535v.5c1,18.52,3.79,120.33,6.76,196.1a2.57,2.57,0,0,0,.21.94,2.51,2.51,0,0,0,.55.78,2.67,2.67,0,0,0,.81.52,2.6,2.6,0,0,0,.95.16Z" transform="translate(-239.02 -345)"/><path class="cls-12" d="M824,607.71l-60.88,33.12,2.44,3.38L825,609.79Z" transform="translate(-239.02 -345)"/><path class="cls-12" d="M742,633V616.59l-1.68-37.4h2L745,639" transform="translate(-239.02 -345)"/><path class="cls-20" d="M800.55,661.34l-3.25-4.64-9-14.36-9.08,1.46-7,1L763,642l-3,15.76c6.14,1.58,10.65,7.17,10.65,7.17l10.65,6.17,2.23,2.64a2.54,2.54,0,0,0,.77.61,2.42,2.42,0,0,0,1,.27,2.44,2.44,0,0,0,1-.11,2.54,2.54,0,0,0,1.48-1.24,2.65,2.65,0,0,0,.27-.95,2.51,2.51,0,0,0-.11-1,2.6,2.6,0,0,0-.48-.86s-2.59-3.52-2.78-3.66c.14.16.84.67,1,.88l3.25,3.83a2.21,2.21,0,0,0,.63.51,2.07,2.07,0,0,0,2.3-.27l.46-.38A2.07,2.07,0,0,0,793,670a2.09,2.09,0,0,0-.48-1.52l-3.25-3.83c-.18-.2-.59-.87-.71-1,.14.12.79,1,1.09,1.31l2.66,3.13a2.67,2.67,0,0,0,1.81.93,2.64,2.64,0,0,0,1.94-.62,2.67,2.67,0,0,0,.93-1.81,2.64,2.64,0,0,0-.62-1.94l-2.67-3.13c-.42-.5-1.49-1.57-1.7-1.75.08.15,4,4.27,4,4.27,1,1.12,3.12,2,4.24,1.09a2.59,2.59,0,0,0,.66-.81,2.9,2.9,0,0,0,.3-1,2.75,2.75,0,0,0-.11-1,2.5,2.5,0,0,0-.5-.92Z" transform="translate(-239.02 -345)"/><path class="cls-23" d="M789.23,664.62a11.63,11.63,0,0,0-.71-1c-.56,1.39-2.55,2.68-3.94,3.21.08.14,4.27,4.71,4.27,4.71a2.21,2.21,0,0,0,.63.51,2.07,2.07,0,0,0,2.3-.27l.46-.38A2.07,2.07,0,0,0,793,670a2.09,2.09,0,0,0-.48-1.52Z" transform="translate(-239.02 -345)"/><path class="cls-23" d="M784.58,666.82a9.94,9.94,0,0,1-1.58,2.41,6.53,6.53,0,0,1-2.81,1.24,4.83,4.83,0,0,0,1,.54l2.32,2.73a2.52,2.52,0,0,0,4.44-1.42,2.55,2.55,0,0,0-.59-1.84Z" transform="translate(-239.02 -345)"/><path class="cls-23" d="M796.33,664.61l-2.67-3.13c-.27-.33-.87-1.15-1.24-1.3a3.74,3.74,0,0,1-1.09,2.57,5,5,0,0,1-2.81.86,9.13,9.13,0,0,0,1.09,1.31l2.66,3.13a2.67,2.67,0,0,0,.81.65,2.87,2.87,0,0,0,1,.28,2.56,2.56,0,0,0,1-.12,2.46,2.46,0,0,0,.91-.5,2.59,2.59,0,0,0,.93-1.81,2.56,2.56,0,0,0-.12-1,2.46,2.46,0,0,0-.5-.91Z" transform="translate(-239.02 -345)"/><path class="cls-23" d="M800.55,661.34c-.29-.33-3-4.39-3.25-4.64-.11,1.82-3.78,4.22-4.88,3.48l4.07,4.6a2.59,2.59,0,0,0,1.81.93,2.7,2.7,0,0,0,1.94-.62,2.59,2.59,0,0,0,.93-1.81,2.56,2.56,0,0,0-.12-1,2.46,2.46,0,0,0-.5-.91Z" transform="translate(-239.02 -345)"/><path class="cls-11" d="M627.66,579.54,643.22,631a22.08,22.08,0,0,0,18,15.49l101.13,15.68,5.71-23.82L678,613.47,667,575" transform="translate(-239.02 -345)"/><path class="cls-12" d="M768.1,638.37l-89.9-24.9-11.6-36.23a1.14,1.14,0,0,0-.24-.41,1.33,1.33,0,0,0-.39-.28,1.1,1.1,0,0,0-.48-.08,1,1,0,0,0-.46.11h0a1.11,1.11,0,0,0-.52.55,1.17,1.17,0,0,0,0,.76l10.74,37.58,92.68,23.84.22-.94Z" transform="translate(-239.02 -345)"/><path class="cls-12" d="M646.43,628,631.6,584.8a.39.39,0,0,0-.18-.18.39.39,0,0,0-.26,0,.39.39,0,0,0-.2.16.35.35,0,0,0,0,.25l12,44.12c2.49,8.24,10.2,16.77,18.72,18l100.71,15.07.77-3.22-99.68-15.46C655,642.3,648.92,636.26,646.43,628Z" transform="translate(-239.02 -345)"/><path class="cls-10" d="M808.21,655.23l-11.16.07L785,646l-5.37,3.78a3.67,3.67,0,0,1-2.37.73,3.59,3.59,0,0,1-2.28-1l-.76-.72a.15.15,0,0,1-.06-.09.26.26,0,0,1,0-.2.15.15,0,0,1,.06-.09l6.24-6.29a5.4,5.4,0,0,1,2.64-1.46l2.1-.48a5.57,5.57,0,0,1,2.3-.05,5.67,5.67,0,0,1,2.12.89l8.77,5.66s6.73-2.66,6.92-2.72Z" transform="translate(-239.02 -345)"/><path class="cls-3" d="M795.82,654.34,785,646l-5.37,3.78a3.67,3.67,0,0,1-2.37.73,3.59,3.59,0,0,1-2.28-1l-.45-.42-.32.32a.15.15,0,0,0-.06.09.26.26,0,0,0,0,.2.15.15,0,0,0,.06.09l.76.72a3.59,3.59,0,0,0,2.28,1,3.67,3.67,0,0,0,2.37-.73L785,647l11.93,9.1Z" transform="translate(-239.02 -345)"/><path d="M629.71,1042.22v.33a2.78,2.78,0,0,0,.32,1,2.65,2.65,0,0,0,.69.8,2.49,2.49,0,0,0,.94.49,2.86,2.86,0,0,0,1.05.08H660c1.59,0,3-1,3-2.38V1041H629.77C629.74,1041.41,629.71,1041.81,629.71,1042.22Z" transform="translate(-239.02 -345)"/><path d="M912.83,496.58a9.44,9.44,0,0,1-8.66-6.14,9.42,9.42,0,0,1-.59-3.68,9.43,9.43,0,0,1,6.32-8.53,9.51,9.51,0,0,1,3.7-.51c.28,0,1-.19.95.09C912.45,486,914.93,496.58,912.83,496.58Z" transform="translate(-239.02 -345)"/><path class="cls-10" d="M914.45,466.86s-10.76,55.54,14.86,58.21c22.2,2.28,23.63-32.3,23.63-32.3l-1.72-22.29L934,464.19Z" transform="translate(-239.02 -345)"/><path d="M921.79,480.1c2.57-3.62,6.86-6.29,11.43-6.19,5.14.09,9.34,4.19,8.86,10.19l-.1,1.34a2.33,2.33,0,0,0,2.1,2.47h0a4.25,4.25,0,0,1,1.64.36,4.28,4.28,0,0,1,2.27,2.38,4.22,4.22,0,0,1,.28,1.65l-.09,3.9a1,1,0,0,0,.06.33,1,1,0,0,0,.18.28.84.84,0,0,0,.28.18.78.78,0,0,0,.33.07s1.15.19,1.34-.76l.57-4.2-4-23.62-19.63-5.15-8.19,7Z" transform="translate(-239.02 -345)"/><path class="cls-9" d="M951.89,501.35a4,4,0,0,1-1.62-.73,3.88,3.88,0,0,1-1.14-1.37l3,5.24Z" transform="translate(-239.02 -345)"/><path class="cls-9" d="M942.89,519.73a16.78,16.78,0,0,1-10.67,6.1,17.89,17.89,0,0,1-10.57,3.24l.28-6.29.86.48a15.67,15.67,0,0,0,19.34-4.2c.09-.19.47-.19.66-.09a.81.81,0,0,1,.15.37.76.76,0,0,1-.05.39Z" transform="translate(-239.02 -345)"/><path class="cls-15" d="M924.17,510.2l10.19-2.38a5.08,5.08,0,0,1-3.81,5.15C925.69,514.21,924.17,510.2,924.17,510.2Z" transform="translate(-239.02 -345)"/><path d="M933.22,492.87a2,2,0,0,1,1.17.36,2.14,2.14,0,0,1,.77.94,2.09,2.09,0,0,1,.12,1.21,2,2,0,0,1-.58,1.08,2.1,2.1,0,0,1-3.58-1.5,2,2,0,0,1,.16-.8,2,2,0,0,1,.46-.68,2,2,0,0,1,.68-.45,2,2,0,0,1,.8-.16Z" transform="translate(-239.02 -345)"/><path class="cls-15" d="M932.27,494.77a.38.38,0,1,0-.38-.38A.38.38,0,0,0,932.27,494.77Z" transform="translate(-239.02 -345)"/><path d="M916.93,497.63a2.1,2.1,0,1,0-2.1-2.1A2.1,2.1,0,0,0,916.93,497.63Z" transform="translate(-239.02 -345)"/><path class="cls-15" d="M916.07,495.25a.38.38,0,1,0-.38-.38A.38.38,0,0,0,916.07,495.25Z" transform="translate(-239.02 -345)"/><path class="cls-3" d="M924.36,507.06l2.67.1a.85.85,0,0,0,.42-.19.88.88,0,0,0,.24-.39.78.78,0,0,0-.19-.41.75.75,0,0,0-.38-.25l-2.66-.1a1.23,1.23,0,0,1-1.15-1.24c.1-.66.67-1.23,1.24-1.14a.74.74,0,0,0,.42-.19.82.82,0,0,0,.25-.38c.09-.29-.29-.57-.57-.67a2.52,2.52,0,0,0-2.58,2.29,2.56,2.56,0,0,0,.12.95,2.43,2.43,0,0,0,.48.82,2.24,2.24,0,0,0,.76.57,2.32,2.32,0,0,0,.93.23Z" transform="translate(-239.02 -345)"/><path d="M908.07,493.44l.1,2.28a8,8,0,1,0,16.09-.47l-.09-2.29a2.66,2.66,0,0,0-.15-1,2.52,2.52,0,0,0-.52-.84l3.15-.09a2.53,2.53,0,0,0-.47.85,2.41,2.41,0,0,0-.11,1l.1,2.28a8.05,8.05,0,1,0,16.1-.47l-.1-2.29a3,3,0,0,0-3-2.86l-10.1.29H929l-7.81.19h-1.24l-9,.28a3.14,3.14,0,0,0-2.85,3.15Zm20.77-2.38,10.19-.29a1.79,1.79,0,0,1,1.81,1.72l.1,2.28a6.8,6.8,0,0,1-.45,2.64,6.81,6.81,0,0,1-3.61,3.82,6.9,6.9,0,0,1-2.61.59,6.8,6.8,0,0,1-2.64-.45,6.76,6.76,0,0,1-3.81-3.61,6.73,6.73,0,0,1-.6-2.61l-.1-2.28a2,2,0,0,1,.54-1.21A2,2,0,0,1,928.84,491.06Zm-19.63,2.38a1.81,1.81,0,0,1,1.72-1.81l9-.29h1.24a1.74,1.74,0,0,1,1.25.49,1.79,1.79,0,0,1,.56,1.23l.1,2.28a6.86,6.86,0,1,1-13.72.38Z" transform="translate(-239.02 -345)"/><path d="M957.89,477.34c-.76-6-3.9-10.48-9.14-11.62a14.2,14.2,0,0,0-6.67.28,1.52,1.52,0,0,1-.6.06,1.42,1.42,0,0,1-1-.57,1.38,1.38,0,0,1-.27-.54,9.16,9.16,0,0,0-8.86-6.95,8.88,8.88,0,0,0-7.33,3.72,1.54,1.54,0,0,1-.45.43,1.5,1.5,0,0,1-.58.21,1.62,1.62,0,0,1-.62-.06,1.44,1.44,0,0,1-.54-.3s-6.1-4.86-14.1.1a13,13,0,0,0-4.48,16.9c3.24,6.38,11.62,8.29,16.77,3.43a11.9,11.9,0,0,0,3.52-8.1,15.21,15.21,0,0,0-.57-6.29h2.67c3.14-.19,8.1-.76,12.76-.09-.09.09-.19.09-.28.19l8.29,2.76s2.57,21.91,3.9,21.72C956.08,491.34,958.66,482.77,957.89,477.34Z" transform="translate(-239.02 -345)"/><path class="cls-10" d="M949.94,490.2a3.89,3.89,0,0,1,1.95-2.65,4,4,0,0,1,1.62-.47,4,4,0,0,1,1.67.26c5,1.43,4.09,11.43-2.48,13.72-4.1.86-3.52-1.62-3.24-4.95Z" transform="translate(-239.02 -345)"/><path class="cls-12" d="M955.75,490.1a2.69,2.69,0,0,0-2.38-.28,3,3,0,0,0-1.62,1.62,5.06,5.06,0,0,0-.38,2.95v.86a.41.41,0,0,0,0,.19.5.5,0,0,0,.14.15.39.39,0,0,0,.18.06.44.44,0,0,0,.2,0,.41.41,0,0,0,.19-.05.4.4,0,0,0,.15-.14.39.39,0,0,0,.06-.18.44.44,0,0,0,0-.2v-.86a6.5,6.5,0,0,1,.29-2.48,2.36,2.36,0,0,1,1-1.14,2.25,2.25,0,0,1,1.53.19.59.59,0,0,0,.37,0,.55.55,0,0,0,.3-.2C956,490.58,955.94,490.29,955.75,490.1Z" transform="translate(-239.02 -345)"/><path d="M638.35,1017.51S637,1031,644,1033c0,0,14,5,10.59-16.06,0,0-.59-3.94-7.9-3.79C646.69,1013.15,638,1013,638.35,1017.51Z" transform="translate(-239.02 -345)"/><path class="cls-10" d="M767.42,661.62l.25-.08a3.14,3.14,0,0,1,3.55,1.15h0a1.5,1.5,0,0,1,.27.68,1.37,1.37,0,0,1-.08.72,1.48,1.48,0,0,1-.4.61,1.63,1.63,0,0,1-.65.34l-1.07.27a2.33,2.33,0,0,1-1.66-.2,2.4,2.4,0,0,1-1.11-1.24l-.07-.18a1.5,1.5,0,0,1-.11-.63,1.61,1.61,0,0,1,.15-.61,1.48,1.48,0,0,1,.38-.51,1.53,1.53,0,0,1,.55-.32Z" transform="translate(-239.02 -345)"/><path class="cls-10" d="M777.26,670.87l1.46,2.07a2.7,2.7,0,0,0,2.68,1.1,1.8,1.8,0,0,0,1.14-.71l2.11-2.89a2.11,2.11,0,0,0,.37-1.61,2.18,2.18,0,0,0-.3-.78,2.11,2.11,0,0,0-.58-.61h0a2.16,2.16,0,0,0-1.28-.38,2.19,2.19,0,0,0-1.26.45Z" transform="translate(-239.02 -345)"/><path class="cls-10" d="M773.46,668.66l1.2,1.8a2.64,2.64,0,0,0,1.65,1.11,2.6,2.6,0,0,0,2-.37l4.91-3.22a2.28,2.28,0,0,0,1-1.86,2.49,2.49,0,0,0-.24-1.07,2.37,2.37,0,0,0-.71-.83h0a2.26,2.26,0,0,0-2.55-.09Z" transform="translate(-239.02 -345)"/><path class="cls-10" d="M769.2,664.1l3.32.25a2.32,2.32,0,0,0,1.34-.3l2.7-1.56a2.34,2.34,0,0,1,3,.55h0a2.13,2.13,0,0,1,.4.74,2.17,2.17,0,0,1-.18,1.63,2,2,0,0,1-.54.63l-3,2.49a2.3,2.3,0,0,1-1.48.53h0a4.87,4.87,0,0,1-4.39-2.65Z" transform="translate(-239.02 -345)"/><path class="cls-3" d="M783.27,664.22a2.17,2.17,0,0,0-1.5-.41,2.18,2.18,0,0,1,1.12.41,2.27,2.27,0,0,1,.7.84,2.32,2.32,0,0,1,.23,1.07,2.31,2.31,0,0,1-1,1.85l-4.91,3.22a2.65,2.65,0,0,1-1.25.41,2.64,2.64,0,0,0,1.64-.41l4.91-3.22a2.28,2.28,0,0,0,1-1.86,2.49,2.49,0,0,0-.24-1.07,2.37,2.37,0,0,0-.71-.83Z" transform="translate(-239.02 -345)"/><path class="cls-3" d="M779.53,663a2.44,2.44,0,0,0-.89-.67,2.34,2.34,0,0,0-1.11-.17,2.09,2.09,0,0,1,.88.26,2.18,2.18,0,0,1,.7.58,2.11,2.11,0,0,1,.48,1.57,2,2,0,0,1-.26.79,2,2,0,0,1-.54.64l-3,2.49a2.4,2.4,0,0,1-1.28.51h.25a2.35,2.35,0,0,0,1.48-.53l3-2.49a2,2,0,0,0,.53-.64,2.14,2.14,0,0,0,.24-.79,2.05,2.05,0,0,0-.08-.82,2.16,2.16,0,0,0-.4-.73Z" transform="translate(-239.02 -345)"/><path class="cls-3" d="M771.48,662.69a3.23,3.23,0,0,0-1.18-1,3.28,3.28,0,0,0-1.51-.31,3.21,3.21,0,0,1,1.36.37,3.1,3.1,0,0,1,1.07.93,1.5,1.5,0,0,1,.27.68,1.37,1.37,0,0,1-.08.72,1.48,1.48,0,0,1-.4.61,1.63,1.63,0,0,1-.65.34l-1.07.27a2.63,2.63,0,0,1-.39.06,2.81,2.81,0,0,0,.65-.06l1.07-.27a1.63,1.63,0,0,0,.65-.34,1.48,1.48,0,0,0,.4-.61,1.37,1.37,0,0,0,.08-.72,1.5,1.5,0,0,0-.27-.68Z" transform="translate(-239.02 -345)"/><path class="cls-12" d="M759.26,615.84l3.65-1.87-.91-4-3.52,4.93a.64.64,0,0,0-.15.4.65.65,0,0,0,.14.4.63.63,0,0,0,.37.21.62.62,0,0,0,.42-.07Z" transform="translate(-239.02 -345)"/><path class="cls-24" d="M646.82,686.25V692a3.32,3.32,0,0,0,1,2.36,3.38,3.38,0,0,0,2.36,1h21.75a3.38,3.38,0,0,0,2.36-1,3.32,3.32,0,0,0,1-2.36v-5.89" transform="translate(-239.02 -345)"/><path class="cls-25" d="M722.85,686.17v5.72a3.28,3.28,0,0,0,3.17,3.36l18.8.1" transform="translate(-239.02 -345)"/><path class="cls-26" d="M638.41,1000.47h24.52" transform="translate(-239.02 -345)"/><path class="cls-26" d="M731.41,1000.47h19.52" transform="translate(-239.02 -345)"/><path class="cls-3" d="M693.14,748.62l29.53,258.29h9.16L704.5,750.5c-2-10-14.58-4.81-14.58-4.81a3.3,3.3,0,0,1,2.17.85,3.27,3.27,0,0,1,1,2.08Z" transform="translate(-239.02 -345)"/><path class="cls-3" d="M692.36,549.32,703,555l4.38-14.55v2.32L704,557Z" transform="translate(-239.02 -345)"/><path class="cls-3" d="M692.36,549.32,686,558l-14.75-13.15L687,561Z" transform="translate(-239.02 -345)"/><path class="cls-27" d="M818.71,610.29a1.29,1.29,0,1,0-1.29-1.29A1.29,1.29,0,0,0,818.71,610.29Z" transform="translate(-239.02 -345)"/><path class="cls-27" d="M814.29,613a1.29,1.29,0,1,0-1.29-1.29A1.29,1.29,0,0,0,814.29,613Z" transform="translate(-239.02 -345)"/><path class="cls-27" d="M757.08,656.93a1.29,1.29,0,1,0-1.29-1.29A1.29,1.29,0,0,0,757.08,656.93Z" transform="translate(-239.02 -345)"/><path class="cls-27" d="M751.92,656.36a1.29,1.29,0,1,0-1.29-1.29A1.29,1.29,0,0,0,751.92,656.36Z" transform="translate(-239.02 -345)"/><path class="cls-15" d="M805,643l-3.82,1.61,5.25,17.81L810,662Z" transform="translate(-239.02 -345)"/><g class="cls-28"><path class="cls-3" d="M933.83,539.23c-7.21,0-13.09-.38-13.21-.38a.36.36,0,0,1-.23-.13.37.37,0,0,1-.09-.25.38.38,0,0,1,.32-.37c.23,0,23.42,1.49,34.23-1.46a.34.34,0,0,1,.14,0l.14,0a.36.36,0,0,1,.11.1.24.24,0,0,1,.07.13.34.34,0,0,1,0,.14.33.33,0,0,1,0,.14.36.36,0,0,1-.1.11.33.33,0,0,1-.13.07C949.63,538.85,941.06,539.23,933.83,539.23Z" transform="translate(-239.02 -345)"/></g><g class="cls-28"><path class="cls-3" d="M921.14,600.5a.47.47,0,0,1-.3-.1.51.51,0,0,1-.18-.25l-12.09-35.94,5.71-3.26-5.8-1.68,3.24-19.38a.42.42,0,0,1,.08-.18.47.47,0,0,1,.14-.14.44.44,0,0,1,.19-.07.45.45,0,0,1,.2,0,.49.49,0,0,1,.18.08.62.62,0,0,1,.14.14.44.44,0,0,1,.07.19.45.45,0,0,1,0,.2l-3,18.46,7.17,2.07-7.07,4,11.85,35.17a.64.64,0,0,1,0,.2.7.7,0,0,1-.06.19.44.44,0,0,1-.12.15l-.18.09Z" transform="translate(-239.02 -345)"/></g><g class="cls-28"><path class="cls-3" d="M952.94,598h-.17a.42.42,0,0,1-.17-.1.51.51,0,0,1-.16-.34.63.63,0,0,1,0-.19l12.92-36.09L958.72,557l7.46-1.74L962.77,538a.53.53,0,0,1,.07-.38.62.62,0,0,1,.14-.14.5.5,0,0,1,.55,0,.5.5,0,0,1,.22.31l3.59,18.2-6.06,1.41,5.33,3.34-13.2,36.84a.56.56,0,0,1-.16.29.52.52,0,0,1-.31.12Z" transform="translate(-239.02 -345)"/></g><path class="cls-7" d="M832.9,435.46a39.27,39.27,0,0,0,11.37-27.63c0-22.58-19.19-40.67-42.22-40.67-22.61,0-38.94,16.84-41.53,34.94a40.43,40.43,0,0,0,10.39,32.72,41.4,41.4,0,0,1,11,28.27v1h40.58v-1C822.52,452.3,826.08,442.43,832.9,435.46Z" transform="translate(-239.02 -345)"/><path class="cls-13" d="M781.53,457.22s7.85,2.5,20.69,2.5,20.66-2.5,20.66-2.5-1.2,24.73-1.27,26.57c-.09,2.31-11.69,5.21-18.06,5.21-9.5,0-20.69-2.76-21-4.85S781.53,457.22,781.53,457.22Z" transform="translate(-239.02 -345)"/><path class="cls-15" d="M811.43,458a1.16,1.16,0,0,1-.32-.08.71.71,0,0,1-.27-.21.92.92,0,0,1-.17-.29.91.91,0,0,1,0-.33l1-16.56a29.94,29.94,0,0,1,1.54-7.84c.74-2.19,1.73-5.06,2.81-8.07h-.29c-3.86,0-7.38-1.36-9-3.41a13.66,13.66,0,0,1-2.24-4.94c-.56-1.94-.83-2.59-1.82-2.7h-.88c-1,.11-1.25.76-1.81,2.7a13.66,13.66,0,0,1-2.24,4.94c-1.58,2.05-5.1,3.39-9,3.41h-.29c1.08,3,2.07,5.88,2.81,8.07l1.54,7.84,1,16.56a.91.91,0,0,1,0,.33.92.92,0,0,1-.17.29.71.71,0,0,1-.27.21,1.16,1.16,0,0,1-.32.08.93.93,0,0,1-.33,0,.92.92,0,0,1-.29-.17.9.9,0,0,1-.2-.27.89.89,0,0,1-.08-.32l-1-16.46a29.42,29.42,0,0,0-1.49-7.6c-.94-2.78-2-5.76-3-8.66a14.74,14.74,0,0,1-9.82-5.5c-3.82-4.89-3.12-9.25-.85-11.22a3.78,3.78,0,0,1,1.23-.78,3.93,3.93,0,0,1,1.44-.24,3.65,3.65,0,0,1,1.41.34,3.56,3.56,0,0,1,1.18.85c1.51,1.56,4.24,8.35,6.65,14.95h.91c3.25,0,6.38-1.14,7.61-2.75a12.19,12.19,0,0,0,2-4.36c.52-1.83,1.06-3.72,3.33-3.93h1.13c2.27.21,2.81,2.1,3.33,3.93a12.11,12.11,0,0,0,2,4.36c1.23,1.61,4.36,2.73,7.61,2.75h.91c2.41-6.6,5.14-13.39,6.65-14.95a3.56,3.56,0,0,1,1.18-.85,3.64,3.64,0,0,1,1.41-.33,3.55,3.55,0,0,1,1.44.24,3.5,3.5,0,0,1,1.23.77c2.27,2,3,6.33-.85,11.22a14.55,14.55,0,0,1-9.82,5.5c-1,2.9-2.09,5.88-3,8.66a29.42,29.42,0,0,0-1.49,7.6l-1,16.46a1,1,0,0,1-.09.34,1.09,1.09,0,0,1-.21.27.84.84,0,0,1-.31.16.7.7,0,0,1-.35,0Zm14.47-49.54a2.17,2.17,0,0,0-.79.18,2.07,2.07,0,0,0-.65.48c-1.17,1.2-3.54,6.95-6,13.52a12.77,12.77,0,0,0,7.8-4.72c3.13-4,2.76-7.41,1.08-8.87a2.32,2.32,0,0,0-1.44-.61Zm-47.39,0A2.26,2.26,0,0,0,777,409c-1.68,1.46-2,4.86,1.08,8.87a12.75,12.75,0,0,0,7.79,4.72c-2.43-6.57-4.79-12.32-6-13.52a2,2,0,0,0-1.36-.63Z" transform="translate(-239.02 -345)"/><path class="cls-4" d="M801.86,464.43a55.84,55.84,0,0,1-18.18-2.8.45.45,0,0,1-.25-.24.44.44,0,0,1,0-.34.49.49,0,0,1,.24-.25.47.47,0,0,1,.35,0,59.53,59.53,0,0,0,35.88,0,.45.45,0,0,1,.34,0,.44.44,0,0,1,.22.26.33.33,0,0,1,0,.17.34.34,0,0,1-.05.17.42.42,0,0,1-.26.22,60.71,60.71,0,0,1-18.3,2.78Z" transform="translate(-239.02 -345)"/><path class="cls-4" d="M801.86,468.6a56.41,56.41,0,0,1-18.18-2.79.44.44,0,0,1-.19-.07.4.4,0,0,1-.14-.15.33.33,0,0,1-.06-.19.34.34,0,0,1,0-.2.39.39,0,0,1,.11-.17.4.4,0,0,1,.18-.1.44.44,0,0,1,.2,0,.46.46,0,0,1,.19.08,59.53,59.53,0,0,0,35.88,0,.33.33,0,0,1,.17,0,.33.33,0,0,1,.17,0,.53.53,0,0,1,.14.11.48.48,0,0,1,.08.16.35.35,0,0,1,0,.17.41.41,0,0,1-.05.18.33.33,0,0,1-.11.13.38.38,0,0,1-.15.09A61,61,0,0,1,801.86,468.6Z" transform="translate(-239.02 -345)"/><path class="cls-4" d="M801.86,472.78A56.13,56.13,0,0,1,783.68,470a.53.53,0,0,1-.17-.08.45.45,0,0,1-.13-.15.45.45,0,0,1,0-.19.58.58,0,0,1,0-.19.45.45,0,0,1,.11-.17.44.44,0,0,1,.16-.1.63.63,0,0,1,.19,0,.6.6,0,0,1,.19.06,59.53,59.53,0,0,0,35.88,0,.5.5,0,0,1,.34,0,.49.49,0,0,1,.22.27.35.35,0,0,1,0,.17.47.47,0,0,1,0,.17.53.53,0,0,1-.11.14.48.48,0,0,1-.16.08,60.7,60.7,0,0,1-18.3,2.77Z" transform="translate(-239.02 -345)"/><path class="cls-4" d="M801.86,477a56.11,56.11,0,0,1-18.18-2.8.46.46,0,0,1-.15-.09.78.78,0,0,1-.1-.15.85.85,0,0,1,0-.17.57.57,0,0,1,0-.18.71.71,0,0,1,.1-.14.33.33,0,0,1,.14-.1.39.39,0,0,1,.18,0,.47.47,0,0,1,.17,0,59.53,59.53,0,0,0,35.88,0,.55.55,0,0,1,.18,0,.49.49,0,0,1,.16.05.53.53,0,0,1,.14.11.6.6,0,0,1,.09.15.55.55,0,0,1,0,.18.34.34,0,0,1-.05.17.36.36,0,0,1-.11.14.53.53,0,0,1-.15.08,60.71,60.71,0,0,1-18.3,2.78Z" transform="translate(-239.02 -345)"/><path class="cls-4" d="M801.86,481.13a56.41,56.41,0,0,1-18.18-2.79.45.45,0,0,1-.25-.24.47.47,0,0,1,0-.35.49.49,0,0,1,.24-.25.47.47,0,0,1,.35,0,59.38,59.38,0,0,0,35.88,0,.44.44,0,0,1,.51.32.44.44,0,0,1,0,.32.51.51,0,0,1-.23.23,61,61,0,0,1-18.3,2.77Z" transform="translate(-239.02 -345)"/><path class="cls-4" d="M801.86,485.31a55.84,55.84,0,0,1-18.18-2.8.45.45,0,0,1-.25-.24.44.44,0,0,1,0-.34.49.49,0,0,1,.24-.25.47.47,0,0,1,.35,0,59.53,59.53,0,0,0,35.88,0,.5.5,0,0,1,.34,0,.49.49,0,0,1,.22.27.33.33,0,0,1,0,.17.34.34,0,0,1-.05.17.36.36,0,0,1-.11.14.53.53,0,0,1-.15.08,60.71,60.71,0,0,1-18.3,2.78Z" transform="translate(-239.02 -345)"/><path class="cls-29" d="M815.05,432.59c12.84,0,23.25-10.8,23.25-24.12s-10.41-24.12-23.25-24.12-23.25,10.8-23.25,24.12S802.21,432.59,815.05,432.59Z" transform="translate(-239.02 -345)"/><path class="cls-7" d="M801.45,356.56a16.62,16.62,0,0,1-.63-2.88,27.88,27.88,0,0,1-.21-2.89,25.38,25.38,0,0,1,.1-2.89,15.1,15.1,0,0,1,.53-2.9,15.77,15.77,0,0,1,.64,2.88,26,26,0,0,1,.1,5.78A15.1,15.1,0,0,1,801.45,356.56Z" transform="translate(-239.02 -345)"/><path class="cls-7" d="M775.06,363.92a14.67,14.67,0,0,1-2-2.17,27.44,27.44,0,0,1-3-4.95,15.88,15.88,0,0,1-1-2.78,14.74,14.74,0,0,1,2,2.18,22.79,22.79,0,0,1,1.62,2.39,27.23,27.23,0,0,1,1.36,2.56A15.35,15.35,0,0,1,775.06,363.92Z" transform="translate(-239.02 -345)"/><path class="cls-7" d="M755.89,383.5a15.58,15.58,0,0,1-2.81-.9,24.94,24.94,0,0,1-5.06-2.79,15.16,15.16,0,0,1-2.25-1.91,16.38,16.38,0,0,1,2.81.89,25.07,25.07,0,0,1,2.61,1.26,27.17,27.17,0,0,1,2.45,1.54,15.16,15.16,0,0,1,2.25,1.91Z" transform="translate(-239.02 -345)"/><path class="cls-7" d="M749.07,410a15.77,15.77,0,0,1-2.88.64,27.88,27.88,0,0,1-2.89.21,25.38,25.38,0,0,1-2.89-.1,15.1,15.1,0,0,1-2.9-.53,15.77,15.77,0,0,1,2.88-.64,27.88,27.88,0,0,1,2.89-.21,25.38,25.38,0,0,1,2.89.11A15.08,15.08,0,0,1,749.07,410Z" transform="translate(-239.02 -345)"/><path class="cls-7" d="M756.43,436.43a14.67,14.67,0,0,1-2.17,2,26.94,26.94,0,0,1-5,3,15.88,15.88,0,0,1-2.78,1,15.92,15.92,0,0,1,2.18-2,25.22,25.22,0,0,1,5-3,15,15,0,0,1,2.82-1Z" transform="translate(-239.02 -345)"/><path class="cls-7" d="M848.11,435.48a16.38,16.38,0,0,1,2.81.89,25.76,25.76,0,0,1,5.06,2.8,15.16,15.16,0,0,1,2.25,1.91,16.38,16.38,0,0,1-2.81-.89,28.46,28.46,0,0,1-2.61-1.26,27.17,27.17,0,0,1-2.45-1.54,15.16,15.16,0,0,1-2.25-1.91Z" transform="translate(-239.02 -345)"/><path class="cls-7" d="M854.93,408.94a15.75,15.75,0,0,1,2.88-.63,27.24,27.24,0,0,1,5.78-.11,15.91,15.91,0,0,1,2.9.53,14.24,14.24,0,0,1-2.88.63,25.37,25.37,0,0,1-2.89.22,27.92,27.92,0,0,1-2.89-.11,15.1,15.1,0,0,1-2.9-.53Z" transform="translate(-239.02 -345)"/><path class="cls-7" d="M847.57,382.55a16.44,16.44,0,0,1,2.17-2,27.84,27.84,0,0,1,5-3,15.11,15.11,0,0,1,2.78-1,15.92,15.92,0,0,1-2.18,2,22.79,22.79,0,0,1-2.39,1.62,27.23,27.23,0,0,1-2.56,1.36A15.84,15.84,0,0,1,847.57,382.55Z" transform="translate(-239.02 -345)"/><path class="cls-7" d="M828,363.38a16.38,16.38,0,0,1,.89-2.81q.57-1.33,1.26-2.61a27.17,27.17,0,0,1,1.54-2.45,15.16,15.16,0,0,1,1.91-2.25,16.38,16.38,0,0,1-.89,2.81,25.76,25.76,0,0,1-2.8,5.06A15.78,15.78,0,0,1,828,363.38Z" transform="translate(-239.02 -345)"/><path class="cls-7" d="M1169.23,732a6.86,6.86,0,0,0-3,.71,6.94,6.94,0,0,0-2.44,2c-8.9,11.44-10.7,35.58-7,41.84,4.32,7.37-.15,10,.9,16.69.84,5.42,8.46,9.53,11.28,10.88a2.42,2.42,0,0,0,2.1,0c2.93-1.41,11-5.77,11.69-11.25.84-6.69-3.7-9.21.4-16.71,3.48-6.37,1-30.44-8.29-41.61a7.08,7.08,0,0,0-5.56-2.5" transform="translate(-239.02 -345)"/><path class="cls-30" d="M1169.23,732a6.86,6.86,0,0,0-3,.71,6.94,6.94,0,0,0-2.44,2c-8.9,11.44-10.7,35.58-7,41.84,4.32,7.37-.15,10,.9,16.69.84,5.42,8.46,9.53,11.28,10.88a2.42,2.42,0,0,0,2.1,0c2.93-1.41,11-5.77,11.69-11.25.84-6.69-3.7-9.21.4-16.71,3.48-6.37,1-30.44-8.29-41.61a7.08,7.08,0,0,0-5.56-2.5" transform="translate(-239.02 -345)"/><path class="cls-7" d="M1232.09,797.78a7,7,0,0,0-5.87-1.64c-14.26,2.67-31.6,19.55-33,26.67-1.65,8.39-6.75,7.41-10.39,13.1-3,4.62,0,12.74,1.24,15.62a2.39,2.39,0,0,0,1.58,1.39c3.12.88,12.06,3,16.2-.68,5.07-4.45,3.33-9.35,11.38-12.25,6.82-2.46,20.89-22.15,21.37-36.65a7.14,7.14,0,0,0-.62-3.06,7.05,7.05,0,0,0-1.89-2.5" transform="translate(-239.02 -345)"/><path class="cls-7" d="M1104.4,813.32a5.85,5.85,0,0,0-2.13,4.61c.28,12.05,11.82,28.55,17.48,30.65,6.66,2.48,5.18,6.54,9.36,10.29,3.4,3,10.46,1.68,13,1.07a2,2,0,0,0,1.34-1.11c1.15-2.45,4-9.51,1.62-13.4-3-4.76-7.24-4-8.54-11-1.11-5.93-15.4-20.11-27.23-22.44a5.86,5.86,0,0,0-2.6.1,5.92,5.92,0,0,0-2.3,1.21" transform="translate(-239.02 -345)"/><path class="cls-7" d="M1211.62,840.26a5.15,5.15,0,0,0-2.09-.87,5.23,5.23,0,0,0-2.26.11c-10.08,2.94-21.38,16.34-21.88,21.57-.6,6.16-4.34,5.82-6.56,10.18-1.8,3.53.92,9.18,2,11.17a1.78,1.78,0,0,0,.51.58,1.76,1.76,0,0,0,.72.3c2.32.42,8.91,1.28,11.63-1.64,3.34-3.57,1.74-7,7.33-9.63,4.74-2.26,13.48-17.46,12.79-27.94a5,5,0,0,0-2.2-3.83" transform="translate(-239.02 -345)"/><path class="cls-7" d="M1136.21,768.07a5.78,5.78,0,0,0-2.25,1.3,5.88,5.88,0,0,0-1.48,2.14c-4.33,11.26.06,30.91,4.48,35,5.22,4.83,2.31,8,4.74,13.07,2,4.11,9,5.55,11.61,5.94A2,2,0,0,0,1155,825c2-1.83,7.37-7.25,6.59-11.77-.94-5.53-5.16-6.44-3.71-13.4,1.24-5.91-6.57-24.46-16.62-31.13a5.87,5.87,0,0,0-5-.65" transform="translate(-239.02 -345)"/><path class="cls-7" d="M1206.25,770.72a5.83,5.83,0,0,0-5.07-.2c-11,4.9-21.81,21.89-21.58,27.92.27,7.11-4,7.3-5.89,12.6-1.51,4.3,2.46,10.3,4,12.4a2,2,0,0,0,1.55.82c2.7.12,10.33.09,13-3.66,3.25-4.58.9-8.21,6.85-12.1,5.05-3.3,12.65-21.94,10.26-33.76a5.83,5.83,0,0,0-3.1-4" transform="translate(-239.02 -345)"/><path class="cls-30" d="M1136.21,768.07a5.78,5.78,0,0,0-2.25,1.3,5.88,5.88,0,0,0-1.48,2.14c-4.33,11.26.06,30.91,4.48,35,5.22,4.83,2.31,8,4.74,13.07,2,4.11,9,5.55,11.61,5.94A2,2,0,0,0,1155,825c2-1.83,7.37-7.25,6.59-11.77-.94-5.53-5.16-6.44-3.71-13.4,1.24-5.91-6.57-24.46-16.62-31.13a5.87,5.87,0,0,0-5-.65" transform="translate(-239.02 -345)"/><path class="cls-30" d="M1206.25,770.72a5.83,5.83,0,0,0-5.07-.2c-11,4.9-21.81,21.89-21.58,27.92.27,7.11-4,7.3-5.89,12.6-1.51,4.3,2.46,10.3,4,12.4a2,2,0,0,0,1.55.82c2.7.12,10.33.09,13-3.66,3.25-4.58.9-8.21,6.85-12.1,5.05-3.3,12.65-21.94,10.26-33.76a5.83,5.83,0,0,0-3.1-4" transform="translate(-239.02 -345)"/><path class="cls-7" d="M1167.25,773.35a5.91,5.91,0,0,0-2.55.48,5.81,5.81,0,0,0-2.09,1.52c-7.76,9.23-10,29.23-7.17,34.55,3.36,6.27-.43,8.33.22,13.91.54,4.53,6.74,8.18,9,9.39a2,2,0,0,0,.87.23,2.06,2.06,0,0,0,.88-.17c2.48-1.08,9.32-4.45,10.07-9,.91-5.54-2.79-7.77.85-13.88,3.1-5.18,1.76-25.27-5.57-34.84a5.86,5.86,0,0,0-4.55-2.26" transform="translate(-239.02 -345)"/><path class="cls-7" d="M1135,863.4a4.56,4.56,0,0,0-2,3.46c-.56,9.44,7.39,23.08,11.68,25.09,5,2.37,3.63,5.45,6.65,8.65,2.46,2.6,8.07,2,10.09,1.67a1.54,1.54,0,0,0,1.13-.78c1-1.84,3.78-7.17,2.12-10.36-2-3.91-5.39-3.59-6-9.14-.48-4.7-10.74-16.71-19.83-19.3a4.61,4.61,0,0,0-3.92.71" transform="translate(-239.02 -345)"/><path class="cls-12" d="M1211.62,840.26a5.15,5.15,0,0,0-2.09-.87,5.23,5.23,0,0,0-2.26.11c-10.08,2.94-21.38,16.34-21.88,21.57-.6,6.16-4.34,5.82-6.56,10.18-1.8,3.53.92,9.18,2,11.17a1.78,1.78,0,0,0,.51.58,1.76,1.76,0,0,0,.72.3c2.32.42,8.91,1.28,11.63-1.64,3.34-3.57,1.74-7,7.33-9.63,4.74-2.26,13.48-17.46,12.79-27.94a5,5,0,0,0-2.2-3.83" transform="translate(-239.02 -345)"/><path class="cls-12" d="M1167.25,773.35a5.91,5.91,0,0,0-2.55.48,5.81,5.81,0,0,0-2.09,1.52c-7.76,9.23-10,29.23-7.17,34.55,3.36,6.27-.43,8.33.22,13.91.54,4.53,6.74,8.18,9,9.39a2,2,0,0,0,.87.23,2.06,2.06,0,0,0,.88-.17c2.48-1.08,9.32-4.45,10.07-9,.91-5.54-2.79-7.77.85-13.88,3.1-5.18,1.76-25.27-5.57-34.84a5.86,5.86,0,0,0-4.55-2.26" transform="translate(-239.02 -345)"/><path class="cls-12" d="M1135,863.4a4.56,4.56,0,0,0-2,3.46c-.56,9.44,7.39,23.08,11.68,25.09,5,2.37,3.63,5.45,6.65,8.65,2.46,2.6,8.07,2,10.09,1.67a1.54,1.54,0,0,0,1.13-.78c1-1.84,3.78-7.17,2.12-10.36-2-3.91-5.39-3.59-6-9.14-.48-4.7-10.74-16.71-19.83-19.3a4.61,4.61,0,0,0-3.92.71" transform="translate(-239.02 -345)"/><path class="cls-7" d="M1168.86,915.38l-.71-.21c.17-.57,17.4-57.43,43.56-73.46l.39.63c-25.92,15.88-43.07,72.47-43.24,73" transform="translate(-239.02 -345)"/><path class="cls-7" d="M1167.75,915.37c-2.36-14.58-31.71-49.38-32-49.73l.57-.48c1.21,1.43,29.78,35.31,32.18,50.09Z" transform="translate(-239.02 -345)"/><path class="cls-7" d="M1168.67,915.3l-.73-.08,3.46-29.92a79.76,79.76,0,0,1,20.6-45.2l38.15-41.19.54.51-38.15,41.19a79,79,0,0,0-20.44,44.78Z" transform="translate(-239.02 -345)"/><path class="cls-7" d="M1167.64,915.41c-.19-.69-19.75-69.26-62-100.49l.45-.59c42.4,31.37,62,100.19,62.22,100.88Z" transform="translate(-239.02 -345)"/><path class="cls-7" d="M1167.08,776.86h-.74L1168,915.31h.74Z" transform="translate(-239.02 -345)"/><path class="cls-7" d="M1167.56,870.41c-.73-43.89,37.11-97.76,37.49-98.3l.6.43c-.38.53-38.08,54.21-37.34,97.86Z" transform="translate(-239.02 -345)"/><path class="cls-7" d="M1167.56,872.47c-.91-16.82-31.58-101.64-31.89-102.49l.7-.26c.31.86,31,85.78,31.94,102.71Z" transform="translate(-239.02 -345)"/><path class="cls-7" d="M1169,733.86l-.74,0,1.48,39.52.74,0Z" transform="translate(-239.02 -345)"/><path class="cls-7" d="M1136.61,875.28l-.29.68,11.13,4.7.29-.68Z" transform="translate(-239.02 -345)"/><path class="cls-7" d="M1107.42,826.56l-.28.69,19.42,7.91.28-.68Z" transform="translate(-239.02 -345)"/><path class="cls-7" d="M1133.41,781.54l-.58.46,13,16.58.58-.46Z" transform="translate(-239.02 -345)"/><path class="cls-7" d="M1173.88,792.06l-6.69,23.75.72.2,6.68-23.74Z" transform="translate(-239.02 -345)"/><path class="cls-7" d="M1191.81,779l-2.72,19.92.74.1,2.71-19.92Z" transform="translate(-239.02 -345)"/><path class="cls-7" d="M1207.69,824l-.72-.18c1.85-7.2,4.62-18.09,4.69-18.62h.74c0,.38-3.29,13.26-4.71,18.77" transform="translate(-239.02 -345)"/><path class="cls-7" d="M1205.72,854.4l-16.55,9.81.38.64,16.54-9.81Z" transform="translate(-239.02 -345)"/><g class="cls-28"><path class="cls-3" d="M1168.86,915.38l-.71-.21c.17-.57,17.4-57.43,43.56-73.46l.39.63c-25.92,15.88-43.07,72.47-43.24,73" transform="translate(-239.02 -345)"/><path class="cls-3" d="M1167.75,915.37c-2.36-14.58-31.71-49.38-32-49.73l.57-.48c1.21,1.43,29.78,35.31,32.18,50.09Z" transform="translate(-239.02 -345)"/><path class="cls-3" d="M1168.67,915.3l-.73-.08,3.46-29.92a79.76,79.76,0,0,1,20.6-45.2l38.15-41.19.54.51-38.15,41.19a79,79,0,0,0-20.44,44.78Z" transform="translate(-239.02 -345)"/><path class="cls-3" d="M1167.64,915.41c-.19-.69-19.75-69.26-62-100.49l.45-.59c42.4,31.37,62,100.19,62.22,100.88Z" transform="translate(-239.02 -345)"/><path class="cls-3" d="M1167.08,776.86h-.74L1168,915.31h.74Z" transform="translate(-239.02 -345)"/><path class="cls-3" d="M1167.56,870.41c-.73-43.89,37.11-97.76,37.49-98.3l.6.43c-.38.53-38.08,54.21-37.34,97.86Z" transform="translate(-239.02 -345)"/><path class="cls-3" d="M1167.56,872.47c-.91-16.82-31.58-101.64-31.89-102.49l.7-.26c.31.86,31,85.78,31.94,102.71Z" transform="translate(-239.02 -345)"/><path class="cls-3" d="M1169,733.86l-.74,0,1.48,39.52.74,0Z" transform="translate(-239.02 -345)"/><path class="cls-3" d="M1136.61,875.28l-.29.68,11.13,4.7.29-.68Z" transform="translate(-239.02 -345)"/><path class="cls-3" d="M1107.42,826.56l-.28.69,19.42,7.91.28-.68Z" transform="translate(-239.02 -345)"/><path class="cls-3" d="M1133.41,781.54l-.58.46,13,16.58.58-.46Z" transform="translate(-239.02 -345)"/><path class="cls-3" d="M1173.88,792.06l-6.69,23.75.72.2,6.68-23.75Z" transform="translate(-239.02 -345)"/><path class="cls-3" d="M1191.81,779l-2.72,19.92.74.1,2.71-19.92Z" transform="translate(-239.02 -345)"/><path class="cls-3" d="M1207.69,824l-.72-.18c1.85-7.2,4.62-18.09,4.69-18.62h.74c0,.38-3.29,13.26-4.71,18.77" transform="translate(-239.02 -345)"/><path class="cls-3" d="M1205.72,854.4l-16.55,9.81.38.64,16.54-9.81Z" transform="translate(-239.02 -345)"/></g><path class="cls-4" d="M1199.67,915.74H1137.8a.29.29,0,0,0-.29.29v5.76a.29.29,0,0,0,.29.29h61.87a.29.29,0,0,0,.29-.29V916A.29.29,0,0,0,1199.67,915.74Z" transform="translate(-239.02 -345)"/><path class="cls-3" d="M1200,915.74h-12.12v6.34H1200Z" transform="translate(-239.02 -345)"/><path class="cls-4" d="M1190.46,978.2H1147l-6.34-56.12h56.12Z" transform="translate(-239.02 -345)"/><path class="cls-3" d="M1196.8,922.08h-56.12v2.71H1185l-4.46,53.41h10l6.17-53.41h.17Z" transform="translate(-239.02 -345)"/><g class="cls-31"><path class="cls-32" d="M1195.24,938.44h-52.93v.91h52.93Z" transform="translate(-239.02 -345)"/></g><g class="cls-31"><path class="cls-32" d="M1194.54,943H1143v.91h51.53Z" transform="translate(-239.02 -345)"/></g><path class="cls-33" d="M1225.37,436.43h-135V636h135Z" transform="translate(-239.02 -345)"/><g class="cls-8"><path class="cls-9" d="M1225.37,436.43h-135V636h135Z" transform="translate(-239.02 -345)"/></g><path class="cls-33" d="M1220.88,436.43H1085.83V636h135.05Z" transform="translate(-239.02 -345)"/><path class="cls-15" d="M1215.12,442.35H1091.58V630.09h123.54Z" transform="translate(-239.02 -345)"/><path class="cls-2" d="M1195.79,462.67h-84.3v147.1h84.3Z" transform="translate(-239.02 -345)"/><path class="cls-2" d="M1180.41,514.28H1126.3v85.88h54.11Z" transform="translate(-239.02 -345)"/><path class="cls-7" d="M1153.28,503.53a26.77,26.77,0,0,0,26.77-26.62h-53.39a26.63,26.63,0,0,0,26.62,26.62" transform="translate(-239.02 -345)"/><path class="cls-13" d="M1197.25,950.14V978.2h-28.06V950.14h-2.71V978.2h-28.06V950.14h-2.72v95h2.72V986.34h28.06v58.84h2.71V986.34h28.06v58.84H1200v-95Z" transform="translate(-239.02 -345)"/></svg>